<?xml version="1.0" encoding="UTF-8" standalone="no"?>
<!-- Created with Inkscape (http://www.inkscape.org/) -->

<svg
   width="210mm"
   height="297mm"
   viewBox="0 0 210 297"
   version="1.1"
   id="svg1"
   xml:space="preserve"
   inkscape:version="1.3 (0e150ed6c4, 2023-07-21)"
   sodipodi:docname="Coo.svg"
   xmlns:inkscape="http://www.inkscape.org/namespaces/inkscape"
   xmlns:sodipodi="http://sodipodi.sourceforge.net/DTD/sodipodi-0.dtd"
   xmlns="http://www.w3.org/2000/svg"
   xmlns:svg="http://www.w3.org/2000/svg"><sodipodi:namedview
     id="namedview1"
     pagecolor="#ffffff"
     bordercolor="#000000"
     borderopacity="0.25"
     inkscape:showpageshadow="2"
     inkscape:pageopacity="0.0"
     inkscape:pagecheckerboard="0"
     inkscape:deskcolor="#d1d1d1"
     inkscape:document-units="mm"
     inkscape:zoom="0.70644641"
     inkscape:cx="396.34995"
     inkscape:cy="561.25984"
     inkscape:window-width="1920"
     inkscape:window-height="992"
     inkscape:window-x="-8"
     inkscape:window-y="-8"
     inkscape:window-maximized="1"
     inkscape:current-layer="g1" /><defs
     id="defs1" /><g
     inkscape:label="图层 1"
     inkscape:groupmode="layer"
     id="layer1"><g
       id="g1"
       transform="translate(1.4981084,0.37452707)"><path
         style="fill:#fdfdfd"
         d="m 43.191944,147.18916 v -34.73105 h 61.113856 61.11385 v 34.73105 34.73104 H 104.3058 43.191944 Z m 67.225236,31.06939 c 12.17264,-0.80559 24.2784,-3.69554 31.61467,-7.54723 2.97284,-1.5608 4.53772,-2.65479 6.60222,-4.61553 2.92778,-2.78063 3.999,-5.20126 3.8139,-8.61821 -0.0869,-1.60454 -0.24088,-2.18408 -0.98399,-3.70398 -0.73822,-1.50986 -1.25267,-2.15237 -3.17508,-3.96538 -1.26176,-1.18997 -2.60402,-2.3037 -2.98279,-2.47497 -0.37877,-0.17127 -0.95311,-0.45625 -1.27631,-0.63328 -1.38191,-0.75694 -5.15709,-2.55371 -6.37865,-3.03586 l -1.32501,-0.52298 1.35637,-1.09368 c 3.40887,-2.74869 4.82063,-5.71843 4.22679,-8.89143 -0.38417,-2.05269 -1.24199,-3.51 -3.14259,-5.3388 -4.9029,-4.71769 -14.49346,-7.99539 -27.76189,-9.48799 -3.42912,-0.38576 -17.440228,-0.38349 -20.919746,0.003 -8.768243,0.97489 -15.497361,2.65207 -21.154795,5.27267 -4.704128,2.17901 -7.694633,4.69423 -9.099692,7.65345 -0.430554,0.9068 -0.535349,1.52755 -0.536305,3.17673 -0.0011,1.83246 0.07808,2.21183 0.746727,3.5794 0.73024,1.49355 2.636289,3.62726 4.156779,4.65326 l 0.673735,0.45463 -2.632986,1.10268 c -1.448142,0.60647 -3.305695,1.49579 -4.127896,1.97627 -0.8222,0.48047 -1.595905,0.87358 -1.719343,0.87358 -0.442383,0 -4.062103,3.0105 -5.013341,4.16957 -2.104651,2.56448 -3.052562,5.57356 -2.596256,8.24166 0.442008,2.58449 1.429941,4.26287 3.904592,6.63346 3.827869,3.6669 8.686211,6.18168 16.188353,8.37945 11.848454,3.47102 26.230765,4.77246 41.542534,3.75913 z m -41.487189,-37.9347 c -2.45721,-1.38935 -4.650059,-3.52861 -5.004717,-4.88241 -0.367444,-1.40261 0.01456,-2.68851 1.179645,-3.97097 5.510515,-6.06562 22.925462,-9.97301 40.277121,-9.03697 7.80273,0.42092 13.189,1.25326 18.82887,2.90962 5.03857,1.47977 8.53431,3.17851 10.93947,5.31598 2.21913,1.97215 2.78741,3.60558 1.8961,5.45002 -0.59638,1.23414 -2.60351,2.99397 -4.76161,4.17493 l -1.909,1.04465 -2.16382,-0.54033 c -13.90836,-3.47312 -33.201241,-3.98948 -48.939427,-1.30982 -2.120908,0.36111 -7.447758,1.52768 -8.109626,1.77599 -0.196302,0.0736 -1.187072,-0.3393 -2.233006,-0.93069 z"
         id="path8" /><path
         style="fill:#ececec"
         d="m 99.313656,178.57071 c 0.292386,-0.0545 0.715484,-0.0524 0.940214,0.005 0.22473,0.057 -0.0145,0.10157 -0.531611,0.0991 -0.517118,-0.003 -0.700989,-0.0492 -0.408603,-0.10364 z m 1.995214,0.004 c 0.22624,-0.0573 0.59645,-0.0573 0.82268,0 0.22624,0.0573 0.0411,0.10415 -0.41134,0.10415 -0.45248,0 -0.63758,-0.0469 -0.41134,-0.10415 z m 6.94876,-0.22633 c 0.16968,-0.0658 0.37241,-0.0577 0.45052,0.018 0.0781,0.0757 -0.0607,0.1295 -0.30851,0.11962 -0.27382,-0.0109 -0.32952,-0.0649 -0.14201,-0.1376 z m 3.29075,-0.22774 c 0.16968,-0.0658 0.37241,-0.0577 0.45052,0.018 0.0781,0.0757 -0.0607,0.1295 -0.30851,0.11961 -0.27383,-0.0109 -0.32952,-0.0649 -0.14201,-0.13759 z m -21.228253,-4.29063 c -11.400477,-0.94246 -20.435373,-3.05325 -27.736287,-6.47993 -7.754343,-3.6395 -10.713435,-7.58368 -8.73287,-11.64007 0.816066,-1.67139 3.163524,-3.9313 5.489179,-5.28446 2.061822,-1.19966 6.872748,-3.35035 7.494468,-3.35035 0.216377,0 1.114533,-0.25203 1.995903,-0.56007 l 1.602491,-0.56008 1.599167,0.54711 c 4.327359,1.48047 11.496412,3.00031 17.347736,3.67773 4.95746,0.57393 17.577046,0.58029 22.447586,0.0113 4.56112,-0.53283 9.06102,-1.37159 12.49225,-2.32849 1.5531,-0.43313 2.97612,-0.78751 3.16226,-0.78751 0.18615,0 0.96819,-0.24792 1.73786,-0.55095 l 1.39941,-0.55094 1.94543,0.57858 c 5.73528,1.70572 9.83112,3.77588 12.52555,6.3308 2.09453,1.98608 2.82383,3.34924 2.80246,5.23813 -0.0203,1.7884 -0.74911,3.24618 -2.44336,4.88689 -4.79163,4.64022 -15.08491,8.33621 -28.25532,10.14561 -7.35078,1.00987 -19.22635,1.30891 -26.873913,0.67669 z M 93.7284,146.36917 c -5.020349,-0.34467 -13.524554,-1.64606 -14.452486,-2.21165 -0.391968,-0.23891 6.163412,-1.1707 11.631846,-1.65337 3.915797,-0.34562 15.28538,-0.34311 19.3919,0.004 3.46583,0.2932 11.42032,1.32212 11.60507,1.50112 0.20888,0.20238 -0.10939,0.29737 -2.9081,0.86791 -7.43541,1.51578 -16.83494,2.07068 -25.26823,1.4917 z m -29.881749,-4.01959 c -0.292376,-0.36121 -0.284062,-0.36927 0.08874,-0.086 0.226239,0.17191 0.411344,0.35126 0.411344,0.39855 0,0.18744 -0.193023,0.0668 -0.500089,-0.31257 z m -1.615391,-1.30953 c -0.570951,-0.56367 -0.985206,-1.02485 -0.920566,-1.02485 0.06464,0 0.584668,0.46118 1.155619,1.02485 0.570951,0.56367 0.985206,1.02485 0.920567,1.02485 -0.06464,0 -0.584669,-0.46118 -1.15562,-1.02485 z m 77.09748,-0.65535 c 0,-0.0473 0.1851,-0.22664 0.41134,-0.39855 0.37281,-0.28328 0.38112,-0.27523 0.0888,0.086 -0.30707,0.37936 -0.50009,0.50001 -0.50009,0.31256 z m -44.601364,-2.57619 c 0.226239,-0.0573 0.596448,-0.0573 0.822687,0 0.226239,0.0573 0.04113,0.10415 -0.411343,0.10415 -0.452478,0 -0.637582,-0.0469 -0.411344,-0.10415 z m 10.932714,-0.004 c 0.29239,-0.0545 0.71549,-0.0524 0.94022,0.005 0.22473,0.057 -0.0145,0.10157 -0.53161,0.0991 -0.51712,-0.003 -0.70099,-0.0492 -0.40861,-0.10364 z m 36.30877,-3.2551 c 0,-0.43841 0.0484,-0.61776 0.10749,-0.39855 0.0591,0.2192 0.0591,0.5779 0,0.7971 -0.0591,0.21921 -0.10749,0.0399 -0.10749,-0.39855 z m -6.52956,-3.70085 -0.92916,-0.96791 0.99898,0.90026 c 0.92904,0.83723 1.10699,1.03557 0.92915,1.03557 -0.0384,0 -0.48794,-0.43557 -0.99897,-0.96792 z m -70.152347,0.17081 c 0.303629,-0.31315 0.604939,-0.56936 0.669579,-0.56936 0.06464,0 -0.130897,0.25621 -0.434526,0.56936 -0.303629,0.31315 -0.60494,0.56936 -0.669579,0.56936 -0.06464,0 0.130897,-0.25621 0.434526,-0.56936 z m -3.5258,-2.69033 c 0,-0.0392 0.343766,-0.37227 0.763924,-0.74017 l 0.763923,-0.6689 -0.690373,0.74017 c -0.643524,0.68994 -0.837474,0.84485 -0.837474,0.6689 z m 49.552167,-5.55018 c 0.16968,-0.0658 0.37242,-0.0577 0.45052,0.018 0.0781,0.0757 -0.0607,0.12951 -0.30851,0.11962 -0.27382,-0.0109 -0.32952,-0.0649 -0.14201,-0.1376 z m -19.274366,-0.22774 c 0.169679,-0.0658 0.372413,-0.0577 0.450519,0.018 0.07811,0.0757 -0.06072,0.1295 -0.308507,0.11961 -0.273824,-0.0109 -0.329521,-0.0649 -0.142012,-0.13759 z m 16.688786,0 c 0.16968,-0.0658 0.37241,-0.0577 0.45052,0.018 0.0781,0.0757 -0.0607,0.1295 -0.30851,0.11961 -0.27382,-0.0109 -0.32952,-0.0649 -0.14201,-0.13759 z m -12.942624,-0.223 c 0.161599,-0.0632 0.426034,-0.0632 0.587633,0 0.161599,0.0632 0.02938,0.11487 -0.293816,0.11487 -0.323199,0 -0.455416,-0.0517 -0.293817,-0.11487 z m 8.818974,-0.007 c 0.2287,-0.0577 0.54602,-0.0539 0.70516,0.008 0.15914,0.0624 -0.028,0.10963 -0.41582,0.10499 -0.38784,-0.005 -0.51804,-0.0557 -0.28934,-0.11343 z m -13.270295,-4.09715 c 0.169679,-0.0658 0.372412,-0.0577 0.450518,0.018 0.07811,0.0757 -0.06072,0.12951 -0.308507,0.11962 -0.273824,-0.0109 -0.329521,-0.0649 -0.142011,-0.1376 z m 18.099105,0 c 0.16968,-0.0658 0.37241,-0.0577 0.45052,0.018 0.0781,0.0757 -0.0607,0.12951 -0.30851,0.11962 -0.27383,-0.0109 -0.32952,-0.0649 -0.14201,-0.1376 z m -14.587997,-0.223 c 0.161599,-0.0632 0.426034,-0.0632 0.587633,0 0.161599,0.0632 0.02938,0.11487 -0.293816,0.11487 -0.323199,0 -0.455416,-0.0517 -0.293817,-0.11487 z m 10.934447,-0.007 c 0.2287,-0.0577 0.54603,-0.054 0.70516,0.008 0.15914,0.0624 -0.028,0.10962 -0.41581,0.10498 -0.38784,-0.005 -0.51805,-0.0557 -0.28935,-0.11342 z"
         id="path7" /><path
         style="fill:#dca0a0"
         d="m 93.19953,178.3532 c 0.161599,-0.0632 0.426034,-0.0632 0.587633,0 0.161599,0.0632 0.02938,0.11488 -0.293816,0.11488 -0.323199,0 -0.455416,-0.0517 -0.293817,-0.11488 z m 14.35294,-0.005 c 0.16968,-0.0658 0.37241,-0.0577 0.45052,0.018 0.0781,0.0757 -0.0607,0.1295 -0.30851,0.11962 -0.27382,-0.0109 -0.32952,-0.0649 -0.14201,-0.1376 z m -17.643686,-0.223 c 0.161599,-0.0632 0.426034,-0.0632 0.587633,0 0.161599,0.0632 0.02938,0.11487 -0.293816,0.11487 -0.323199,0 -0.455416,-0.0517 -0.293817,-0.11487 z m 20.934436,-0.005 c 0.16968,-0.0658 0.37241,-0.0577 0.45052,0.018 0.0781,0.0757 -0.0607,0.1295 -0.30851,0.11961 -0.27383,-0.0109 -0.32952,-0.0649 -0.14201,-0.13759 z m -11.055985,-3.88314 c 0.552855,-0.0481 1.399045,-0.0474 1.880425,0.002 0.48138,0.0489 0.029,0.0883 -1.00519,0.0875 -1.034233,-8.3e-4 -1.428089,-0.0409 -0.875235,-0.089 z m -6.822758,-0.21152 c 0.161599,-0.0632 0.426034,-0.0632 0.587633,0 0.161599,0.0632 0.02938,0.11487 -0.293817,0.11487 -0.323198,0 -0.455415,-0.0517 -0.293816,-0.11487 z m 14.808353,0 c 0.1616,-0.0632 0.42604,-0.0632 0.58764,0 0.1616,0.0632 0.0294,0.11487 -0.29382,0.11487 -0.3232,0 -0.45542,-0.0517 -0.29382,-0.11487 z m -18.099099,-0.22775 c 0.161599,-0.0632 0.426034,-0.0632 0.587633,0 0.161599,0.0632 0.02938,0.11487 -0.293817,0.11487 -0.323198,0 -0.455415,-0.0517 -0.293816,-0.11487 z m 21.154799,0 c 0.1616,-0.0632 0.42603,-0.0632 0.58763,0 0.1616,0.0632 0.0294,0.11487 -0.29382,0.11487 -0.3232,0 -0.45541,-0.0517 -0.29381,-0.11487 z m 37.66728,-7.70635 c 0.43856,-0.43841 0.85027,-0.79711 0.91491,-0.79711 0.0646,0 -0.24129,0.3587 -0.67985,0.79711 -0.43856,0.4384 -0.85027,0.7971 -0.91491,0.7971 -0.0646,0 0.2413,-0.3587 0.67985,-0.7971 z m 3.77941,-6.39583 c 0.0113,-0.26531 0.067,-0.31928 0.14202,-0.1376 0.0679,0.16441 0.0595,0.36084 -0.0186,0.43651 -0.0781,0.0757 -0.13366,-0.0588 -0.12346,-0.29891 z M 48.652703,158.00702 c 0,-0.43841 0.04837,-0.61775 0.107495,-0.39855 0.05912,0.2192 0.05912,0.5779 0,0.79711 -0.05912,0.2192 -0.107495,0.0399 -0.107495,-0.39856 z M 152.27522,156.5077 c 0.0113,-0.2653 0.067,-0.31927 0.14202,-0.13759 0.0679,0.1644 0.0595,0.36083 -0.0186,0.43651 -0.0781,0.0757 -0.13366,-0.0588 -0.12346,-0.29892 z M 55.179662,153.566 c 0.303629,-0.31314 0.604939,-0.56936 0.669579,-0.56936 0.06464,0 -0.130897,0.25622 -0.434526,0.56936 -0.303629,0.31315 -0.60494,0.56937 -0.66958,0.56937 -0.06464,0 0.130898,-0.25622 0.434527,-0.56937 z m -3.290746,-2.91807 c 0,-0.0392 0.343765,-0.37227 0.763923,-0.74017 l 0.763923,-0.6689 -0.690373,0.74017 c -0.643524,0.68994 -0.837473,0.84485 -0.837473,0.6689 z m 53.548074,-0.0843 c 0.16968,-0.0658 0.37241,-0.0577 0.45052,0.018 0.0781,0.0757 -0.0607,0.12951 -0.30851,0.11962 -0.27382,-0.0109 -0.32952,-0.0649 -0.14201,-0.1376 z m -16.453728,-7.97106 c 0.169679,-0.0658 0.372412,-0.0577 0.450519,0.018 0.07811,0.0757 -0.06072,0.12951 -0.308508,0.11962 -0.273824,-0.0109 -0.329521,-0.0649 -0.142011,-0.1376 z m 22.785478,0.005 c 0.1616,-0.0632 0.42603,-0.0632 0.58763,0 0.1616,0.0632 0.0294,0.11487 -0.29381,0.11487 -0.3232,0 -0.45542,-0.0517 -0.29382,-0.11487 z m -19.964839,-0.23249 c 0.169679,-0.0658 0.372413,-0.0577 0.450519,0.018 0.07811,0.0757 -0.06072,0.1295 -0.308508,0.11961 -0.273823,-0.0109 -0.329521,-0.0649 -0.142011,-0.13759 z m 17.144199,0.005 c 0.1616,-0.0632 0.42603,-0.0632 0.58763,0 0.1616,0.0632 0.0294,0.11487 -0.29381,0.11487 -0.3232,0 -0.45542,-0.0517 -0.29382,-0.11487 z m -13.273418,-0.24459 c 0.617977,-0.0471 1.569943,-0.0465 2.115479,10e-4 0.545537,0.0478 0.03992,0.0863 -1.123595,0.0856 -1.163514,-7e-4 -1.609862,-0.0398 -0.991884,-0.0868 z m 8.108458,6.3e-4 c 0.55286,-0.0481 1.39905,-0.0474 1.88043,0.002 0.48138,0.0489 0.029,0.0883 -1.00519,0.0875 -1.03424,-8.2e-4 -1.42809,-0.0409 -0.87524,-0.089 z m 10.58588,-3.63244 c 0.16968,-0.0658 0.37241,-0.0577 0.45052,0.018 0.0781,0.0757 -0.0607,0.1295 -0.30851,0.11961 -0.27383,-0.0109 -0.32952,-0.0649 -0.14201,-0.13759 z m -25.385758,-0.22775 c 0.169679,-0.0658 0.372412,-0.0577 0.450519,0.018 0.07811,0.0757 -0.06072,0.12951 -0.308508,0.11962 -0.273824,-0.0109 -0.329521,-0.0649 -0.142011,-0.1376 z m 22.785478,0.005 c 0.1616,-0.0632 0.42603,-0.0632 0.58763,0 0.1616,0.0632 0.0294,0.11487 -0.29381,0.11487 -0.3232,0 -0.45542,-0.0517 -0.29382,-0.11487 z m -19.97953,-0.22775 c 0.161599,-0.0632 0.426034,-0.0632 0.587633,0 0.1616,0.0632 0.02938,0.11487 -0.293816,0.11487 -0.323198,0 -0.455416,-0.0517 -0.293817,-0.11487 z m 17.17358,-0.005 c 0.16968,-0.0658 0.37241,-0.0577 0.45052,0.018 0.0781,0.0757 -0.0607,0.1295 -0.30851,0.11961 -0.27382,-0.0109 -0.32952,-0.0649 -0.14201,-0.13759 z m -12.468304,-0.23722 c 0.422473,-0.0507 1.057116,-0.0496 1.410319,0.002 0.353203,0.052 0.0075,0.0934 -0.768133,0.0922 -0.775675,-0.001 -1.064659,-0.0438 -0.642186,-0.0945 z m 6.929864,0.002 c 0.35552,-0.0522 0.93727,-0.0522 1.29279,0 0.35552,0.0522 0.0646,0.0949 -0.6464,0.0949 -0.71103,0 -1.00191,-0.0427 -0.64639,-0.0949 z m 2.24769,-15.47909 c 0.16968,-0.0658 0.37242,-0.0577 0.45052,0.018 0.0781,0.0757 -0.0607,0.12951 -0.3085,0.11962 -0.27383,-0.0109 -0.32952,-0.0649 -0.14202,-0.1376 z m -0.70516,-4.32714 c 0.16968,-0.0658 0.37242,-0.0577 0.45052,0.018 0.0781,0.0757 -0.0607,0.1295 -0.3085,0.11961 -0.27383,-0.0109 -0.32952,-0.0649 -0.14202,-0.13759 z"
         id="path6" /><path
         style="fill:#9f9f9f"
         d="m 96.731542,150.55215 c 0.552855,-0.0481 1.399046,-0.0474 1.880427,10e-4 0.48138,0.0489 0.02904,0.0883 -1.00519,0.0875 -1.034234,-8.2e-4 -1.428091,-0.0409 -0.875237,-0.089 z m 5.987648,10e-4 c 0.4848,-0.0491 1.2781,-0.0491 1.7629,0 0.48479,0.0491 0.0881,0.0893 -0.88145,0.0893 -0.9696,0 -1.36625,-0.0402 -0.88145,-0.0893 z m -10.572926,-0.21966 c 0.228699,-0.0577 0.546021,-0.0539 0.70516,0.008 0.159138,0.0624 -0.02798,0.10962 -0.415817,0.10498 -0.387838,-0.005 -0.518042,-0.0557 -0.289343,-0.11342 z m 16.218676,0 c 0.2287,-0.0577 0.54602,-0.0539 0.70516,0.008 0.15914,0.0624 -0.028,0.10962 -0.41582,0.10498 -0.38783,-0.005 -0.51804,-0.0557 -0.28934,-0.11342 z m -18.691209,-0.22075 c 0.161599,-0.0632 0.426034,-0.0632 0.587633,0 0.161599,0.0632 0.02938,0.11487 -0.293817,0.11487 -0.323198,0 -0.455415,-0.0517 -0.293816,-0.11487 z m 21.389849,0 c 0.1616,-0.0632 0.42603,-0.0632 0.58763,0 0.1616,0.0632 0.0294,0.11487 -0.29381,0.11487 -0.3232,0 -0.45542,-0.0517 -0.29382,-0.11487 z m -23.490638,-0.23249 c 0.169679,-0.0658 0.372413,-0.0577 0.450519,0.018 0.07811,0.0757 -0.06072,0.1295 -0.308508,0.11961 -0.273823,-0.0109 -0.329521,-0.0649 -0.142011,-0.13759 z m 25.620808,0 c 0.16968,-0.0658 0.37241,-0.0577 0.45052,0.018 0.0781,0.0757 -0.0607,0.1295 -0.30851,0.11961 -0.27382,-0.0109 -0.32952,-0.0649 -0.14201,-0.13759 z M 85.927569,149.6525 c 0.169679,-0.0658 0.372413,-0.0577 0.450519,0.018 0.07811,0.0757 -0.06072,0.12951 -0.308508,0.11962 -0.273823,-0.0109 -0.329521,-0.0649 -0.142011,-0.1376 z m -2.820639,-0.45549 c 0.169679,-0.0658 0.372412,-0.0577 0.450518,0.018 0.07811,0.0757 -0.06072,0.12951 -0.308507,0.11962 -0.273824,-0.0109 -0.329521,-0.0649 -0.142011,-0.1376 z m 11.267866,-2.73808 c 0.290879,-0.0543 0.766862,-0.0543 1.05774,0 0.290879,0.0543 0.05289,0.0987 -0.52887,0.0987 -0.581757,0 -0.819748,-0.0444 -0.52887,-0.0987 z m 11.520354,-3.5e-4 c 0.29238,-0.0545 0.71548,-0.0524 0.94021,0.005 0.22473,0.057 -0.0145,0.10157 -0.53161,0.099 -0.51712,-0.003 -0.70099,-0.0492 -0.4086,-0.10364 z m -14.576046,-0.2175 c 0.161599,-0.0632 0.426034,-0.0632 0.587633,0 0.161599,0.0632 0.02938,0.11487 -0.293817,0.11487 -0.323198,0 -0.455415,-0.0517 -0.293816,-0.11487 z m 18.099106,0 c 0.1616,-0.0632 0.42603,-0.0632 0.58763,0 0.1616,0.0632 0.0294,0.11487 -0.29382,0.11487 -0.3232,0 -0.45541,-0.0517 -0.29381,-0.11487 z m -20.434948,-0.23249 c 0.169679,-0.0658 0.372412,-0.0577 0.450519,0.018 0.07811,0.0757 -0.06072,0.1295 -0.308508,0.11962 -0.273824,-0.0109 -0.329521,-0.0649 -0.142011,-0.1376 z m -1.880427,-0.22775 c 0.16968,-0.0658 0.372413,-0.0577 0.450519,0.018 0.07811,0.0757 -0.06072,0.12951 -0.308507,0.11962 -0.273824,-0.0109 -0.329521,-0.0649 -0.142012,-0.1376 z m 26.561025,0 c 0.16968,-0.0658 0.37241,-0.0577 0.45052,0.018 0.0781,0.0757 -0.0607,0.12951 -0.30851,0.11962 -0.27383,-0.0109 -0.32952,-0.0649 -0.14201,-0.1376 z m 25.07724,-4.8548 c 0.234,-0.25052 0.47833,-0.45549 0.54297,-0.45549 0.0646,0 -0.0739,0.20497 -0.30791,0.45549 -0.234,0.25052 -0.47833,0.45549 -0.54297,0.45549 -0.0646,0 0.0739,-0.20497 0.30791,-0.45549 z m -73.34768,-3.01762 -0.929154,-0.96791 0.998977,0.90026 c 0.549437,0.49515 0.998976,0.93071 0.998976,0.96792 0,0.1723 -0.204696,-1.2e-4 -1.068799,-0.90027 z m -6.199296,-2.80885 c 0.01128,-0.26531 0.06698,-0.31927 0.142012,-0.13759 0.0679,0.1644 0.05955,0.36083 -0.01856,0.43651 -0.07811,0.0757 -0.133661,-0.0588 -0.123455,-0.29892 z m 0.01856,-1.23361 c 0,-0.31315 0.05335,-0.44126 0.118558,-0.28468 0.06521,0.15657 0.06521,0.41278 0,0.56936 -0.06521,0.15657 -0.118558,0.0285 -0.118558,-0.28468 z m 79.398236,-6.09217 -0.81003,-0.85404 0.88145,0.78484 c 0.4848,0.43167 0.88145,0.81599 0.88145,0.85405 0,0.17391 -0.19891,0.0101 -0.95287,-0.78485 z m -51.508082,-4.7674 c 0.16968,-0.0658 0.372413,-0.0577 0.450519,0.018 0.07811,0.0757 -0.06072,0.1295 -0.308507,0.11961 -0.273824,-0.0109 -0.329521,-0.0649 -0.142012,-0.13759 z m 3.995906,-0.45549 c 0.169679,-0.0658 0.372413,-0.0577 0.450519,0.018 0.07811,0.0757 -0.06072,0.1295 -0.308507,0.11961 -0.273824,-0.0109 -0.329521,-0.0649 -0.142012,-0.13759 z m 3.163002,-0.23 c 0.228699,-0.0577 0.546021,-0.0539 0.70516,0.008 0.159139,0.0624 -0.02798,0.10963 -0.415817,0.10499 -0.387838,-0.005 -0.518042,-0.0557 -0.289343,-0.11343 z m 12.222764,0 c 0.2287,-0.0577 0.54603,-0.0539 0.70516,0.008 0.15914,0.0624 -0.028,0.10963 -0.41581,0.10499 -0.38784,-0.005 -0.51805,-0.0557 -0.28935,-0.11343 z m -20.556938,-3.41392 c 0.169679,-0.0658 0.372413,-0.0577 0.450519,0.018 0.07811,0.0757 -0.06072,0.12951 -0.308508,0.11962 -0.273823,-0.0109 -0.329521,-0.0649 -0.142011,-0.1376 z m 3.760853,-0.45548 c 0.169679,-0.0658 0.372412,-0.0577 0.450518,0.018 0.07811,0.0757 -0.06072,0.12951 -0.308507,0.11962 -0.273824,-0.0109 -0.329521,-0.0649 -0.142011,-0.13759 z m 21.389845,0 c 0.16968,-0.0658 0.37241,-0.0577 0.45052,0.018 0.0781,0.0757 -0.0607,0.12951 -0.30851,0.11962 -0.27382,-0.0109 -0.32952,-0.0649 -0.14201,-0.13759 z m -18.81895,-0.223 c 0.161599,-0.0632 0.426034,-0.0632 0.587633,0 0.161599,0.0632 0.02938,0.11487 -0.293817,0.11487 -0.323198,0 -0.455415,-0.0517 -0.293816,-0.11487 z m 16.23336,-0.005 c 0.16968,-0.0658 0.37242,-0.0577 0.45052,0.018 0.0781,0.0757 -0.0607,0.12951 -0.3085,0.11962 -0.27383,-0.0109 -0.32953,-0.0649 -0.14202,-0.1376 z m -11.767348,-0.23692 c 0.420158,-0.0505 1.107689,-0.0505 1.527847,0 0.420157,0.0505 0.07639,0.0919 -0.763924,0.0919 -0.840315,0 -1.184081,-0.0413 -0.763923,-0.0919 z m 6.228908,0.002 c 0.35552,-0.0522 0.93728,-0.0522 1.29279,0 0.35552,0.0522 0.0646,0.0949 -0.64639,0.0949 -0.71104,0 -1.00192,-0.0427 -0.6464,-0.0949 z"
         id="path5" /><path
         style="fill:#ca6060"
         d="m 94.60985,178.33929 c 0.420157,-0.0505 1.107688,-0.0505 1.527846,0 0.420158,0.0505 0.07639,0.0918 -0.763923,0.0918 -0.840316,0 -1.184081,-0.0413 -0.763923,-0.0918 z m 10.5774,0 c 0.42016,-0.0505 1.10769,-0.0505 1.52784,0 0.42016,0.0505 0.0764,0.0918 -0.76392,0.0918 -0.84031,0 -1.18408,-0.0413 -0.76392,-0.0918 z m -14.338253,-0.21383 c 0.161599,-0.0632 0.426034,-0.0632 0.587633,0 0.161599,0.0632 0.02938,0.11487 -0.293816,0.11487 -0.323199,0 -0.455416,-0.0517 -0.293817,-0.11487 z m 18.926263,-0.007 c 0.2287,-0.0577 0.54602,-0.054 0.70516,0.008 0.15914,0.0624 -0.028,0.10963 -0.41582,0.10499 -0.38783,-0.005 -0.51804,-0.0557 -0.28934,-0.11342 z m -22.217009,-0.22075 c 0.161599,-0.0632 0.426034,-0.0632 0.587633,0 0.1616,0.0632 0.02938,0.11487 -0.293816,0.11487 -0.323198,0 -0.455416,-0.0517 -0.293817,-0.11487 z m 25.507759,-0.007 c 0.2287,-0.0577 0.54602,-0.0539 0.70516,0.008 0.15913,0.0624 -0.028,0.10963 -0.41582,0.10499 -0.38784,-0.005 -0.51804,-0.0557 -0.28934,-0.11343 z m -29.018867,-0.45324 c 0.169679,-0.0658 0.372412,-0.0577 0.450519,0.018 0.07811,0.0757 -0.06072,0.12951 -0.308508,0.11962 -0.273824,-0.0109 -0.329521,-0.0649 -0.142011,-0.1376 z m 12.678186,-3.1976 c 0.420158,-0.0505 1.107689,-0.0505 1.527847,0 0.420157,0.0505 0.07639,0.0919 -0.763924,0.0919 -0.840315,0 -1.184081,-0.0413 -0.763923,-0.0919 z m 6.346441,0 c 0.42016,-0.0505 1.10769,-0.0505 1.52784,0 0.42016,0.0505 0.0764,0.0919 -0.76392,0.0919 -0.84031,0 -1.18408,-0.0413 -0.76392,-0.0919 z m -11.16056,-0.22082 c 0.2287,-0.0577 0.546022,-0.0539 0.70516,0.008 0.159139,0.0624 -0.02798,0.10963 -0.415816,0.10499 -0.387838,-0.005 -0.518043,-0.0557 -0.289344,-0.11343 z m 16.80184,0.007 c 0.1616,-0.0632 0.42603,-0.0632 0.58763,0 0.1616,0.0632 0.0294,0.11487 -0.29382,0.11487 -0.3232,0 -0.45541,-0.0517 -0.29381,-0.11487 z M 88.733518,173.7983 c 0.161599,-0.0632 0.426034,-0.0632 0.587633,0 0.161599,0.0632 0.02938,0.11487 -0.293817,0.11487 -0.323198,0 -0.455416,-0.0517 -0.293816,-0.11487 z m 23.157222,-0.007 c 0.2287,-0.0577 0.54602,-0.054 0.70516,0.008 0.15914,0.0624 -0.028,0.10963 -0.41582,0.10499 -0.38784,-0.005 -0.51804,-0.0557 -0.28934,-0.11343 z m -25.258011,-0.2255 c 0.169679,-0.0658 0.372412,-0.0577 0.450519,0.018 0.07811,0.0757 -0.06072,0.12951 -0.308508,0.11962 -0.273823,-0.0109 -0.329521,-0.0649 -0.142011,-0.1376 z m 29.381661,-0.22774 c 0.16968,-0.0658 0.37241,-0.0577 0.45052,0.018 0.0781,0.0757 -0.0607,0.1295 -0.30851,0.11961 -0.27382,-0.0109 -0.32952,-0.0649 -0.14201,-0.13759 z m -32.90746,-0.22775 c 0.169679,-0.0658 0.372412,-0.0577 0.450518,0.018 0.07811,0.0757 -0.06072,0.12951 -0.308507,0.11962 -0.273824,-0.0109 -0.329521,-0.0649 -0.142011,-0.1376 z m 63.50846,-5.39628 c 0,-0.0473 0.1851,-0.22664 0.41134,-0.39855 0.37281,-0.28328 0.38112,-0.27523 0.0888,0.086 -0.30707,0.37936 -0.50009,0.50001 -0.50009,0.31256 z m -94.256368,-1.84984 c -0.570951,-0.56367 -0.985206,-1.02485 -0.920566,-1.02485 0.06464,0 0.584668,0.46118 1.155619,1.02485 0.570952,0.56367 0.985206,1.02485 0.920567,1.02485 -0.06464,0 -0.584669,-0.46118 -1.15562,-1.02485 z m 3.16216,-2.90374 -0.929154,-0.96792 0.998977,0.90027 c 0.929038,0.83723 1.106989,1.03556 0.929153,1.03556 -0.0384,0 -0.487942,-0.43556 -0.998976,-0.96791 z M 152.29378,158.918 c 0,-0.31315 0.0533,-0.44125 0.11856,-0.28468 0.0652,0.15658 0.0652,0.41279 0,0.56936 -0.0652,0.15658 -0.11856,0.0285 -0.11856,-0.28468 z m -4.24952,-0.81608 c 0.0113,-0.26531 0.067,-0.31928 0.14202,-0.1376 0.0679,0.1644 0.0596,0.36083 -0.0186,0.43651 -0.0781,0.0757 -0.13366,-0.0588 -0.12346,-0.29891 z m 4.23096,-0.91098 c 0.0113,-0.26531 0.067,-0.31928 0.14202,-0.1376 0.0679,0.16441 0.0595,0.36084 -0.0186,0.43651 -0.0781,0.0757 -0.13366,-0.0588 -0.12346,-0.29891 z m -6.84775,-4.13736 -0.81003,-0.85404 0.88145,0.78484 c 0.48479,0.43167 0.88145,0.81599 0.88145,0.85404 0,0.17391 -0.19891,0.0101 -0.95287,-0.78484 z m -2.13281,-1.82196 c -0.29238,-0.36121 -0.28406,-0.36927 0.0888,-0.086 0.22623,0.17191 0.41134,0.35126 0.41134,0.39855 0,0.18744 -0.19302,0.0668 -0.50009,-0.31257 z m 5.20115,-1.08178 c -0.57095,-0.56367 -0.9852,-1.02486 -0.92056,-1.02486 0.0646,0 0.58467,0.46119 1.15562,1.02486 0.57095,0.56366 0.9852,1.02485 0.92056,1.02485 -0.0646,0 -0.58466,-0.46119 -1.15562,-1.02485 z m -65.858987,-6.87405 c 0.169679,-0.0658 0.372413,-0.0577 0.450519,0.018 0.07811,0.0757 -0.06072,0.12951 -0.308508,0.11962 -0.273823,-0.0109 -0.329521,-0.0649 -0.142011,-0.1376 z m 33.847677,-0.22774 c 0.16967,-0.0658 0.37241,-0.0577 0.45051,0.018 0.0781,0.0757 -0.0607,0.1295 -0.3085,0.11962 -0.27383,-0.0109 -0.32952,-0.0649 -0.14201,-0.1376 z m -30.321878,-0.22774 c 0.169679,-0.0658 0.372413,-0.0577 0.450519,0.018 0.07811,0.0757 -0.06072,0.1295 -0.308507,0.11961 -0.273824,-0.0109 -0.329521,-0.0649 -0.142012,-0.13759 z m 1.865736,-0.223 c 0.161599,-0.0632 0.426034,-0.0632 0.587633,0 0.161599,0.0632 0.02938,0.11487 -0.293817,0.11487 -0.323198,0 -0.455415,-0.0517 -0.293816,-0.11487 z m 24.680592,0 c 0.1616,-0.0632 0.42604,-0.0632 0.58764,0 0.16159,0.0632 0.0294,0.11487 -0.29382,0.11487 -0.3232,0 -0.45542,-0.0517 -0.29382,-0.11487 z m -21.859953,-0.22775 c 0.161599,-0.0632 0.426034,-0.0632 0.587633,0 0.161599,0.0632 0.02938,0.11487 -0.293816,0.11487 -0.323199,0 -0.455416,-0.0517 -0.293817,-0.11487 z m 19.039313,0 c 0.1616,-0.0632 0.42604,-0.0632 0.58764,0 0.1616,0.0632 0.0294,0.11487 -0.29382,0.11487 -0.3232,0 -0.45542,-0.0517 -0.29382,-0.11487 z m -16.096673,-0.23474 c 0.228699,-0.0577 0.546021,-0.0539 0.70516,0.008 0.159138,0.0624 -0.02798,0.10963 -0.415817,0.10499 -0.387838,-0.005 -0.518043,-0.0557 -0.289343,-0.11343 z m 12.923453,8.4e-4 c 0.22624,-0.0573 0.59645,-0.0573 0.82269,0 0.22624,0.0573 0.0411,0.10415 -0.41134,0.10415 -0.45248,0 -0.63759,-0.0469 -0.41135,-0.10415 z m 12.59005,-2.95927 c 0.16967,-0.0658 0.37241,-0.0577 0.45051,0.018 0.0781,0.0757 -0.0607,0.12951 -0.3085,0.11962 -0.27383,-0.0109 -0.32952,-0.0649 -0.14201,-0.1376 z m -35.963157,-0.22774 c 0.169679,-0.0658 0.372412,-0.0577 0.450519,0.018 0.07811,0.0757 -0.06072,0.1295 -0.308508,0.11961 -0.273823,-0.0109 -0.329521,-0.0649 -0.142011,-0.13759 z m 1.880426,-0.22775 c 0.169679,-0.0658 0.372413,-0.0577 0.450519,0.018 0.07811,0.0757 -0.06072,0.12951 -0.308507,0.11962 -0.273824,-0.0109 -0.329521,-0.0649 -0.142012,-0.1376 z m 1.880426,-0.22774 c 0.16968,-0.0658 0.372413,-0.0577 0.450519,0.018 0.07811,0.0757 -0.06072,0.1295 -0.308507,0.11961 -0.273824,-0.0109 -0.329521,-0.0649 -0.142012,-0.13759 z m 2.570896,-0.223 c 0.161599,-0.0632 0.426034,-0.0632 0.587633,0 0.161599,0.0632 0.02938,0.11487 -0.293817,0.11487 -0.323198,0 -0.455415,-0.0517 -0.293816,-0.11487 z m 21.154799,0 c 0.1616,-0.0632 0.42603,-0.0632 0.58763,0 0.1616,0.0632 0.0294,0.11487 -0.29382,0.11487 -0.3232,0 -0.45541,-0.0517 -0.29381,-0.11487 z m -18.099107,-0.22775 c 0.1616,-0.0632 0.426034,-0.0632 0.587634,0 0.161599,0.0632 0.02938,0.11487 -0.293817,0.11487 -0.323198,0 -0.455416,-0.0517 -0.293817,-0.11487 z m 15.278467,0 c 0.1616,-0.0632 0.42603,-0.0632 0.58763,0 0.1616,0.0632 0.0294,0.11487 -0.29382,0.11487 -0.32319,0 -0.45541,-0.0517 -0.29381,-0.11487 z m -8.454042,-0.24508 c 0.683052,-0.0461 1.740792,-0.0457 2.350532,0.001 0.60974,0.0467 0.0509,0.0845 -1.24191,0.0839 -1.292791,-5.9e-4 -1.791672,-0.0388 -1.108622,-0.085 z"
         id="path4" /><path
         style="fill:#707070"
         d="m 100.02028,150.55414 c 0.42248,-0.0507 1.05712,-0.0496 1.41032,0.002 0.35321,0.052 0.008,0.0934 -0.76813,0.0922 -0.775674,-10e-4 -1.064658,-0.0438 -0.64219,-0.0945 z m -6.69875,-0.22051 c 0.228699,-0.0577 0.546021,-0.0539 0.70516,0.008 0.159139,0.0624 -0.02798,0.10962 -0.415817,0.10498 -0.387838,-0.005 -0.518042,-0.0557 -0.289343,-0.11342 z m 13.86814,0 c 0.2287,-0.0577 0.54602,-0.0539 0.70516,0.008 0.15914,0.0624 -0.028,0.10962 -0.41581,0.10498 -0.38784,-0.005 -0.51805,-0.0557 -0.28935,-0.11342 z m 3.18344,-0.2255 c 0.16968,-0.0658 0.37241,-0.0577 0.45052,0.018 0.0781,0.0757 -0.0607,0.12951 -0.30851,0.11962 -0.27382,-0.0109 -0.32952,-0.0649 -0.14201,-0.1376 z m -10.702522,-3.42827 c 0.617982,-0.0471 1.569942,-0.0465 2.115482,0.001 0.54553,0.0478 0.0399,0.0863 -1.1236,0.0856 -1.163512,-6.9e-4 -1.60986,-0.0398 -0.991882,-0.0868 z m -6.471058,-0.2109 c 0.161599,-0.0632 0.426034,-0.0632 0.587633,0 0.161599,0.0632 0.02938,0.11487 -0.293816,0.11487 -0.323199,0 -0.455416,-0.0517 -0.293817,-0.11487 z m 14.1032,0 c 0.1616,-0.0632 0.42603,-0.0632 0.58763,0 0.1616,0.0632 0.0294,0.11487 -0.29382,0.11487 -0.32319,0 -0.45541,-0.0517 -0.29381,-0.11487 z m -16.674095,-0.23249 c 0.169679,-0.0658 0.372412,-0.0577 0.450518,0.018 0.07811,0.0757 -0.06072,0.12951 -0.308507,0.11962 -0.273824,-0.0109 -0.329521,-0.0649 -0.142011,-0.1376 z m -28.410029,-5.4811 -0.810032,-0.85404 0.881449,0.78484 c 0.820435,0.73052 0.989525,0.92324 0.810033,0.92324 -0.03928,0 -0.435932,-0.38432 -0.88145,-0.85404 z m 3.050556,-2.73293 -0.569843,-0.6263 0.646397,0.55212 c 0.355518,0.30367 0.646397,0.58551 0.646397,0.6263 0,0.17861 -0.190346,0.0333 -0.722951,-0.55212 z m 69.828618,0.55503 c 0,-0.0392 0.34376,-0.37227 0.76392,-0.74017 l 0.76392,-0.66891 -0.69037,0.74017 c -0.64352,0.68995 -0.83747,0.84486 -0.83747,0.66891 z m 0.45745,-7.84286 -0.81003,-0.85404 0.88145,0.78484 c 0.48479,0.43167 0.88145,0.81599 0.88145,0.85405 0,0.17391 -0.19891,0.0101 -0.95287,-0.78485 z m 3.97858,-1.82196 c -0.29238,-0.36121 -0.28406,-0.36927 0.0887,-0.086 0.22624,0.17191 0.41135,0.35126 0.41135,0.39855 0,0.18744 -0.19303,0.0668 -0.50009,-0.31257 z m -78.242763,0.0848 c 0,-0.0473 0.185104,-0.22665 0.411343,-0.39856 0.372808,-0.28328 0.381122,-0.27523 0.08875,0.086 -0.307067,0.37936 -0.500089,0.50001 -0.500089,0.31257 z m 76.127283,-2.13453 c -0.29238,-0.36121 -0.28406,-0.36927 0.0887,-0.086 0.39154,0.29751 0.51606,0.48453 0.3226,0.48453 -0.0488,0 -0.23391,-0.17934 -0.41134,-0.39855 z m -47.024749,-4.31191 c 0.16968,-0.0658 0.372413,-0.0577 0.450519,0.018 0.07811,0.0757 -0.06072,0.1295 -0.308507,0.11961 -0.273824,-0.0109 -0.329521,-0.0649 -0.142012,-0.13759 z m 19.979529,0 c 0.16968,-0.0658 0.37241,-0.0577 0.45052,0.018 0.0781,0.0757 -0.0607,0.1295 -0.30851,0.11961 -0.27382,-0.0109 -0.32952,-0.0649 -0.14201,-0.13759 z m -17.286633,-0.23 c 0.228699,-0.0577 0.546021,-0.0539 0.70516,0.008 0.159138,0.0624 -0.02798,0.10963 -0.415817,0.10499 -0.387838,-0.005 -0.518042,-0.0557 -0.289343,-0.11343 z m 14.451303,0.007 c 0.1616,-0.0632 0.42603,-0.0632 0.58763,0 0.1616,0.0632 0.0294,0.11487 -0.29381,0.11487 -0.3232,0 -0.45542,-0.0517 -0.29382,-0.11487 z m -8.100756,-0.24546 c 0.748076,-0.0453 1.911586,-0.0449 2.585586,9.3e-4 0.674,0.0459 0.0619,0.0829 -1.36014,0.0824 -1.422071,-5.1e-4 -1.973522,-0.038 -1.225446,-0.0834 z m -9.043443,-3.63094 c 0.16968,-0.0658 0.372413,-0.0577 0.450519,0.018 0.07811,0.0757 -0.06072,0.12951 -0.308507,0.11962 -0.273824,-0.0109 -0.329521,-0.0649 -0.142012,-0.13759 z m 19.979529,0 c 0.16968,-0.0658 0.37241,-0.0577 0.45052,0.018 0.0781,0.0757 -0.0607,0.12951 -0.30851,0.11962 -0.27382,-0.0109 -0.32952,-0.0649 -0.14201,-0.13759 z m -17.17358,-0.223 c 0.161599,-0.0632 0.426034,-0.0632 0.587633,0 0.161599,0.0632 0.02938,0.11487 -0.293816,0.11487 -0.323199,0 -0.455416,-0.0517 -0.293817,-0.11487 z m 14.2252,-0.007 c 0.2287,-0.0577 0.54602,-0.0539 0.70516,0.008 0.15914,0.0624 -0.028,0.10963 -0.41582,0.10499 -0.38784,-0.005 -0.51804,-0.0557 -0.28934,-0.11343 z m -7.637495,-0.23697 c 0.552855,-0.0481 1.399045,-0.0474 1.880425,0.002 0.48138,0.0489 0.029,0.0883 -1.00519,0.0875 -1.034233,-8.3e-4 -1.428089,-0.0409 -0.875235,-0.089 z"
         id="path3" /><path
         style="fill:#585858"
         d="m 91.847974,150.24648 c -6.885624,-0.58459 -13.568334,-1.89413 -19.812762,-3.88249 -5.331312,-1.6976 -10.289552,-5.27437 -11.861598,-8.5567 -0.880291,-1.83799 -1.000017,-4.23292 -0.301677,-6.03459 2.601837,-6.7126 14.789393,-11.86078 31.50593,-13.30851 5.219749,-0.45206 16.407513,-0.32024 21.154793,0.24925 20.57922,2.4687 32.58174,10.46077 28.54388,19.00638 -1.59813,3.38223 -5.88339,6.47613 -12.15138,8.77312 -0.874,0.32029 -1.74837,0.58234 -1.94305,0.58234 -0.19469,0 -1.48931,0.30365 -2.87693,0.67477 -3.35809,0.89812 -7.69198,1.71426 -11.57252,2.17929 -3.73045,0.44705 -16.795243,0.64736 -20.684686,0.31714 z m 18.608316,-3.9826 c 3.93219,-0.37749 7.96842,-1.02942 10.53829,-1.70213 0.9696,-0.25381 2.14052,-0.55711 2.60205,-0.67399 1.849,-0.46827 5.16315,-1.70114 7.39106,-2.74947 4.14516,-1.95049 6.69567,-4.51931 6.69567,-6.74373 0,-1.2619 -1.221,-3.11992 -2.92059,-4.44432 -9.95509,-7.75746 -37.715794,-10.28471 -56.665413,-5.15864 -4.153935,1.12368 -7.955343,2.65793 -10.224818,4.12672 -6.811497,4.40838 -5.458613,9.01963 3.781882,12.8904 1.73883,0.72838 5.861974,2.07814 6.348157,2.07814 0.246047,0 0.447358,0.0897 0.447358,0.19928 0,0.1096 0.290879,0.25936 0.646397,0.3328 7.063943,1.45917 10.35783,1.9102 16.042387,2.19668 4.517926,0.22768 10.77978,0.0839 15.31757,-0.35174 z"
         id="path2" /><path
         style="fill:#af0000"
         d="m 93.140767,178.26999 c -6.98151,-0.37368 -16.603256,-1.815 -22.095009,-3.30979 -5.350635,-1.45638 -11.04523,-3.78046 -14.455777,-5.89968 -2.228011,-1.38443 -5.626238,-4.65346 -6.400325,-6.15699 -1.692809,-3.28799 -1.803826,-5.89428 -0.374648,-8.79542 0.455411,-0.92446 1.26957,-2.219 1.809242,-2.87677 1.03508,-1.26159 4.626748,-4.1505 5.164499,-4.154 0.173962,-0.001 0.597058,-0.19405 0.940213,-0.4287 0.883163,-0.60392 3.169487,-1.69555 5.555466,-2.65252 2.010364,-0.80631 2.052732,-0.81285 2.669054,-0.41193 0.344445,0.22406 1.454082,0.82894 2.46586,1.34418 l 1.839596,0.93679 -1.75906,0.60506 c -0.967483,0.33279 -1.957687,0.60506 -2.200455,0.60506 -0.242767,0 -2.18294,0.83693 -4.311495,1.85985 -3.70964,1.78273 -3.957894,1.94561 -5.987568,3.92859 -2.470203,2.41337 -3.088969,3.64313 -2.869546,5.70303 0.178282,1.67367 0.922812,2.9575 2.690105,4.63865 6.397581,6.08576 20.854803,10.1469 39.22504,11.01861 18.236241,0.86534 37.684041,-2.5876 46.817801,-8.31248 2.39086,-1.49855 4.85478,-3.8401 5.60579,-5.32739 0.81751,-1.61897 0.83899,-3.36233 0.0613,-4.97611 -0.73374,-1.52262 -3.52687,-4.1377 -5.79591,-5.42648 -2.19984,-1.24946 -5.55302,-2.78876 -6.51965,-2.99287 -0.38783,-0.0819 -1.51893,-0.41893 -2.51354,-0.74897 l -1.80838,-0.60006 2.58684,-1.30335 2.58683,-1.30335 1.87035,0.77565 c 3.08487,1.27933 7.06585,3.32496 8.45789,4.34611 4.25285,3.11973 6.41782,7.2045 5.85678,11.05029 -0.90887,6.23003 -8.56047,11.72653 -21.31899,15.31443 -5.24903,1.4761 -13.32173,2.84063 -19.69321,3.32872 -4.44173,0.34027 -13.754058,0.45441 -18.099103,0.22184 z m -18.21663,-35.26148 c -3.408418,-1.21917 -3.842083,-1.39631 -3.716468,-1.51802 0.06027,-0.0584 1.182997,-0.3635 2.494949,-0.67802 15.818597,-3.79223 37.321092,-3.82173 53.504902,-0.0734 l 3.03972,0.70403 -0.81083,0.40304 c -0.44596,0.22168 -1.91961,0.77963 -3.27478,1.23988 -2.79224,0.94834 -2.77998,0.94815 -8.4578,0.12924 -10.77392,-1.55393 -23.521201,-1.55392 -34.227095,3e-5 -5.547979,0.80528 -5.735894,0.80074 -8.552598,-0.20679 z"
         id="path1" /></g></g></svg>
