<?xml version="1.0" encoding="UTF-8" standalone="no"?>
<!-- Created with Inkscape (http://www.inkscape.org/) -->

<svg
   width="210mm"
   height="297mm"
   viewBox="0 0 210 297"
   version="1.1"
   id="svg1"
   xml:space="preserve"
   inkscape:version="1.3 (0e150ed6c4, 2023-07-21)"
   sodipodi:docname="Coov.svg"
   xmlns:inkscape="http://www.inkscape.org/namespaces/inkscape"
   xmlns:sodipodi="http://sodipodi.sourceforge.net/DTD/sodipodi-0.dtd"
   xmlns="http://www.w3.org/2000/svg"
   xmlns:svg="http://www.w3.org/2000/svg"><sodipodi:namedview
     id="namedview1"
     pagecolor="#ffffff"
     bordercolor="#000000"
     borderopacity="0.25"
     inkscape:showpageshadow="2"
     inkscape:pageopacity="0.0"
     inkscape:pagecheckerboard="0"
     inkscape:deskcolor="#d1d1d1"
     inkscape:document-units="mm"
     inkscape:zoom="0.70644641"
     inkscape:cx="396.34995"
     inkscape:cy="561.25984"
     inkscape:window-width="1920"
     inkscape:window-height="992"
     inkscape:window-x="-8"
     inkscape:window-y="-8"
     inkscape:window-maximized="1"
     inkscape:current-layer="g1" /><defs
     id="defs1" /><g
     inkscape:label="图层 1"
     inkscape:groupmode="layer"
     id="layer1"><g
       id="g1"
       transform="translate(3.7452712,12.733922)"><path
         style="fill:#fdfdfd"
         d="M 58.60302,129.39912 V 72.380913 h 40.833927 40.833923 v 57.018207 57.01822 H 99.436947 58.60302 Z m 50.64596,54.0691 c 16.75594,-1.93511 27.35272,-8.49922 26.05252,-16.13805 -0.22461,-1.3196 -0.72027,-2.53191 -1.47783,-3.61453 -0.38885,-0.5557 -12.40233,-29.75661 -14.07465,-34.21093 -0.34885,-0.92918 -3.90651,-9.71118 -7.90592,-19.51555 l -7.27165,-17.826124 0.79248,-0.863178 c 2.2009,-2.397249 2.52808,-6.324541 0.76035,-9.126596 -2.97862,-4.721436 -9.783189,-4.167408 -12.008819,0.977757 -0.364636,0.842957 -0.524525,1.624792 -0.583027,2.850911 -0.101438,2.126009 0.385079,3.639046 1.653374,5.141894 0.484742,0.574388 0.881349,1.10015 0.881349,1.168361 0,0.06821 -3.389613,8.443425 -7.532472,18.611585 -4.14286,10.16816 -7.532472,18.53092 -7.532472,18.58392 0,0.45254 -13.813831,33.85357 -14.355904,34.71174 -1.501034,2.37631 -1.693445,5.10603 -0.544316,7.72216 2.663163,6.063 14.030872,10.76211 28.577603,11.81322 2.063205,0.14908 12.589954,-0.058 14.569384,-0.28659 z M 73.518511,158.29913 c 0.05861,-0.15692 2.712826,-6.69986 5.898263,-14.53986 3.185437,-7.84001 9.051935,-22.28462 13.036662,-32.09914 3.984727,-9.81453 7.253033,-17.854701 7.262902,-17.867054 0.0099,-0.01235 0.286212,-0.07664 0.614092,-0.142862 l 0.59616,-0.1204 7.3084,17.987446 c 4.01961,9.8931 9.85193,24.25946 12.9607,31.92524 3.10877,7.66578 5.77249,14.19243 5.91938,14.50366 l 0.26706,0.56587 -1.83144,-0.81415 c -3.88933,-1.72897 -9.53396,-3.19987 -15.01326,-3.91219 -5.7631,-0.74923 -16.158725,-0.63806 -22.002745,0.23529 -5.375666,0.80336 -11.565584,2.60377 -14.48885,4.21425 -0.480302,0.26461 -0.608066,0.28009 -0.527324,0.0639 z"
         id="path8" /><path
         style="fill:#ececec"
         d="m 95.831767,183.73893 c 0.143092,-0.061 0.314059,-0.0535 0.379927,0.0167 0.06587,0.0702 -0.05121,0.12008 -0.260167,0.11091 -0.230919,-0.0101 -0.277889,-0.0602 -0.11976,-0.12759 z m -0.458391,-4.09353 c -7.562865,-0.40903 -14.364878,-1.96854 -19.920764,-4.56727 -3.251052,-1.52066 -6.145553,-4.34303 -6.145553,-5.99242 0,-0.3112 0.303331,-1.27494 0.674069,-2.14165 0.87387,-2.04291 1.879532,-2.97107 4.975285,-4.59185 7.436532,-3.8934 18.886171,-5.69198 30.926167,-4.85808 8.06203,0.55838 14.68899,2.18526 19.86522,4.8768 3.13343,1.62932 4.47396,2.94343 5.30143,5.19696 l 0.56153,1.52928 -0.36252,0.85649 c -0.43433,1.02611 -2.37584,2.99412 -3.917,3.97046 -4.9355,3.12667 -13.22353,5.23019 -22.6148,5.73966 -3.99442,0.21669 -5.034548,0.21465 -9.343064,-0.0184 z m -26.091602,-3.7342 c -0.246563,-0.33494 -0.239552,-0.34241 0.07484,-0.0797 0.330189,0.27588 0.435194,0.44929 0.27205,0.44929 -0.04116,0 -0.197263,-0.1663 -0.346891,-0.36956 z m -1.470714,-1.37266 -0.783565,-0.89751 0.842448,0.83478 c 0.463346,0.45913 0.842447,0.86301 0.842447,0.89751 0,0.15977 -0.172622,-1e-4 -0.90133,-0.83478 z m 27.227815,-21.20932 c 0.143092,-0.061 0.31406,-0.0535 0.379928,0.0167 0.06587,0.0702 -0.05121,0.12009 -0.260168,0.11092 -0.230919,-0.0101 -0.277889,-0.0602 -0.11976,-0.12759 z m 0.804774,-61.467085 c -0.246563,-0.334941 -0.239552,-0.34241 0.07484,-0.07973 0.330189,0.275878 0.435194,0.449294 0.27205,0.449294 -0.04116,0 -0.197263,-0.166303 -0.346891,-0.369562 z m -0.885552,-0.950304 -0.377612,-0.475151 0.446001,0.402292 c 0.419132,0.378056 0.536241,0.548011 0.377613,0.548011 -0.03762,0 -0.238315,-0.213818 -0.446002,-0.475152 z"
         id="path7" /><path
         style="fill:#d1d1d1"
         d="m 96.91233,179.71926 c 0.301311,-0.0485 0.747313,-0.0472 0.991115,0.003 0.243801,0.0501 -0.0027,0.0899 -0.547839,0.0883 -0.545113,-0.002 -0.744587,-0.0426 -0.443276,-0.0911 z m 5.94669,0 c 0.30131,-0.0485 0.74731,-0.0472 0.99111,0.003 0.2438,0.0501 -0.003,0.0899 -0.54784,0.0883 -0.54511,-0.002 -0.74458,-0.0426 -0.44327,-0.0911 z m 4.27146,-0.2039 c 0.14309,-0.061 0.31405,-0.0535 0.37992,0.0167 0.0659,0.0702 -0.0512,0.12009 -0.26017,0.11092 -0.23091,-0.0101 -0.27788,-0.0602 -0.11975,-0.12759 z m 2.18045,-0.21118 c 0.14309,-0.061 0.31406,-0.0535 0.37992,0.0167 0.0659,0.0702 -0.0512,0.12008 -0.26016,0.11091 -0.23092,-0.0101 -0.27789,-0.0602 -0.11976,-0.12759 z m 1.58578,-0.21117 c 0.14309,-0.061 0.31406,-0.0535 0.37993,0.0167 0.0659,0.0702 -0.0512,0.12008 -0.26017,0.11091 -0.23092,-0.0101 -0.27789,-0.0602 -0.11976,-0.12758 z m 19.06657,-7.35258 c 0.36984,-0.40652 0.71704,-0.73913 0.77155,-0.73913 0.0545,0 -0.20349,0.33261 -0.57333,0.73913 -0.36984,0.40651 -0.71703,0.73912 -0.77155,0.73912 -0.0545,0 0.20349,-0.33261 0.57333,-0.73912 z m -60.838795,-2.76292 c 0.0095,-0.24601 0.05648,-0.29606 0.11976,-0.12759 0.05726,0.15244 0.05022,0.33459 -0.01565,0.40476 -0.06587,0.0702 -0.112718,-0.0546 -0.10411,-0.27717 z m 60.427345,-4.04759 -0.48055,-0.58074 0.54511,0.51196 c 0.50949,0.47851 0.63602,0.64952 0.48056,0.64952 -0.0355,0 -0.28081,-0.26134 -0.54512,-0.58074 z m -58.85721,0.28983 c 0,-0.0438 0.1561,-0.21016 0.34689,-0.36956 0.314392,-0.26268 0.321403,-0.25521 0.07484,0.0797 -0.258953,0.35177 -0.42173,0.46364 -0.42173,0.28983 z m 39.01275,-7.45578 c 0.1431,-0.061 0.31406,-0.0535 0.37993,0.0167 0.0659,0.0702 -0.0512,0.12009 -0.26017,0.11092 -0.23092,-0.0101 -0.27789,-0.0602 -0.11976,-0.12759 z m -16.848947,-0.21118 c 0.143092,-0.061 0.314059,-0.0535 0.379927,0.0167 0.06587,0.0702 -0.05121,0.12009 -0.260167,0.11092 -0.230919,-0.0101 -0.277889,-0.0602 -0.11976,-0.12759 z m 14.668497,0 c 0.14309,-0.061 0.31406,-0.0535 0.37993,0.0167 0.0659,0.0702 -0.0512,0.12009 -0.26017,0.11092 -0.23092,-0.0101 -0.27789,-0.0602 -0.11976,-0.12759 z m -11.604658,-0.21326 c 0.192865,-0.0536 0.460466,-0.05 0.594669,0.008 0.134203,0.0579 -0.0236,0.10166 -0.350663,0.0974 -0.327068,-0.004 -0.43687,-0.0516 -0.244006,-0.10517 z m 8.325368,0 c 0.19286,-0.0536 0.46046,-0.05 0.59466,0.008 0.13421,0.0579 -0.0236,0.10166 -0.35066,0.0974 -0.32707,-0.004 -0.43687,-0.0516 -0.244,-0.10517 z m 2.93566,-71.14402 c 0.01,-0.246011 0.0565,-0.296051 0.11976,-0.127587 0.0573,0.152445 0.0502,0.334586 -0.0156,0.404759 -0.0659,0.07017 -0.11272,-0.05455 -0.10411,-0.277172 z"
         id="path6" /><path
         style="fill:#aeaeae"
         d="m 97.210489,183.73015 c 0.356276,-0.047 0.891478,-0.046 1.189337,0.002 0.29786,0.0482 0.0064,0.0866 -0.647774,0.0855 -0.654136,-10e-4 -0.897839,-0.0406 -0.541563,-0.0876 z m 5.150251,2.8e-4 c 0.35432,-0.0469 0.93412,-0.0469 1.28844,0 0.35433,0.0468 0.0644,0.0852 -0.64422,0.0852 -0.70865,0 -0.99855,-0.0383 -0.64422,-0.0852 z m -9.105871,-0.20267 c 0.143092,-0.061 0.314059,-0.0535 0.379927,0.0167 0.06587,0.0702 -0.05121,0.12008 -0.260168,0.11091 -0.230918,-0.0101 -0.277888,-0.0602 -0.119759,-0.12758 z m 13.664991,0.004 c 0.13628,-0.0586 0.35928,-0.0586 0.49556,0 0.13628,0.0586 0.0248,0.10652 -0.24778,0.10652 -0.27255,0 -0.38406,-0.0479 -0.24778,-0.10652 z m 2.39107,-0.21557 c 0.14309,-0.061 0.31406,-0.0535 0.37992,0.0167 0.0659,0.0702 -0.0512,0.12008 -0.26016,0.11091 -0.23092,-0.0101 -0.27789,-0.0602 -0.11976,-0.12758 z m -13.491552,-3.58564 c 0.136278,-0.0586 0.359279,-0.0586 0.495557,0 0.136279,0.0586 0.02478,0.10652 -0.247778,0.10652 -0.272557,0 -0.384057,-0.0479 -0.247779,-0.10652 z m 8.626472,-0.006 c 0.19286,-0.0536 0.46046,-0.05 0.59467,0.008 0.1342,0.0579 -0.0236,0.10165 -0.35067,0.0974 -0.32706,-0.004 -0.43687,-0.0516 -0.244,-0.10517 z m 3.27929,-0.2091 c 0.1431,-0.061 0.31406,-0.0535 0.37993,0.0167 0.0659,0.0702 -0.0512,0.12009 -0.26017,0.11092 -0.23091,-0.0101 -0.27789,-0.0602 -0.11976,-0.12759 z m 24.91415,-4.92402 c 0.19733,-0.2323 0.40338,-0.42236 0.45789,-0.42236 0.0545,0 -0.0623,0.19006 -0.25967,0.42236 -0.19732,0.23229 -0.40338,0.42235 -0.45789,0.42235 -0.0545,0 0.0623,-0.19006 0.25967,-0.42235 z m -65.537968,-1.0031 c -0.246564,-0.33494 -0.239552,-0.34241 0.07484,-0.0797 0.33019,0.27587 0.435194,0.44929 0.27205,0.44929 -0.04116,0 -0.197262,-0.1663 -0.34689,-0.36956 z m 3.481716,-1.79502 -0.582199,-0.68633 0.644225,0.62025 c 0.600507,0.57816 0.735338,0.75241 0.582199,0.75241 -0.03411,0 -0.324016,-0.30885 -0.644225,-0.68633 z m 21.680716,-14.24043 c 0.143092,-0.061 0.314059,-0.0535 0.379927,0.0167 0.06587,0.0702 -0.05121,0.12009 -0.260167,0.11092 -0.230919,-0.0101 -0.277889,-0.0602 -0.11976,-0.12759 z m 2.667393,-0.21326 c 0.192865,-0.0536 0.460466,-0.05 0.594669,0.008 0.134204,0.0579 -0.0236,0.10166 -0.350662,0.0974 -0.327068,-0.004 -0.436871,-0.0516 -0.244007,-0.10517 z m 10.307593,0 c 0.19287,-0.0536 0.46047,-0.05 0.59467,0.008 0.1342,0.0579 -0.0236,0.10166 -0.35066,0.0974 -0.32707,-0.004 -0.43687,-0.0516 -0.24401,-0.10517 z m -14.56077,-3.58795 c 0.143093,-0.061 0.31406,-0.0535 0.379928,0.0167 0.06587,0.0702 -0.05121,0.12008 -0.260168,0.11092 -0.230918,-0.0101 -0.277889,-0.0602 -0.11976,-0.12759 z m 2.180453,-0.21118 c 0.143092,-0.061 0.314059,-0.0535 0.379927,0.0167 0.06587,0.0702 -0.05121,0.12009 -0.260167,0.11092 -0.230919,-0.0101 -0.277889,-0.0602 -0.11976,-0.12759 z m 3.262062,-0.21326 c 0.192865,-0.0536 0.460466,-0.05 0.594669,0.008 0.134203,0.0579 -0.0236,0.10165 -0.350663,0.0974 -0.327068,-0.004 -0.43687,-0.0516 -0.244006,-0.10517 z m 8.222475,0.006 c 0.13628,-0.0586 0.35928,-0.0586 0.49556,0 0.13628,0.0586 0.0248,0.10652 -0.24778,0.10652 -0.27255,0 -0.38405,-0.0479 -0.24778,-0.10652 z"
         id="path5" /><path
         style="fill:#8e8e8e"
         d="m 99.590854,183.72829 c 0.466226,-0.0446 1.179826,-0.044 1.585786,0.001 0.40595,0.0454 0.0245,0.0819 -0.84769,0.0811 -0.872181,-7.7e-4 -1.204324,-0.0379 -0.738096,-0.0825 z m -5.654594,-0.20185 c 0.19079,-0.0531 0.502991,-0.0531 0.69378,0 0.19079,0.0531 0.03469,0.0966 -0.34689,0.0966 -0.381579,0 -0.53768,-0.0435 -0.34689,-0.0966 z m 12.19071,0.006 c 0.13628,-0.0586 0.35928,-0.0586 0.49556,0 0.13628,0.0586 0.0248,0.10652 -0.24778,0.10652 -0.27256,0 -0.38406,-0.0479 -0.24778,-0.10652 z m -14.457885,-0.21557 c 0.143092,-0.061 0.31406,-0.0535 0.379927,0.0167 0.06587,0.0702 -0.05121,0.12008 -0.260167,0.11091 -0.230919,-0.0101 -0.277889,-0.0602 -0.11976,-0.12758 z m -3.36979,-0.42236 c 0.143092,-0.061 0.314059,-0.0535 0.379927,0.0167 0.06587,0.0702 -0.05121,0.12009 -0.260167,0.11092 -0.230919,-0.0101 -0.277889,-0.0602 -0.11976,-0.12759 z m 6.937803,-3.16768 c 0.143092,-0.061 0.31406,-0.0535 0.379927,0.0167 0.06587,0.0702 -0.05121,0.12009 -0.260167,0.11092 -0.230919,-0.0101 -0.277889,-0.0602 -0.11976,-0.12759 z m -29.84851,-11.25938 c 0,-0.40652 0.04079,-0.57282 0.09065,-0.36956 0.04986,0.20325 0.04986,0.53586 0,0.73912 -0.04986,0.20326 -0.09065,0.037 -0.09065,-0.36956 z m 25.884051,-14.71558 c 0.143092,-0.061 0.31406,-0.0535 0.379928,0.0167 0.06587,0.0702 -0.05121,0.12008 -0.260168,0.11092 -0.230919,-0.0101 -0.277889,-0.0602 -0.11976,-0.12759 z m 18.038291,0 c 0.14309,-0.061 0.31406,-0.0535 0.37992,0.0167 0.0659,0.0702 -0.0512,0.12008 -0.26016,0.11092 -0.23092,-0.0101 -0.27789,-0.0602 -0.11976,-0.12759 z M 93.453092,153.5404 c 0.143092,-0.061 0.314059,-0.0535 0.379927,0.0167 0.06587,0.0702 -0.05121,0.12009 -0.260168,0.11092 -0.230918,-0.0101 -0.277888,-0.0602 -0.119759,-0.12759 z m 13.466768,0.004 c 0.13628,-0.0586 0.35928,-0.0586 0.49556,0 0.13628,0.0586 0.0248,0.10651 -0.24778,0.10651 -0.27255,0 -0.38406,-0.0479 -0.24778,-0.10651 z m -9.514698,-0.22409 c 0.354323,-0.0468 0.934125,-0.0468 1.288449,0 0.354323,0.0469 0.06442,0.0852 -0.644225,0.0852 -0.708647,0 -0.998548,-0.0383 -0.644224,-0.0852 z m 4.752928,3.6e-4 c 0.35189,-0.0467 0.9763,-0.0474 1.38756,-0.002 0.41127,0.0457 0.12336,0.0839 -0.6398,0.0848 -0.76316,9.4e-4 -1.09965,-0.0365 -0.74776,-0.0831 z M 93.505908,85.561975 c 0.0095,-0.246011 0.05648,-0.296051 0.119759,-0.127587 0.05726,0.152444 0.05022,0.334586 -0.01565,0.404758 -0.06587,0.07017 -0.112717,-0.05455 -0.104109,-0.277171 z m 5.893872,-6.567607 c 0.143092,-0.061 0.31406,-0.0535 0.379927,0.01667 0.06587,0.07017 -0.05121,0.120084 -0.260167,0.110915 -0.230919,-0.01013 -0.277889,-0.06017 -0.11976,-0.127587 z m 1.58578,0 c 0.1431,-0.061 0.31406,-0.0535 0.37993,0.01667 0.0659,0.07017 -0.0512,0.120084 -0.26017,0.110915 -0.23092,-0.01013 -0.27789,-0.06017 -0.11976,-0.127587 z"
         id="path4" /><path
         style="fill:#707070"
         d="m 99.882949,179.93641 c 0.190791,-0.0531 0.502991,-0.0531 0.693781,0 0.19079,0.0531 0.0347,0.0966 -0.34689,0.0966 -0.381581,0 -0.537681,-0.0435 -0.346891,-0.0966 z m -5.54647,-0.21195 c 0.192864,-0.0536 0.460465,-0.05 0.594668,0.008 0.134204,0.0579 -0.02359,0.10165 -0.350662,0.0974 -0.327068,-0.004 -0.436871,-0.0516 -0.244006,-0.10517 z m 11.496931,0 c 0.19286,-0.0536 0.46046,-0.05 0.59467,0.008 0.1342,0.0579 -0.0236,0.10165 -0.35066,0.0974 -0.32707,-0.004 -0.43688,-0.0516 -0.24401,-0.10517 z m -13.767879,-0.2091 c 0.143092,-0.061 0.314059,-0.0535 0.379927,0.0167 0.06587,0.0702 -0.05121,0.12009 -0.260167,0.11092 -0.230919,-0.0101 -0.277889,-0.0602 -0.11976,-0.12759 z m -1.982229,-0.21118 c 0.143092,-0.061 0.314059,-0.0535 0.379927,0.0167 0.06587,0.0702 -0.05121,0.12008 -0.260168,0.11091 -0.230918,-0.0101 -0.277888,-0.0602 -0.119759,-0.12759 z m -22.083526,-4.76564 -0.377612,-0.47515 0.446001,0.40229 c 0.419132,0.37806 0.536241,0.54801 0.377613,0.54801 -0.03761,0 -0.238315,-0.21382 -0.446002,-0.47515 z m 3.462451,-1.79502 c -0.246564,-0.33494 -0.239553,-0.34241 0.07484,-0.0797 0.19079,0.15941 0.34689,0.32571 0.34689,0.36956 0,0.17381 -0.162778,0.0619 -0.42173,-0.28983 z m 58.104603,-0.33005 c 0,-0.0363 0.28991,-0.34519 0.64423,-0.68633 l 0.64422,-0.62025 -0.58219,0.68633 c -0.5427,0.63976 -0.70626,0.7834 -0.70626,0.62025 z M 88.299295,157.97515 c 0.143092,-0.061 0.314059,-0.0535 0.379927,0.0167 0.06587,0.0702 -0.05121,0.12009 -0.260167,0.11092 -0.230919,-0.0101 -0.277889,-0.0602 -0.11976,-0.12759 z m 3.171567,-0.42236 c 0.143092,-0.061 0.31406,-0.0535 0.379927,0.0167 0.06587,0.0702 -0.05121,0.12009 -0.260167,0.11092 -0.230919,-0.0101 -0.277889,-0.0602 -0.11976,-0.12759 z m 17.443618,0 c 0.14309,-0.061 0.31406,-0.0535 0.37993,0.0167 0.0659,0.0702 -0.0512,0.12009 -0.26017,0.11092 -0.23092,-0.0101 -0.27789,-0.0602 -0.11976,-0.12759 z m -15.275554,-0.20678 c 0.136278,-0.0586 0.359279,-0.0586 0.495557,0 0.136278,0.0586 0.02478,0.10652 -0.247779,0.10652 -0.272556,0 -0.384057,-0.0479 -0.247778,-0.10652 z m 12.884494,0 c 0.13628,-0.0586 0.35928,-0.0586 0.49555,0 0.13628,0.0586 0.0248,0.10652 -0.24777,0.10652 -0.27256,0 -0.38406,-0.0479 -0.24778,-0.10652 z m -8.721812,-0.22594 c 0.463346,-0.0445 1.221548,-0.0445 1.684895,0 0.463346,0.0445 0.08424,0.0808 -0.842448,0.0808 -0.926692,0 -1.305794,-0.0364 -0.842447,-0.0808 z m 3.573252,-2.7e-4 c 0.46623,-0.0446 1.17983,-0.044 1.58578,0.001 0.40596,0.0454 0.0245,0.0819 -0.84768,0.0811 -0.87218,-7.7e-4 -1.20433,-0.0379 -0.7381,-0.0825 z m 4.96272,-3.5794 c 0.1431,-0.061 0.31406,-0.0535 0.37993,0.0167 0.0659,0.0702 -0.0512,0.12009 -0.26017,0.11092 -0.23092,-0.0101 -0.27789,-0.0602 -0.11976,-0.12759 z m -6.553743,-0.21969 c 0.354323,-0.0468 0.934123,-0.0468 1.288453,0 0.35432,0.0469 0.0644,0.0852 -0.64423,0.0852 -0.708645,0 -0.998546,-0.0383 -0.644223,-0.0852 z"
         id="path3" /><path
         style="fill:#585858"
         d="m 94.481373,183.54514 c -7.803487,-0.70443 -12.913843,-1.78361 -17.966917,-3.79415 -5.20348,-2.07039 -8.841563,-4.86933 -10.227437,-7.86843 -1.187048,-2.56883 -0.98571,-5.13226 0.611376,-7.78402 0.602855,-1.00097 13.119205,-31.32162 14.454664,-35.01618 0.209918,-0.58074 3.651066,-9.06793 7.646995,-18.86042 3.995929,-9.79249 7.266692,-17.91758 7.268361,-18.055765 0.0021,-0.177178 0.04597,-0.182746 0.148667,-0.01889 0.21096,0.336591 0.989641,0.744376 2.16431,1.133422 l 1.027563,0.340325 -7.293697,17.941838 c -15.381821,37.8379 -19.04389,46.87774 -19.043816,47.00979 4.2e-5,0.0751 0.958979,-0.27753 2.130973,-0.78356 4.036696,-1.74292 9.179367,-3.08785 14.51983,-3.79727 3.547639,-0.47126 13.467575,-0.65367 17.398555,-0.31991 7.04252,0.59793 13.27281,2.04873 18.22238,4.24333 1.04687,0.46417 1.92965,0.81599 1.96173,0.78182 0.0558,-0.0594 -2.96574,-7.52824 -19.0717,-47.14305 -3.96674,-9.75674 -7.21226,-17.79999 -7.21226,-17.873889 0,-0.0739 0.30342,-0.195004 0.67427,-0.269122 0.37084,-0.07412 1.0879,-0.36907 1.59346,-0.655449 l 0.91921,-0.520688 0.36487,0.895919 c 0.20068,0.492756 3.50663,8.593379 7.34656,18.001389 3.83992,9.408 7.09487,17.43807 7.23321,17.84459 0.91181,2.67942 13.99615,34.33795 14.60973,35.34933 0.97161,1.60152 1.25087,2.61253 1.23957,4.48764 -0.008,1.2669 -0.11343,1.73386 -0.66158,2.92009 -2.53432,5.4844 -11.53216,9.73073 -24.20104,11.42115 -2.35055,0.31363 -13.631034,0.59118 -15.857837,0.39016 z m 14.172937,-4.01694 c 11.7272,-1.19946 21.11378,-5.2133 22.89296,-9.78935 0.22876,-0.58839 0.18386,-0.81722 -0.50249,-2.56093 -0.64654,-1.64257 -0.90212,-2.04362 -1.7977,-2.82083 -3.03711,-2.63571 -10.04764,-5.27029 -16.86885,-6.33936 -12.643958,-1.98165 -27.015928,-0.6453 -35.876121,3.33588 -3.99027,1.79296 -5.811417,3.34299 -6.786634,5.77628 -0.894805,2.23266 -0.805636,2.78806 0.72854,4.53777 5.394564,6.15244 21.837892,9.53513 38.210295,7.86054 z"
         id="path2" /><path
         style="fill:#af0202"
         d="m 97.822734,93.008769 c -1.483499,-0.663667 -2.817065,-2.032407 -3.572079,-3.666297 -0.529275,-1.145377 -0.61367,-1.556407 -0.609514,-2.968535 0.0064,-2.18013 0.556851,-3.729527 1.813064,-5.103528 1.138862,-1.245645 2.130263,-1.812565 3.696185,-2.113615 3.06048,-0.58838 6.18215,1.149156 7.4888,4.168306 0.65234,1.507302 0.61219,4.374375 -0.0833,5.950098 -0.61106,1.384362 -2.06939,2.97652 -3.33204,3.637818 -1.38069,0.723117 -3.898929,0.767762 -5.401076,0.09575 z"
         id="path1" /></g></g></svg>
