<?xml version="1.0" encoding="UTF-8" standalone="no"?>
<!-- Created with Inkscape (http://www.inkscape.org/) -->

<svg
   width="210mm"
   height="297mm"
   viewBox="0 0 210 297"
   version="1.1"
   id="svg1"
   xml:space="preserve"
   inkscape:version="1.3 (0e150ed6c4, 2023-07-21)"
   sodipodi:docname="Dood.svg"
   xmlns:inkscape="http://www.inkscape.org/namespaces/inkscape"
   xmlns:sodipodi="http://sodipodi.sourceforge.net/DTD/sodipodi-0.dtd"
   xmlns="http://www.w3.org/2000/svg"
   xmlns:svg="http://www.w3.org/2000/svg"><sodipodi:namedview
     id="namedview1"
     pagecolor="#ffffff"
     bordercolor="#000000"
     borderopacity="0.25"
     inkscape:showpageshadow="2"
     inkscape:pageopacity="0.0"
     inkscape:pagecheckerboard="0"
     inkscape:deskcolor="#d1d1d1"
     inkscape:document-units="mm"
     inkscape:zoom="0.70644641"
     inkscape:cx="396.34995"
     inkscape:cy="561.25984"
     inkscape:window-width="1920"
     inkscape:window-height="992"
     inkscape:window-x="-8"
     inkscape:window-y="-8"
     inkscape:window-maximized="1"
     inkscape:current-layer="g1" /><defs
     id="defs1" /><g
     inkscape:label="图层 1"
     inkscape:groupmode="layer"
     id="layer1"><g
       id="g1"
       transform="translate(2.9962169,9.3631779)"><path
         style="fill:#fefefe"
         d="M 50.363426,134.82977 V 97.523514 h 54.504164 54.50417 v 37.306256 37.30625 H 104.86759 50.363426 Z m 62.573954,33.075 c 17.51832,-1.89147 30.15711,-7.21447 34.01156,-14.32444 0.86831,-1.60168 0.91344,-1.81567 0.91344,-4.33077 0,-2.38285 -0.0766,-2.80363 -0.77097,-4.23334 -0.92906,-1.91304 -3.81597,-4.87489 -6.16437,-6.32441 l -1.62819,-1.00497 1.90052,-1.27565 c 2.52231,-1.693 4.70432,-3.92389 5.78326,-5.91282 0.82985,-1.52974 0.87975,-1.77182 0.87975,-4.26756 0,-2.386 -0.076,-2.80174 -0.77347,-4.23334 -0.91855,-1.88523 -3.78542,-4.86649 -6.10569,-6.3493 -4.86106,-3.10654 -12.74288,-5.8133 -21.16667,-7.26904 -10.75648,-1.85884 -26.210196,-1.85943 -37.078494,-0.001 -8.418672,1.43924 -16.199082,4.11606 -21.129838,7.26964 -2.324181,1.48648 -5.189428,4.46607 -6.106406,6.3501 -0.696454,1.43094 -0.772659,1.84843 -0.772707,4.23334 -4.9e-5,2.4107 0.07048,2.78691 0.793696,4.23333 0.965972,1.93194 3.62016,4.66684 5.886979,6.06599 0.909505,0.56138 1.651283,1.09306 1.648396,1.18151 -0.0029,0.0885 -0.61733,0.51802 -1.365427,0.95458 -2.072618,1.20951 -5.261778,4.48711 -6.178656,6.35 -0.706868,1.4362 -0.781511,1.83967 -0.783188,4.23334 -0.0017,2.36954 0.07616,2.80469 0.745179,4.16712 3.654375,7.44193 18.415093,13.34966 36.8238,14.73811 3.922389,0.29584 17.055456,0.13674 20.637496,-0.25002 z M 66.386693,133.43418 c -4.175131,-2.1949 -6.76285,-5.0696 -6.76285,-7.51285 0,-1.19252 1.405344,-3.31875 3.138359,-4.74822 10.482652,-8.64658 40.174288,-11.80093 61.667268,-6.55135 10.85267,2.65072 18.5012,7.43475 18.53231,11.59166 0.0167,2.23391 -2.69199,5.08078 -6.95576,7.31053 l -2.62559,1.37306 -3.07777,-0.95987 c -8.62908,-2.69114 -17.42858,-3.86219 -29.05868,-3.86715 -11.561014,-0.005 -20.554927,1.19271 -28.854922,3.84235 -1.563837,0.49923 -2.962403,0.90694 -3.107924,0.90603 -0.145521,-9.1e-4 -1.448019,-0.6238 -2.894441,-1.38419 z"
         id="path8" /><path
         style="fill:#ececec"
         d="m 95.557566,168.25111 c 0.190996,-0.0764 0.419199,-0.067 0.507118,0.0209 0.08792,0.0879 -0.06835,0.15045 -0.347266,0.13896 -0.308224,-0.0127 -0.370919,-0.0754 -0.159852,-0.15985 z m -0.214974,-5.12487 C 83.674297,162.60452 72.401503,159.96453 65.7231,156.1896 c -2.586363,-1.46193 -5.397917,-4.18732 -5.839223,-5.66027 -0.91018,-3.0379 1.58974,-6.16712 7.148299,-8.94772 2.211536,-1.10629 2.266568,-1.1187 3.307292,-0.74604 4.514936,1.61669 12.091982,3.22081 18.704752,3.95994 5.003113,0.55922 18.6195,0.63357 23.23171,0.12686 7.25577,-0.79714 13.83838,-2.11512 18.59614,-3.72334 l 2.27817,-0.77008 1.8636,0.89311 c 2.60072,1.24636 4.75061,2.76167 6.19069,4.36338 2.73174,3.03835 2.21461,5.5473 -1.81197,8.79119 -4.31697,3.47782 -13.89135,6.62604 -24.33851,8.0029 -2.71333,0.3576 -13.20955,0.97787 -14.81667,0.87558 -0.291038,-0.0185 -2.493694,-0.12152 -4.894788,-0.22887 z m -37.448487,-6.4022 -1.312971,-1.38907 1.389063,1.31298 c 0.763984,0.72213 1.389062,1.34721 1.389062,1.38906 0,0.19743 -0.245118,-0.0222 -1.465154,-1.31297 z m 33.347445,-16.8786 c -4.715631,-0.46004 -11.941224,-1.64307 -12.785157,-2.09329 -0.844746,-0.45064 8.537464,-1.9411 14.989018,-2.38115 6.915709,-0.47171 14.537129,-0.28348 21.344059,0.52714 3.61513,0.43051 9.73584,1.64595 9.34318,1.85535 -0.53846,0.28716 -5.80872,1.25298 -9.47547,1.73647 -3.81881,0.50354 -19.46344,0.74105 -23.41563,0.35548 z m -31.386873,-4.42036 c -0.329107,-0.41965 -0.319749,-0.429 0.09989,-0.0999 0.254661,0.19972 0.463021,0.40808 0.463021,0.46302 0,0.21776 -0.217272,0.0776 -0.562916,-0.36312 z m -1.963075,-1.71979 -1.045884,-1.12448 1.124479,1.04588 c 1.045754,0.97266 1.246062,1.20308 1.045884,1.20308 -0.04323,0 -0.549243,-0.50602 -1.124479,-1.12448 z m 35.813881,-3.55418 c 0.190996,-0.0764 0.419199,-0.067 0.507118,0.0209 0.08792,0.0879 -0.06835,0.15045 -0.347266,0.13896 -0.308224,-0.0127 -0.370919,-0.0754 -0.159852,-0.15985 z m 47.000697,-8.08749 -1.04588,-1.12448 1.12448,1.04588 c 0.61846,0.57524 1.12448,1.08126 1.12448,1.12448 0,0.20018 -0.23041,-1.3e-4 -1.20308,-1.04588 z m -2.00567,-1.71979 c -0.32911,-0.41965 -0.31975,-0.42901 0.0999,-0.0999 0.44073,0.34565 0.58089,0.56292 0.36313,0.56292 -0.0549,0 -0.2633,-0.20836 -0.46302,-0.46302 z m -31.23669,-8.18439 c 0.19099,-0.0764 0.41919,-0.067 0.50711,0.0209 0.0879,0.0879 -0.0683,0.15045 -0.34726,0.13896 -0.30823,-0.0127 -0.37092,-0.0754 -0.15985,-0.15985 z m -14.552087,-5.02708 c 0.190996,-0.0764 0.419199,-0.067 0.507118,0.0209 0.08792,0.0879 -0.06835,0.15045 -0.347266,0.13896 -0.308224,-0.0127 -0.370919,-0.0754 -0.159852,-0.15985 z m 7.656377,-0.27057 c 0.32742,-0.0631 0.86321,-0.0631 1.19063,0 0.32742,0.0631 0.0595,0.11466 -0.59531,0.11466 -0.65485,0 -0.92274,-0.0516 -0.59532,-0.11466 z"
         id="path7" /><path
         style="fill:#d2d2d2"
         d="m 106.1409,168.25111 c 0.191,-0.0764 0.4192,-0.067 0.50712,0.0209 0.0879,0.0879 -0.0684,0.15045 -0.34727,0.13896 -0.30822,-0.0127 -0.37092,-0.0754 -0.15985,-0.15985 z m -8.743049,-5.0381 c 0.475549,-0.0589 1.189924,-0.0577 1.5875,0.003 0.397576,0.0604 0.0085,0.10856 -0.864634,0.10707 -0.873125,-0.001 -1.198415,-0.0509 -0.722866,-0.10977 z m 6.074779,8e-4 c 0.46969,-0.0584 1.30313,-0.0594 1.85208,-0.002 0.54895,0.0573 0.16465,0.1051 -0.85399,0.10628 -1.01865,10e-4 -1.46779,-0.0457 -0.99809,-0.10414 z m -11.354647,-0.25437 c 0.190996,-0.0764 0.419199,-0.067 0.507118,0.0209 0.08792,0.0879 -0.06835,0.15045 -0.347266,0.13896 -0.308224,-0.0127 -0.370919,-0.0754 -0.159852,-0.15985 z m 17.991667,0 c 0.191,-0.0764 0.4192,-0.067 0.50712,0.0209 0.0879,0.0879 -0.0684,0.15045 -0.34727,0.13896 -0.30822,-0.0127 -0.37092,-0.0754 -0.15985,-0.15985 z m -20.902084,-0.26458 c 0.190996,-0.0764 0.419199,-0.067 0.507118,0.0209 0.08792,0.0879 -0.06835,0.15045 -0.347265,0.13896 -0.308225,-0.0127 -0.37092,-0.0754 -0.159853,-0.15985 z m 23.812504,0 c 0.19099,-0.0764 0.41919,-0.067 0.50711,0.0209 0.0879,0.0879 -0.0683,0.15045 -0.34726,0.13896 -0.30823,-0.0127 -0.37092,-0.0754 -0.15985,-0.15985 z m 31.27044,-5.77239 c 0.34177,-0.3638 0.68094,-0.66145 0.7537,-0.66145 0.0728,0 -0.14734,0.29765 -0.48912,0.66145 -0.34177,0.36381 -0.68094,0.66146 -0.7537,0.66146 -0.0728,0 0.14734,-0.29765 0.48912,-0.66146 z m -3.43959,-3.70416 c 0.34178,-0.3638 0.68094,-0.66146 0.7537,-0.66146 0.0728,0 -0.14734,0.29766 -0.48911,0.66146 -0.34178,0.3638 -0.68094,0.66146 -0.7537,0.66146 -0.0728,0 0.14734,-0.29766 0.48911,-0.66146 z m -0.14474,-8.13594 -1.04588,-1.12448 1.12448,1.04588 c 0.61846,0.57524 1.12448,1.08126 1.12448,1.12448 0,0.20018 -0.23041,-1.3e-4 -1.20308,-1.04588 z m -43.837495,0.13898 c 0.475548,-0.0589 1.189923,-0.0577 1.5875,0.003 0.397576,0.0604 0.0085,0.10855 -0.864635,0.10706 -0.873125,-0.001 -1.198414,-0.0509 -0.722865,-0.10976 z m 7.271305,0.002 c 0.40018,-0.0606 1.05502,-0.0606 1.45521,0 0.40018,0.0606 0.0728,0.11022 -0.72761,0.11022 -0.80036,0 -1.12778,-0.0496 -0.7276,-0.11022 z m -12.286591,-0.25581 c 0.190996,-0.0764 0.4192,-0.067 0.507118,0.0209 0.08792,0.0879 -0.06835,0.15046 -0.347265,0.13897 -0.308225,-0.0127 -0.370919,-0.0754 -0.159853,-0.15985 z m 18.520831,0 c 0.191,-0.0764 0.4192,-0.067 0.50712,0.0209 0.0879,0.0879 -0.0683,0.15046 -0.34727,0.13897 -0.30822,-0.0127 -0.37091,-0.0754 -0.15985,-0.15985 z m -21.431247,-0.26459 c 0.190996,-0.0764 0.419199,-0.067 0.507118,0.0209 0.08792,0.0879 -0.06835,0.15045 -0.347266,0.13896 -0.308224,-0.0127 -0.370919,-0.0754 -0.159852,-0.15985 z m -2.38125,-0.26458 c 0.190996,-0.0764 0.419199,-0.067 0.507118,0.0209 0.08792,0.0879 -0.06835,0.15045 -0.347266,0.13896 -0.308224,-0.0127 -0.370919,-0.0754 -0.159852,-0.15985 z m 13.222998,-4.24876 c 0.915209,-0.0518 2.343959,-0.0514 3.174999,9.5e-4 0.83104,0.0523 0.0822,0.0947 -1.66401,0.0942 -1.746253,-5.3e-4 -2.426197,-0.0434 -1.510989,-0.0952 z m -7.154118,-0.24365 c 0.181901,-0.0734 0.479557,-0.0734 0.661458,0 0.181901,0.0734 0.03307,0.13346 -0.330729,0.13346 -0.363802,0 -0.51263,-0.0601 -0.330729,-0.13346 z m 16.668747,0 c 0.1819,-0.0734 0.47956,-0.0734 0.66146,0 0.1819,0.0734 0.0331,0.13346 -0.33073,0.13346 -0.3638,0 -0.51263,-0.0601 -0.33073,-0.13346 z m -19.562627,-0.27009 c 0.190996,-0.0764 0.419199,-0.067 0.507118,0.0209 0.08792,0.0879 -0.06835,0.15045 -0.347266,0.13896 -0.308224,-0.0127 -0.370919,-0.0754 -0.159852,-0.15985 z m 22.754167,0 c 0.191,-0.0764 0.4192,-0.067 0.50712,0.0209 0.0879,0.0879 -0.0683,0.15045 -0.34727,0.13896 -0.30822,-0.0127 -0.37092,-0.0754 -0.15985,-0.15985 z m 2.38125,-0.26459 c 0.191,-0.0764 0.4192,-0.067 0.50712,0.0209 0.0879,0.0879 -0.0684,0.15046 -0.34727,0.13897 -0.30822,-0.0127 -0.37092,-0.0754 -0.15985,-0.15986 z m -1.05833,-3.70416 c 0.19099,-0.0764 0.41919,-0.067 0.50711,0.0209 0.0879,0.0879 -0.0684,0.15045 -0.34726,0.13896 -0.30823,-0.0127 -0.37092,-0.0754 -0.15985,-0.15985 z m -22.754171,-0.26459 c 0.190996,-0.0764 0.4192,-0.067 0.507118,0.0209 0.08792,0.0879 -0.06835,0.15046 -0.347265,0.13897 -0.308225,-0.0127 -0.370919,-0.0754 -0.159853,-0.15986 z m 19.827211,0.006 c 0.1819,-0.0734 0.47956,-0.0734 0.66146,0 0.1819,0.0734 0.0331,0.13345 -0.33073,0.13345 -0.3638,0 -0.51263,-0.06 -0.33073,-0.13345 z M 95.011863,135.1837 c 0.181901,-0.0734 0.479557,-0.0734 0.661458,0 0.181901,0.0734 0.03307,0.13346 -0.330729,0.13346 -0.363802,0 -0.51263,-0.0601 -0.330729,-0.13346 z m 11.778997,-0.008 c 0.25743,-0.0671 0.61461,-0.0627 0.79375,0.01 0.17913,0.0725 -0.0315,0.12736 -0.46806,0.12197 -0.43656,-0.005 -0.58312,-0.0647 -0.32569,-0.13177 z m 33.5309,-4.41446 c 0,-0.0549 0.20836,-0.2633 0.46302,-0.46302 0.41964,-0.32911 0.429,-0.31975 0.0999,0.0999 -0.34564,0.44073 -0.56291,0.58089 -0.56291,0.36313 z m -32.32878,-0.61001 c 0.191,-0.0764 0.4192,-0.067 0.50712,0.0209 0.0879,0.0879 -0.0684,0.15045 -0.34727,0.13896 -0.30822,-0.0127 -0.37091,-0.0754 -0.15985,-0.15985 z"
         id="path6" /><path
         style="fill:#bababa"
         d="m 97.131614,168.24472 c 0.329119,-0.0633 0.805369,-0.0609 1.058334,0.005 0.252964,0.0662 -0.01631,0.118 -0.598398,0.11507 -0.582083,-0.003 -0.789054,-0.0571 -0.459936,-0.12041 z m 7.408336,0 c 0.32912,-0.0633 0.80537,-0.0609 1.05833,0.005 0.25297,0.0662 -0.0163,0.118 -0.5984,0.11507 -0.58208,-0.003 -0.78905,-0.0571 -0.45993,-0.12041 z m -8.453217,-5.02069 c 0.190996,-0.0764 0.419199,-0.067 0.507118,0.0209 0.08792,0.0879 -0.06835,0.15046 -0.347266,0.13897 -0.308224,-0.0127 -0.370919,-0.0754 -0.159852,-0.15985 z m 3.426131,-17.99806 c 0.329119,-0.0633 0.805366,-0.0609 1.058336,0.005 0.25296,0.0662 -0.0163,0.118 -0.5984,0.11507 -0.582083,-0.003 -0.789054,-0.0571 -0.459936,-0.12041 z m 2.775036,0.005 c 0.25467,-0.0665 0.67138,-0.0665 0.92605,0 0.25466,0.0666 0.0463,0.121 -0.46302,0.121 -0.50933,0 -0.71769,-0.0545 -0.46303,-0.121 z m -9.640751,-0.26294 c 0.190996,-0.0764 0.4192,-0.067 0.507118,0.0209 0.08792,0.0879 -0.06835,0.15046 -0.347265,0.13897 -0.308225,-0.0127 -0.370919,-0.0754 -0.159853,-0.15985 z m -34.610806,-3.39114 c 0.341774,-0.3638 0.680939,-0.66146 0.753699,-0.66146 0.07276,0 -0.147342,0.29766 -0.489116,0.66146 -0.341774,0.3638 -0.680939,0.66146 -0.753699,0.66146 -0.07276,0 0.147341,-0.29766 0.489116,-0.66146 z m 38.959895,-1.37301 c 0.254661,-0.0666 0.67138,-0.0666 0.926041,0 0.254662,0.0666 0.0463,0.121 -0.46302,0.121 -0.509323,0 -0.717683,-0.0545 -0.463021,-0.121 z m 7.672912,0 c 0.25467,-0.0666 0.67138,-0.0666 0.92605,0 0.25466,0.0666 0.0463,0.121 -0.46302,0.121 -0.50933,0 -0.71769,-0.0545 -0.46303,-0.121 z m 3.32383,-5.02544 c 0.191,-0.0764 0.4192,-0.067 0.50712,0.0209 0.0879,0.0879 -0.0684,0.15045 -0.34727,0.13896 -0.30822,-0.0127 -0.37091,-0.0754 -0.15985,-0.15985 z m -0.79375,-5.02708 c 0.191,-0.0764 0.4192,-0.067 0.50712,0.0209 0.0879,0.0879 -0.0683,0.15045 -0.34727,0.13896 -0.30822,-0.0127 -0.37091,-0.0754 -0.15985,-0.15985 z m 1.5875,-17.99167 c 0.191,-0.0764 0.4192,-0.067 0.50712,0.0209 0.0879,0.0879 -0.0684,0.15045 -0.34727,0.13896 -0.30822,-0.0127 -0.37091,-0.0754 -0.15985,-0.15985 z m -0.79375,-5.02708 c 0.191,-0.0764 0.4192,-0.067 0.50712,0.0209 0.0879,0.0879 -0.0684,0.15045 -0.34727,0.13896 -0.30822,-0.0127 -0.37091,-0.0754 -0.15985,-0.15985 z"
         id="path5" /><path
         style="fill:#a7a7a7"
         d="m 98.983698,168.24472 c 0.329118,-0.0633 0.805368,-0.0609 1.058332,0.005 0.25297,0.0662 -0.0163,0.118 -0.598396,0.11507 -0.582084,-0.003 -0.789055,-0.0571 -0.459936,-0.12041 z m 3.436502,4e-4 c 0.32742,-0.0631 0.8632,-0.0631 1.19062,0 0.32742,0.0631 0.0595,0.11467 -0.59531,0.11467 -0.65485,0 -0.92274,-0.0516 -0.59531,-0.11467 z m 7.42487,-0.25859 c 0.19099,-0.0764 0.41919,-0.067 0.50711,0.0209 0.0879,0.0879 -0.0684,0.15046 -0.34726,0.13897 -0.30823,-0.0127 -0.37092,-0.0754 -0.15985,-0.15985 z m -2.91042,-4.7625 c 0.191,-0.0764 0.4192,-0.067 0.50712,0.0209 0.0879,0.0879 -0.0684,0.15046 -0.34727,0.13897 -0.30822,-0.0127 -0.37092,-0.0754 -0.15985,-0.15985 z M 61.177594,152.88758 c -0.329108,-0.41965 -0.319749,-0.429 0.0999,-0.0999 0.254661,0.19972 0.46302,0.40808 0.46302,0.46302 0,0.21777 -0.217272,0.0776 -0.562915,-0.36312 z m 39.919686,-7.64971 c 0.1819,-0.0734 0.47956,-0.0734 0.66146,0 0.1819,0.0734 0.0331,0.13345 -0.33073,0.13345 -0.3638,0 -0.51263,-0.06 -0.33073,-0.13345 z m 7.95404,-0.27009 c 0.19099,-0.0764 0.41919,-0.067 0.50711,0.0209 0.0879,0.0879 -0.0683,0.15046 -0.34726,0.13897 -0.30823,-0.0127 -0.37092,-0.0754 -0.15985,-0.15985 z m 35.22494,-3.45729 -0.91179,-0.99218 0.99218,0.9118 c 0.54571,0.50148 0.99219,0.94797 0.99219,0.99218 0,0.20204 -0.22389,0.0117 -1.07258,-0.9118 z m -38.13536,-1.30522 c 0.191,-0.0764 0.4192,-0.067 0.50712,0.0209 0.0879,0.0879 -0.0684,0.15046 -0.34727,0.13897 -0.30822,-0.0127 -0.37092,-0.0754 -0.15985,-0.15986 z m -12.435417,-5.02708 c 0.190996,-0.0764 0.419199,-0.067 0.507118,0.0209 0.08792,0.0879 -0.06835,0.15045 -0.347266,0.13896 -0.308224,-0.0127 -0.370919,-0.0754 -0.159852,-0.15985 z m -32.11391,-4.91249 -0.777105,-0.85989 0.859895,0.7771 c 0.801544,0.72437 0.981512,0.94269 0.777106,0.94269 -0.04554,0 -0.432488,-0.38695 -0.859896,-0.8599 z m 33.965993,-0.11459 c 0.190996,-0.0764 0.419199,-0.067 0.507118,0.0209 0.08792,0.0879 -0.06835,0.15045 -0.347266,0.13896 -0.308224,-0.0127 -0.370919,-0.0754 -0.159852,-0.15985 z m 45.273334,-8.21978 -0.64143,-0.72761 0.7276,0.64144 c 0.68006,0.59951 0.84894,0.81377 0.64143,0.81377 -0.0474,0 -0.37481,-0.32742 -0.7276,-0.7276 z m 4.21961,-2.64584 c -0.32911,-0.41964 -0.31975,-0.429 0.0999,-0.0999 0.44073,0.34564 0.58089,0.56291 0.36313,0.56291 -0.0549,0 -0.2633,-0.20835 -0.46302,-0.46302 z m -1.4466,-1.4552 -0.50403,-0.59532 0.59532,0.50403 c 0.32742,0.27722 0.59531,0.54511 0.59531,0.59531 0,0.21174 -0.21294,0.0554 -0.6866,-0.50402 z m -50.692177,-5.67085 c 0.190996,-0.0764 0.419199,-0.067 0.507118,0.0209 0.08792,0.0879 -0.06835,0.15045 -0.347266,0.13896 -0.308224,-0.0127 -0.370919,-0.0754 -0.159852,-0.15985 z m 7.259507,-0.27658 c 0.5457,-0.0571 1.43867,-0.0571 1.98437,0 0.54571,0.0571 0.0992,0.10378 -0.99218,0.10378 -1.09141,0 -1.537895,-0.0467 -0.99219,-0.10378 z m -9.376174,-4.48592 c 0.190996,-0.0764 0.419199,-0.067 0.507118,0.0209 0.08792,0.0879 -0.06835,0.15045 -0.347265,0.13896 -0.308225,-0.0127 -0.37092,-0.0754 -0.159853,-0.15985 z m 3.96875,-0.26458 c 0.190996,-0.0764 0.419199,-0.067 0.507118,0.0209 0.08792,0.0879 -0.06835,0.15045 -0.347266,0.13896 -0.308224,-0.0127 -0.370919,-0.0754 -0.159852,-0.15985 z"
         id="path4" /><path
         style="fill:#8b8b8b"
         d="m 100.7004,168.24947 c 0.25467,-0.0666 0.67138,-0.0666 0.92605,0 0.25466,0.0666 0.0463,0.121 -0.46302,0.121 -0.50933,0 -0.71769,-0.0545 -0.46303,-0.121 z m -7.403293,-0.26556 c 0.257431,-0.0671 0.614618,-0.0627 0.79375,0.01 0.179131,0.0725 -0.03149,0.12736 -0.468057,0.12197 -0.436562,-0.005 -0.583124,-0.0647 -0.325693,-0.13178 z m 15.473093,0.008 c 0.1819,-0.0734 0.47955,-0.0734 0.66145,0 0.18191,0.0734 0.0331,0.13345 -0.33072,0.13345 -0.36381,0 -0.51264,-0.0601 -0.33073,-0.13345 z m -18.768884,-0.2701 c 0.190996,-0.0764 0.419199,-0.067 0.507118,0.0209 0.08792,0.0879 -0.06835,0.15045 -0.347265,0.13897 -0.308225,-0.0127 -0.37092,-0.0754 -0.159853,-0.15986 z m -2.645833,-0.26458 c 0.190996,-0.0764 0.419199,-0.067 0.507118,0.0209 0.08792,0.0879 -0.06835,0.15045 -0.347266,0.13896 -0.308224,-0.0127 -0.370919,-0.0754 -0.159852,-0.15985 z m 6.999957,-4.23595 c 0.257431,-0.0671 0.614619,-0.0627 0.79375,0.01 0.179132,0.0725 -0.03149,0.12736 -0.468056,0.12197 -0.436563,-0.005 -0.583125,-0.0647 -0.325694,-0.13178 z m 13.35642,0.008 c 0.1819,-0.0734 0.47956,-0.0734 0.66146,0 0.1819,0.0734 0.0331,0.13345 -0.33073,0.13345 -0.3638,0 -0.51263,-0.06 -0.33073,-0.13345 z m -16.916794,-0.2701 c 0.190996,-0.0764 0.419199,-0.067 0.507118,0.0209 0.08792,0.0879 -0.06835,0.15045 -0.347265,0.13896 -0.308225,-0.0127 -0.37092,-0.0754 -0.159853,-0.15985 z m 56.955914,-12.6736 c 0.0127,-0.30822 0.0754,-0.37092 0.15985,-0.15985 0.0764,0.191 0.067,0.4192 -0.0209,0.50712 -0.0879,0.0879 -0.15045,-0.0683 -0.13896,-0.34727 z m -88.370832,-1.05833 c 0.0127,-0.30823 0.07539,-0.37092 0.159852,-0.15985 0.07643,0.19099 0.06703,0.4192 -0.02089,0.50711 -0.08792,0.0879 -0.150453,-0.0684 -0.138964,-0.34726 z m 83.629222,-0.11024 c 0,-0.36381 0.0601,-0.51263 0.13345,-0.33073 0.0734,0.1819 0.0734,0.47955 0,0.66146 -0.0734,0.1819 -0.13345,0.0331 -0.13345,-0.33073 z m -2.19219,-4.16719 c -0.32911,-0.41965 -0.31975,-0.429 0.0999,-0.0999 0.25466,0.19972 0.46302,0.40808 0.46302,0.46302 0,0.21777 -0.21727,0.0776 -0.56291,-0.36312 z m -46.995942,0.016 c 0.254661,-0.0666 0.67138,-0.0666 0.926042,0 0.254661,0.0666 0.0463,0.121 -0.463021,0.121 -0.509323,0 -0.717683,-0.0545 -0.463021,-0.121 z m 14.155212,0.007 c 0.1819,-0.0734 0.47955,-0.0734 0.66145,0 0.18191,0.0734 0.0331,0.13345 -0.33072,0.13345 -0.36381,0 -0.51264,-0.06 -0.33073,-0.13345 z M 90.249363,144.7087 c 0.181901,-0.0734 0.479557,-0.0734 0.661458,0 0.181901,0.0734 0.03307,0.13346 -0.330729,0.13346 -0.363802,0 -0.51263,-0.0601 -0.330729,-0.13346 z m -2.629297,-0.27009 c 0.190996,-0.0764 0.419199,-0.067 0.507118,0.0209 0.08792,0.0879 -0.06835,0.15045 -0.347265,0.13896 -0.308225,-0.0127 -0.37092,-0.0754 -0.159853,-0.15985 z m 7.529124,-4.23595 c 0.257431,-0.0671 0.614619,-0.0627 0.79375,0.01 0.179132,0.0725 -0.03149,0.12736 -0.468056,0.12197 -0.436563,-0.005 -0.583125,-0.0647 -0.325694,-0.13178 z m 11.76892,0.008 c 0.1819,-0.0734 0.47956,-0.0734 0.66146,0 0.1819,0.0734 0.0331,0.13345 -0.33073,0.13345 -0.3638,0 -0.51263,-0.0601 -0.33073,-0.13345 z m -15.593877,-0.2701 c 0.190996,-0.0764 0.419199,-0.067 0.507118,0.0209 0.08792,0.0879 -0.06835,0.15045 -0.347266,0.13896 -0.308224,-0.0127 -0.370919,-0.0754 -0.159852,-0.15985 z m 19.843747,0 c 0.191,-0.0764 0.4192,-0.067 0.50712,0.0209 0.0879,0.0879 -0.0683,0.15045 -0.34727,0.13896 -0.30822,-0.0127 -0.37091,-0.0754 -0.15985,-0.15985 z m -22.754164,-0.26458 c 0.190996,-0.0764 0.419199,-0.067 0.507118,0.0209 0.08792,0.0879 -0.06835,0.15045 -0.347265,0.13896 -0.308225,-0.0127 -0.37092,-0.0754 -0.159853,-0.15985 z m 26.458334,-3.96875 c 0.191,-0.0764 0.4192,-0.067 0.50712,0.0209 0.0879,0.0879 -0.0684,0.15045 -0.34727,0.13896 -0.30822,-0.0127 -0.37092,-0.0754 -0.15985,-0.15985 z m -2.38125,-0.26459 c 0.191,-0.0764 0.4192,-0.067 0.50712,0.0209 0.0879,0.0879 -0.0683,0.15046 -0.34727,0.13897 -0.30822,-0.0127 -0.37092,-0.0754 -0.15985,-0.15986 z M 92.630613,135.1837 c 0.181901,-0.0734 0.479557,-0.0734 0.661458,0 0.181901,0.0734 0.03307,0.13346 -0.330729,0.13346 -0.363802,0 -0.51263,-0.0601 -0.330729,-0.13346 z m 16.668747,0 c 0.1819,-0.0734 0.47956,-0.0734 0.66146,0 0.1819,0.0734 0.0331,0.13346 -0.33073,0.13346 -0.3638,0 -0.51263,-0.0601 -0.33073,-0.13346 z m -9.657289,-0.28555 c 0.982269,-0.0509 2.589609,-0.0509 3.571879,0 0.98226,0.0509 0.17859,0.0926 -1.78594,0.0926 -1.964533,0 -2.768204,-0.0417 -1.785939,-0.0926 z m 45.177599,-1.75578 c 0,-0.0549 0.20836,-0.2633 0.46303,-0.46302 0.41964,-0.32911 0.429,-0.31975 0.0999,0.0999 -0.34564,0.44073 -0.56292,0.58089 -0.56292,0.36313 z m -55.876687,-2.4621 c 0.190996,-0.0764 0.419199,-0.067 0.507118,0.0209 0.08792,0.0879 -0.06835,0.15046 -0.347266,0.13897 -0.308224,-0.0127 -0.370919,-0.0754 -0.159852,-0.15986 z m 24.341667,0 c 0.191,-0.0764 0.4192,-0.067 0.50712,0.0209 0.0879,0.0879 -0.0683,0.15046 -0.34727,0.13897 -0.30822,-0.0127 -0.37092,-0.0754 -0.15985,-0.15986 z m -21.431251,-0.26458 c 0.190996,-0.0764 0.4192,-0.067 0.507118,0.0209 0.08792,0.0879 -0.06835,0.15045 -0.347265,0.13896 -0.308225,-0.0127 -0.370919,-0.0754 -0.159853,-0.15985 z m 18.504301,0.006 c 0.1819,-0.0734 0.47955,-0.0734 0.66145,0 0.18191,0.0734 0.0331,0.13346 -0.33072,0.13346 -0.36381,0 -0.51264,-0.0601 -0.33073,-0.13346 z m -13.626045,-0.27886 c 0.400182,-0.0606 1.055026,-0.0606 1.455208,0 0.400182,0.0606 0.07276,0.11022 -0.727604,0.11022 -0.800365,0 -1.127787,-0.0496 -0.727604,-0.11022 z m 7.937495,0 c 0.40019,-0.0606 1.05503,-0.0606 1.45521,0 0.40018,0.0606 0.0728,0.11022 -0.7276,0.11022 -0.80037,0 -1.12779,-0.0496 -0.72761,-0.11022 z m 43.08183,-2.87525 c 0.0127,-0.30822 0.0754,-0.37092 0.15985,-0.15985 0.0764,0.191 0.067,0.4192 -0.0209,0.50712 -0.0879,0.0879 -0.15045,-0.0684 -0.13896,-0.34727 z m -88.370832,-1.05833 c 0.0127,-0.30823 0.07539,-0.37092 0.159852,-0.15985 0.07643,0.19099 0.06703,0.41919 -0.02089,0.50711 -0.08792,0.0879 -0.150453,-0.0684 -0.138964,-0.34726 z M 143.00937,126.099 c 0,-0.3638 0.0601,-0.51263 0.13345,-0.33072 0.0734,0.1819 0.0734,0.47955 0,0.66145 -0.0734,0.18191 -0.13345,0.0331 -0.13345,-0.33073 z m -81.533444,-4.10104 c 0.341774,-0.3638 0.680939,-0.66146 0.753699,-0.66146 0.07276,0 -0.147341,0.29766 -0.489116,0.66146 -0.341774,0.36381 -0.680939,0.66146 -0.753699,0.66146 -0.07276,0 0.147342,-0.29765 0.489116,-0.66146 z m -3.307292,-3.57187 c 0.263389,-0.29104 0.538421,-0.52917 0.611181,-0.52917 0.07276,0 -0.08321,0.23813 -0.346597,0.52917 -0.263389,0.29104 -0.538421,0.52916 -0.611181,0.52916 -0.07276,0 0.08321,-0.23812 0.346597,-0.52916 z m 59.084766,-5.47241 c 0.191,-0.0764 0.4192,-0.067 0.50712,0.0209 0.0879,0.0879 -0.0683,0.15045 -0.34727,0.13896 -0.30822,-0.0127 -0.37092,-0.0754 -0.15985,-0.15985 z m -4.23333,-0.52917 c 0.19099,-0.0764 0.41919,-0.067 0.50711,0.0209 0.0879,0.0879 -0.0683,0.15045 -0.34726,0.13897 -0.30823,-0.0127 -0.37092,-0.0754 -0.15985,-0.15986 z m -2.91042,-0.26458 c 0.191,-0.0764 0.4192,-0.067 0.50712,0.0209 0.0879,0.0879 -0.0684,0.15045 -0.34727,0.13896 -0.30822,-0.0127 -0.37092,-0.0754 -0.15985,-0.15985 z m -12.848829,-0.27335 c 0.400182,-0.0606 1.055026,-0.0606 1.455208,0 0.400183,0.0606 0.07276,0.11022 -0.727604,0.11022 -0.800364,0 -1.127786,-0.0496 -0.727604,-0.11022 z m 6.482289,-0.002 c 0.47295,-0.0587 1.24685,-0.0587 1.71979,0 0.47295,0.0587 0.086,0.10671 -0.85989,0.10671 -0.94589,0 -1.33284,-0.048 -0.8599,-0.10671 z m 10.07071,-4.22268 c 0.19099,-0.0764 0.41919,-0.067 0.50711,0.0209 0.0879,0.0879 -0.0684,0.15045 -0.34726,0.13897 -0.30823,-0.0127 -0.37092,-0.0754 -0.15985,-0.15986 z m -2.91042,-0.26458 c 0.191,-0.0764 0.4192,-0.067 0.50712,0.0209 0.0879,0.0879 -0.0684,0.15045 -0.34727,0.13896 -0.30822,-0.0127 -0.37092,-0.0754 -0.15985,-0.15985 z m -15.225043,-0.2672 c 0.257431,-0.0671 0.614618,-0.0627 0.79375,0.01 0.179131,0.0725 -0.03149,0.12736 -0.468057,0.12197 -0.436562,-0.005 -0.583124,-0.0647 -0.325693,-0.13178 z m 10.847913,0 c 0.25743,-0.0671 0.61462,-0.0627 0.79375,0.01 0.17913,0.0725 -0.0315,0.12736 -0.46805,0.12197 -0.43657,-0.005 -0.58313,-0.0647 -0.3257,-0.13178 z"
         id="path3" /><path
         style="fill:#6f6f6f"
         d="m 107.99298,167.98653 c 0.191,-0.0764 0.4192,-0.067 0.50712,0.0209 0.0879,0.0879 -0.0684,0.15046 -0.34727,0.13897 -0.30822,-0.0127 -0.37091,-0.0754 -0.15985,-0.15985 z m -14.552081,-4.7625 c 0.190996,-0.0764 0.4192,-0.067 0.507118,0.0209 0.08792,0.0879 -0.06835,0.15046 -0.347265,0.13897 -0.308225,-0.0127 -0.370919,-0.0754 -0.159853,-0.15985 z m -35.288909,-6.49999 -0.777106,-0.8599 0.859896,0.77711 c 0.472943,0.4274 0.859896,0.81436 0.859896,0.85989 0,0.20441 -0.218315,0.0244 -0.942686,-0.7771 z m 85.34477,0.76 c 0,-0.0549 0.20836,-0.2633 0.46302,-0.46302 0.41964,-0.32911 0.429,-0.31975 0.0999,0.0999 -0.34564,0.44073 -0.56291,0.58089 -0.56291,0.36313 z m -82.040859,-4.06729 -0.641433,-0.72761 0.727604,0.64143 c 0.400182,0.35279 0.727604,0.68021 0.727604,0.72761 0,0.2075 -0.214259,0.0386 -0.813775,-0.64143 z m -6.838253,-4.71841 c 0.0127,-0.30822 0.07539,-0.37092 0.159852,-0.15985 0.07643,0.191 0.06703,0.4192 -0.02089,0.50712 -0.08792,0.0879 -0.150453,-0.0684 -0.138964,-0.34727 z m 93.133332,0 c 0.0127,-0.30822 0.0754,-0.37092 0.15985,-0.15985 0.0764,0.191 0.067,0.4192 -0.0209,0.50712 -0.0879,0.0879 -0.15045,-0.0684 -0.13896,-0.34727 z m -86.804221,-3.10345 c 0,-0.0455 0.386953,-0.43249 0.859896,-0.85989 l 0.859896,-0.77711 -0.777105,0.8599 c -0.724372,0.80154 -0.942687,0.98151 -0.942687,0.7771 z m 46.252471,-0.62711 c 0.191,-0.0764 0.4192,-0.067 0.50712,0.0209 0.0879,0.0879 -0.0683,0.15046 -0.34727,0.13897 -0.30822,-0.0127 -0.37091,-0.0754 -0.15985,-0.15985 z m 37.99218,-2.26666 -0.50403,-0.59531 0.59532,0.50403 c 0.32742,0.27721 0.59531,0.5451 0.59531,0.59531 0,0.21173 -0.21294,0.0554 -0.6866,-0.50403 z m -50.956761,-2.49585 c 0.190996,-0.0764 0.4192,-0.067 0.507118,0.0209 0.08792,0.0879 -0.06835,0.15046 -0.347265,0.13897 -0.308225,-0.0127 -0.370919,-0.0754 -0.159853,-0.15986 z m 2.766624,-5.29428 c 0.257431,-0.0671 0.614619,-0.0627 0.79375,0.01 0.179132,0.0725 -0.03149,0.12736 -0.468056,0.12197 -0.436562,-0.005 -0.583125,-0.0647 -0.325694,-0.13178 z m 8.064757,0.008 c 0.1819,-0.0734 0.47956,-0.0734 0.66146,0 0.1819,0.0734 0.0331,0.13345 -0.33073,0.13345 -0.3638,0 -0.51263,-0.06 -0.33073,-0.13345 z m 38.95989,-1.0154 c 0.34178,-0.3638 0.68094,-0.66145 0.7537,-0.66145 0.0728,0 -0.14734,0.29765 -0.48911,0.66145 -0.34178,0.36381 -0.68094,0.66146 -0.7537,0.66146 -0.0728,0 0.14734,-0.29765 0.48911,-0.66146 z m -85.882424,-0.19843 -0.504028,-0.59532 0.595312,0.50403 c 0.559447,0.47366 0.715762,0.6866 0.504028,0.6866 -0.05021,0 -0.318097,-0.26789 -0.595312,-0.59531 z m 4.621598,-2.24896 c -0.329108,-0.41965 -0.319749,-0.429 0.09989,-0.0999 0.254662,0.19972 0.463021,0.40808 0.463021,0.46302 0,0.21776 -0.217272,0.0776 -0.562915,-0.36312 z m 46.815386,-1.04064 c 0.191,-0.0764 0.4192,-0.067 0.50712,0.0209 0.0879,0.0879 -0.0683,0.15045 -0.34727,0.13896 -0.30822,-0.0127 -0.37091,-0.0754 -0.15985,-0.15985 z m -10.332199,-0.27097 c 0.329118,-0.0633 0.805369,-0.0609 1.058329,0.005 0.25297,0.0662 -0.0163,0.118 -0.598393,0.11506 -0.582083,-0.003 -0.789055,-0.0571 -0.459936,-0.1204 z m 3.171919,4e-4 c 0.32742,-0.0631 0.8632,-0.0631 1.19062,0 0.32742,0.0631 0.0595,0.11467 -0.59531,0.11467 -0.65485,0 -0.92274,-0.0516 -0.59531,-0.11467 z m -47.802552,-4.46553 c 0.0127,-0.30822 0.07539,-0.37092 0.159852,-0.15985 0.07643,0.19099 0.06703,0.4192 -0.02089,0.50712 -0.08792,0.0879 -0.150453,-0.0683 -0.138964,-0.34727 z m 41.469085,-13.78473 c 0.190996,-0.0764 0.419199,-0.067 0.507118,0.0209 0.08792,0.0879 -0.06835,0.15045 -0.347266,0.13896 -0.308224,-0.0127 -0.370919,-0.0754 -0.159852,-0.15985 z m 0.909505,-4.76415 c 0.254661,-0.0665 0.67138,-0.0665 0.926041,0 0.254662,0.0666 0.0463,0.121 -0.46302,0.121 -0.509323,0 -0.717683,-0.0545 -0.463021,-0.121 z m 7.808292,-0.005 c 0.32912,-0.0633 0.80537,-0.0609 1.05833,0.005 0.25297,0.0662 -0.0163,0.118 -0.59839,0.11506 -0.58209,-0.003 -0.78906,-0.0571 -0.45994,-0.1204 z"
         id="path2" /><path
         style="fill:#575757"
         d="m 91.903009,167.8664 c -12.138292,-0.90276 -23.865685,-4.20067 -30.411049,-8.55202 -2.251761,-1.49696 -5.008504,-4.39291 -5.814972,-6.1086 -1.199392,-2.55159 -1.15091,-5.62936 0.130138,-8.26155 0.916456,-1.88305 3.350861,-4.36095 5.912324,-6.01796 l 1.939554,-1.25469 -1.62636,-1.03404 c -2.730409,-1.73601 -5.197124,-4.26506 -6.262556,-6.42081 -0.822661,-1.66454 -0.938143,-2.14278 -0.938143,-3.88504 0,-2.38666 0.636221,-4.27413 2.082139,-6.17704 3.62094,-4.76537 12.276454,-8.88102 23.347258,-11.10149 10.183183,-2.04244 23.944138,-2.46257 35.189578,-1.07438 7.485,0.92399 16.03183,3.18616 21.21552,5.61533 9.25884,4.33883 13.08822,10.55062 10.23981,16.61036 -0.83114,1.76817 -3.47561,4.49255 -5.89439,6.07249 -1.10716,0.72319 -2.0121,1.37804 -2.01098,1.45521 0.001,0.0772 0.4476,0.39465 0.99219,0.70552 3.30584,1.8871 6.19976,4.93643 7.26959,7.66 0.62889,1.60103 0.6743,4.38014 0.0996,6.09725 -1.97943,5.9145 -11.35137,11.25217 -24.50303,13.95539 -8.87094,1.82335 -20.69811,2.479 -30.956251,1.71607 z m 22.621871,-5.07887 c 9.33683,-1.28532 14.92476,-2.80839 20.74318,-5.65386 3.05352,-1.4933 3.80879,-1.99517 5.44531,-3.61832 1.47015,-1.45815 1.97505,-2.15894 2.23149,-3.09728 0.84658,-3.09772 -1.65383,-6.21988 -7.22912,-9.02671 -2.38306,-1.19973 -2.41241,-1.1997 -6.26361,0.006 -8.56049,2.68077 -19.6169,3.97242 -31.331413,3.66026 -10.232591,-0.27268 -17.442743,-1.3395 -25.44358,-3.76466 -1.646244,-0.499 -3.176077,-0.90727 -3.399629,-0.90727 -0.223553,0 -1.26669,0.43062 -2.318083,0.95693 -5.262502,2.63434 -7.990543,5.82124 -7.449919,8.70301 1.045309,5.57198 14.13734,11.28416 29.350794,12.80603 1.60073,0.16013 3.267605,0.33877 3.704167,0.39698 2.078767,0.27719 19.209683,-0.0828 21.960413,-0.46144 z m -0.13229,-23.043 c 3.50862,-0.43984 9.94578,-1.65281 10.54197,-1.98646 0.67268,-0.37645 -6.73577,-1.74933 -13.1878,-2.44386 -3.90175,-0.42001 -17.195118,-0.41853 -21.166668,0.002 -5.978151,0.63355 -13.473408,2.03075 -13.050478,2.43276 0.515482,0.48999 8.763358,1.87983 13.97652,2.35518 4.027603,0.36724 18.958766,0.13239 22.886456,-0.35998 z m -42.595855,-5.41387 c 5.004039,-1.7008 11.226087,-2.93348 18.246907,-3.61499 6.576087,-0.63833 19.382398,-0.50399 25.142698,0.26376 5.6926,0.75873 10.39377,1.76182 15.09837,3.22156 l 3.05982,0.94939 1.96726,-0.98495 c 5.35266,-2.67992 8.33533,-6.00902 7.77878,-8.68226 -0.65572,-3.14955 -4.42207,-6.17374 -10.77333,-8.65044 -5.59015,-2.17991 -12.42418,-3.72881 -20.04131,-4.54227 -4.08447,-0.4362 -17.764304,-0.43276 -21.960421,0.006 -18.987014,1.98318 -32.447943,8.60314 -30.699172,15.09758 0.381874,1.41817 2.700002,3.90904 4.975236,5.34598 1.734044,1.09515 4.169696,2.30973 4.691621,2.33957 0.146653,0.008 1.277747,-0.32842 2.513541,-0.74845 z"
         id="path1" /></g></g></svg>
