<?xml version="1.0" encoding="UTF-8" standalone="no"?>
<!-- Created with Inkscape (http://www.inkscape.org/) -->

<svg
   width="210mm"
   height="297mm"
   viewBox="0 0 210 297"
   version="1.1"
   id="svg1"
   xml:space="preserve"
   inkscape:version="1.3 (0e150ed6c4, 2023-07-21)"
   sodipodi:docname="Soo.svg"
   xmlns:inkscape="http://www.inkscape.org/namespaces/inkscape"
   xmlns:sodipodi="http://sodipodi.sourceforge.net/DTD/sodipodi-0.dtd"
   xmlns="http://www.w3.org/2000/svg"
   xmlns:svg="http://www.w3.org/2000/svg"><sodipodi:namedview
     id="namedview1"
     pagecolor="#ffffff"
     bordercolor="#000000"
     borderopacity="0.25"
     inkscape:showpageshadow="2"
     inkscape:pageopacity="0.0"
     inkscape:pagecheckerboard="0"
     inkscape:deskcolor="#d1d1d1"
     inkscape:document-units="mm"
     inkscape:zoom="0.70644641"
     inkscape:cx="396.34995"
     inkscape:cy="561.25984"
     inkscape:window-width="1920"
     inkscape:window-height="992"
     inkscape:window-x="-8"
     inkscape:window-y="-8"
     inkscape:window-maximized="1"
     inkscape:current-layer="layer1" /><defs
     id="defs1" /><g
     inkscape:label="图层 1"
     inkscape:groupmode="layer"
     id="layer1"><g
       id="g1"
       transform="translate(2.2471631,-0.74905462)"><path
         style="fill:#fdfdfd"
         d="M 42.068359,144.942 V 87.185013 H 98.126106 154.18385 V 144.942 202.69898 H 98.126106 42.068359 Z m 67.484901,54.80407 c 11.82331,-1.00295 21.06647,-3.22507 28.35229,-6.81609 3.41674,-1.68403 7.34724,-5.01411 8.6591,-7.33636 1.59969,-2.83174 1.60318,-6.27096 0.009,-9.08062 -0.86211,-1.51962 -3.95235,-4.54671 -5.89533,-5.77484 -1.54816,-0.97857 -4.99082,-2.6952 -6.72386,-3.35275 l -0.93237,-0.35375 1.92014,-1.85862 c 2.58333,-2.50056 3.51417,-4.58134 3.18918,-7.12904 -0.42478,-3.32997 -3.27116,-6.36277 -8.39575,-8.9456 -1.3499,-0.68036 -1.58977,-0.87045 -1.23687,-0.98015 0.92574,-0.28778 3.84316,-2.33396 5.1431,-3.60719 1.89113,-1.85229 2.73833,-3.64038 2.74748,-5.79879 0.0121,-2.84729 -1.24108,-5.06737 -4.19733,-7.43605 l -0.96994,-0.77716 1.07774,-0.45624 c 2.96729,-1.25614 5.15762,-2.35849 6.70209,-3.37302 2.14204,-1.40705 4.97765,-4.17406 5.83765,-5.69642 1.59969,-2.83175 1.60318,-6.27097 0.009,-9.08063 -0.85818,-1.51271 -3.95126,-4.5467 -5.86543,-5.75339 -6.80531,-4.29006 -17.94491,-7.326943 -30.92232,-8.430055 -3.77821,-0.321157 -15.87649,-0.321157 -19.654705,0 -12.965909,1.102134 -24.203937,4.156055 -30.814512,8.373825 -1.810783,1.15533 -4.31183,3.33736 -5.190728,4.52862 -2.263389,3.06781 -2.633276,6.6648 -1.022077,9.93927 0.483504,0.98264 1.201735,1.88786 2.52778,3.18589 2.610855,2.55571 5.421594,4.32838 9.506407,5.99548 0.770794,0.31458 1.472204,0.6372 1.55869,0.71695 0.08649,0.0797 -0.384714,0.55957 -1.04711,1.06628 -2.648099,2.0257 -4.148787,5.03934 -3.885352,7.80245 0.32606,3.41996 3.333243,6.68887 8.408251,9.14006 l 1.400177,0.67627 -1.573978,0.91746 c -1.807287,1.05345 -4.158291,3.08627 -5.069392,4.3833 -1.659321,2.3622 -1.925108,5.23521 -0.716935,7.74966 0.713533,1.48501 2.152064,3.16238 3.492214,4.07202 0.481571,0.32687 0.831941,0.66348 0.7786,0.74801 -0.05334,0.0845 -0.561011,0.32194 -1.128156,0.52756 -1.54177,0.55898 -4.727382,2.15894 -6.313537,3.17096 -1.810783,1.15534 -4.31183,3.33737 -5.190728,4.52863 -2.263389,3.06781 -2.633276,6.6648 -1.022077,9.93927 0.838788,1.70468 3.620543,4.50041 6.093302,6.12391 7.340663,4.81953 19.903748,7.8976 35.694611,8.74551 2.324663,0.12482 12.011275,-0.0698 14.661255,-0.29462 z M 70.738274,164.39298 c -5.414932,-3.11254 -6.219814,-6.26187 -2.396776,-9.37807 1.251658,-1.02024 4.122586,-2.58713 6.231062,-3.40079 l 1.133423,-0.43738 2.100678,0.5195 c 11.956761,2.95692 28.813169,2.95971 40.586479,0.007 1.12654,-0.28256 2.48487,-0.64273 3.01849,-0.80038 0.90794,-0.26824 1.07406,-0.24982 2.58728,0.28692 4.89258,1.73539 8.38707,3.99521 9.50906,6.1493 1.1445,2.19731 -0.1143,4.43353 -3.79548,6.74259 -1.91478,1.20107 -2.08588,1.24745 -3.36373,0.91193 -3.9339,-1.03294 -11.28426,-2.21509 -16.56264,-2.66377 -3.77822,-0.32116 -15.876496,-0.32116 -19.654711,0 -5.804619,0.49341 -14.030644,1.8556 -17.452675,2.89008 -0.181054,0.0547 -1.054261,-0.31726 -1.94046,-0.82665 z m 23.075698,-14.70243 c -4.163721,-0.16777 -8.714509,-0.62932 -8.470954,-0.85913 0.294035,-0.27744 5.816279,-0.84366 10.249709,-1.05095 2.702512,-0.12636 5.813953,-0.12452 8.516463,0.005 4.93002,0.23636 9.04843,0.64781 8.63864,0.86306 -0.44556,0.23403 -5.63285,0.81645 -8.36913,0.93967 -4.939966,0.22245 -7.070962,0.24308 -10.564728,0.1023 z m -19.760484,-3.37133 c -4.438825,-1.54661 -8.386131,-4.10568 -9.454651,-6.12952 -0.485672,-0.91989 -0.451892,-2.30266 0.08126,-3.32625 0.59155,-1.13571 2.668762,-2.93678 4.502217,-3.90369 l 1.497698,-0.78985 1.056154,0.30592 c 3.240877,0.93875 10.441168,2.07457 16.903248,2.66643 3.80637,0.34862 14.998116,0.35399 18.973386,0.009 6.24098,-0.54146 12.96911,-1.59175 16.92513,-2.64209 1.05844,-0.28102 1.1035,-0.27332 2.47948,0.42353 1.84831,0.93606 3.61999,2.32062 4.41993,3.45415 0.5471,0.77525 0.64682,1.11674 0.64682,2.21503 0,1.18845 -0.0731,1.39284 -0.86242,2.41233 -0.53832,0.69525 -1.55117,1.56567 -2.69509,2.31608 -1.96857,1.29138 -5.37301,2.83572 -6.25259,2.83635 -0.29646,2.1e-4 -1.80032,-0.29486 -3.34191,-0.65571 -12.31022,-2.88154 -29.547781,-2.54856 -41.395796,0.79966 -1.800185,0.50873 -2.045542,0.50933 -3.482863,0.009 z m 15.340546,-15.2281 c -4.521425,-0.40279 -10.371054,-1.18024 -10.84823,-1.4418 -0.180251,-0.0988 0.576679,-0.34599 1.934136,-0.63164 10.739521,-2.25991 24.54388,-2.26197 35.26707,-0.005 1.21277,0.25523 2.1609,0.534 2.10695,0.61949 -0.17081,0.2707 -4.94189,0.91048 -10.24116,1.37329 -3.85103,0.33632 -14.82689,0.38809 -18.218766,0.0859 z m -20.806048,-3.80907 c -0.652211,-0.24461 -1.816487,-0.68238 -2.587281,-0.97282 -3.748968,-1.41261 -7.708651,-3.77209 -9.372876,-5.58508 -2.170838,-2.36489 -2.602999,-4.49068 -1.372593,-6.75173 3.264342,-5.99871 17.10619,-10.92239 34.354405,-12.2202 3.888205,-0.29256 13.402989,-0.29443 17.142489,-0.003 10.81949,0.84214 19.59034,2.81959 26.21465,5.91027 3.10605,1.44918 4.9457,2.63157 6.5677,4.22125 4.57166,4.48054 2.22335,9.25486 -6.55048,13.31775 -2.10678,0.97559 -6.28917,2.53292 -6.80243,2.53292 -0.13575,0 -1.3858,-0.38623 -2.77789,-0.8583 -7.37558,-2.5011 -14.91786,-3.57642 -25.084853,-3.57642 -10.206463,0 -17.565786,0.9947 -24.448477,3.30451 -3.531407,1.18514 -3.834551,1.22423 -5.282364,0.68121 z"
         id="path8" /><path
         style="fill:#ececec"
         d="m 96.455154,200.01929 c 0.207522,-0.0531 0.547102,-0.0531 0.754624,0 0.207521,0.0531 0.03773,0.0966 -0.377312,0.0966 -0.415043,0 -0.584833,-0.0435 -0.377312,-0.0966 z m 6.252596,0 c 0.20752,-0.0531 0.5471,-0.0531 0.75462,0 0.20752,0.0531 0.0377,0.0966 -0.37731,0.0966 -0.41504,0 -0.58483,-0.0435 -0.37731,-0.0966 z m -12.774699,-4.4005 c -8.525883,-0.79381 -16.424589,-2.4223 -21.667195,-4.46717 -7.815022,-3.04822 -11.967453,-6.55211 -11.967453,-10.09831 0,-2.98522 3.228832,-6.24171 8.68772,-8.76213 2.407162,-1.11141 6.400676,-2.53585 7.109422,-2.53585 0.246032,0 1.038844,0.23178 1.761803,0.51507 10.569524,4.1416 29.795942,5.17193 43.723602,2.34312 3.04928,-0.61934 6.45865,-1.5715 8.58188,-2.39675 l 1.58646,-0.61662 2.05963,0.69163 c 4.17323,1.40138 6.18685,2.34111 8.88438,4.14625 8.58542,5.7452 5.78008,11.91597 -7.69177,16.91924 -5.60481,2.08155 -12.55349,3.46746 -21.44827,4.27784 -4.14077,0.37726 -15.49445,0.36781 -19.620209,-0.0163 z M 54.896959,174.19005 c 0.214634,-0.23229 0.438754,-0.42235 0.498046,-0.42235 0.05929,0 -0.06781,0.19006 -0.282439,0.42235 -0.214634,0.2323 -0.438754,0.42235 -0.498046,0.42235 -0.05929,0 0.06781,-0.19005 0.282439,-0.42235 z m 38.162389,-4.2367 c -3.441925,-0.23685 -6.043533,-0.58371 -9.701348,-1.29344 -3.133474,-0.60799 -3.515342,-0.7102 -3.324891,-0.88998 0.174843,-0.16504 8.110089,-1.17179 11.085779,-1.40646 3.887751,-0.30659 13.554442,-0.30799 17.571952,-0.003 3.01656,0.22935 11.00978,1.2355 11.19358,1.40899 0.18325,0.17298 -0.1478,0.27094 -2.67712,0.79218 -6.89517,1.42095 -16.05077,1.94843 -24.147952,1.39124 z m 39.896452,-2.92874 c -0.0682,-0.10812 -0.0416,-0.24648 0.0591,-0.30747 0.10076,-0.061 0.18319,0.0275 0.18319,0.19658 0,0.35608 -0.068,0.3872 -0.24233,0.11089 z m -68.464342,-2.02077 c -0.523715,-0.52267 -0.903697,-0.9503 -0.844405,-0.9503 0.05929,0 0.536297,0.42763 1.060012,0.9503 0.523715,0.52266 0.903697,0.9503 0.844405,0.9503 -0.05929,0 -0.536297,-0.42764 -1.060012,-0.9503 z m 24.107526,-2.5728 c 0.155641,-0.061 0.341602,-0.0535 0.413247,0.0167 0.07164,0.0702 -0.0557,0.12009 -0.282984,0.11092 -0.25117,-0.0101 -0.302259,-0.0602 -0.130263,-0.12759 z m 22.423096,0 c 0.15564,-0.061 0.34161,-0.0535 0.41325,0.0167 0.0716,0.0702 -0.0557,0.12009 -0.28298,0.11092 -0.25117,-0.0101 -0.30226,-0.0602 -0.13027,-0.12759 z m -19.404602,-0.21118 c 0.155642,-0.061 0.341602,-0.0535 0.413247,0.0167 0.07164,0.0702 -0.0557,0.12008 -0.282984,0.11091 -0.25117,-0.0101 -0.302259,-0.0602 -0.130263,-0.12759 z m 16.386112,0 c 0.15564,-0.061 0.3416,-0.0535 0.41325,0.0167 0.0716,0.0702 -0.0557,0.12008 -0.28299,0.11091 -0.25117,-0.0101 -0.30226,-0.0602 -0.13026,-0.12759 z m -11.548436,-0.21248 c 0.207522,-0.0531 0.547102,-0.0531 0.754624,0 0.207521,0.0531 0.03773,0.0966 -0.377312,0.0966 -0.415043,0 -0.584833,-0.0435 -0.377312,-0.0966 z m 6.252596,0 c 0.20752,-0.0531 0.5471,-0.0531 0.75462,0 0.20752,0.0531 0.0377,0.0966 -0.37731,0.0966 -0.41504,0 -0.58483,-0.0435 -0.37731,-0.0966 z m -41.002158,-2.08939 c 0.01035,-0.24601 0.06143,-0.29605 0.130263,-0.12759 0.06228,0.15244 0.05462,0.33458 -0.01702,0.40476 -0.07164,0.0702 -0.122603,-0.0546 -0.113241,-0.27717 z m 76.324778,-0.42236 c 0.0103,-0.24601 0.0614,-0.29605 0.13026,-0.12758 0.0623,0.15244 0.0546,0.33458 -0.017,0.40475 -0.0716,0.0702 -0.1226,-0.0545 -0.11324,-0.27717 z m 0.017,-1.14388 c 0,-0.29036 0.0489,-0.40915 0.10875,-0.26397 0.0598,0.14519 0.0598,0.38276 0,0.52795 -0.0598,0.14518 -0.10875,0.0264 -0.10875,-0.26398 z m -5.97337,-2.79809 -0.85228,-0.89751 0.91633,0.83477 c 0.85217,0.77634 1.0154,0.96024 0.85228,0.96024 -0.0352,0 -0.44758,-0.40388 -0.91633,-0.8975 z m -38.421753,-1.7822 c 0.207521,-0.0531 0.547102,-0.0531 0.754623,0 0.207522,0.0531 0.03773,0.0966 -0.377311,0.0966 -0.415043,0 -0.584834,-0.0435 -0.377312,-0.0966 z m 8.193053,0 c 0.20752,-0.0531 0.5471,-0.0531 0.75463,0 0.20752,0.0531 0.0377,0.0966 -0.37732,0.0966 -0.41504,0 -0.58483,-0.0435 -0.37731,-0.0966 z M 90.108231,153.5616 c 0.155642,-0.061 0.341602,-0.0535 0.413247,0.0167 0.07164,0.0702 -0.0557,0.12008 -0.282984,0.11091 -0.25117,-0.0101 -0.302259,-0.0602 -0.130263,-0.12758 z m -2.371673,-0.21118 c 0.155641,-0.061 0.341601,-0.0535 0.413246,0.0167 0.07164,0.0702 -0.0557,0.12008 -0.282984,0.11092 -0.25117,-0.0101 -0.302259,-0.0602 -0.130262,-0.12759 z m -3.449708,-0.42236 c 0.155641,-0.061 0.341602,-0.0535 0.413246,0.0167 0.07165,0.0702 -0.0557,0.12008 -0.282984,0.11091 -0.251169,-0.0101 -0.302259,-0.0602 -0.130262,-0.12759 z m 10.762052,-3.17581 c 0.382752,-0.0466 1.061913,-0.0474 1.509247,-0.002 0.447333,0.0457 0.134173,0.0839 -0.695913,0.0848 -0.830086,9.3e-4 -1.196087,-0.0365 -0.813334,-0.0831 z m 4.640353,-0.001 c 0.444685,-0.0456 1.172365,-0.0456 1.617055,0 0.44468,0.0456 0.0808,0.0828 -0.80853,0.0828 -0.889378,0 -1.253214,-0.0373 -0.808525,-0.0828 z m -8.934203,-0.2016 c 0.155641,-0.061 0.341601,-0.0535 0.413246,0.0167 0.07164,0.0702 -0.0557,0.12008 -0.282984,0.11091 -0.25117,-0.0101 -0.302259,-0.0602 -0.130262,-0.12758 z m 14.432178,0.004 c 0.14823,-0.0586 0.39078,-0.0586 0.53901,0 0.14823,0.0586 0.0269,0.10651 -0.26951,0.10651 -0.29645,0 -0.41773,-0.0479 -0.2695,-0.10651 z m -16.803852,-0.21558 c 0.155641,-0.061 0.341602,-0.0535 0.413246,0.0167 0.07164,0.0702 -0.0557,0.12009 -0.282984,0.11092 -0.251169,-0.0101 -0.302259,-0.0602 -0.130262,-0.12759 z m 19.404602,0 c 0.15564,-0.061 0.3416,-0.0535 0.41325,0.0167 0.0716,0.0702 -0.0557,0.12009 -0.28299,0.11092 -0.25116,-0.0101 -0.30225,-0.0602 -0.13026,-0.12759 z m -17.895355,-1.26706 c 0.155641,-0.061 0.341602,-0.0535 0.413246,0.0167 0.07164,0.0702 -0.0557,0.12008 -0.282984,0.11091 -0.251169,-0.0101 -0.302259,-0.0602 -0.130262,-0.12758 z m 19.620215,0 c 0.15564,-0.061 0.3416,-0.0535 0.41324,0.0167 0.0717,0.0702 -0.0557,0.12008 -0.28298,0.11091 -0.25117,-0.0101 -0.30226,-0.0602 -0.13026,-0.12758 z m -17.248541,-0.21118 c 0.155641,-0.061 0.341601,-0.0535 0.413246,0.0167 0.07164,0.0702 -0.0557,0.12009 -0.282984,0.11092 -0.25117,-0.0101 -0.302259,-0.0602 -0.130262,-0.12759 z m 14.876861,0 c 0.15564,-0.061 0.3416,-0.0535 0.41325,0.0167 0.0716,0.0702 -0.0557,0.12009 -0.28299,0.11092 -0.25116,-0.0101 -0.30225,-0.0602 -0.13026,-0.12759 z m -10.901613,-0.21818 c 0.326106,-0.0484 0.859732,-0.0484 1.185837,0 0.326106,0.0484 0.05929,0.088 -0.592918,0.088 -0.65221,0 -0.919024,-0.0396 -0.592919,-0.088 z m 6.148653,-0.002 c 0.38752,-0.047 0.96966,-0.046 1.29364,0.002 0.32398,0.0482 0.007,0.0866 -0.70458,0.0855 -0.7115,-0.001 -0.97658,-0.0406 -0.58906,-0.0876 z m -38.355457,-1.90593 c -0.268187,-0.33494 -0.260561,-0.34241 0.0814,-0.0797 0.207522,0.15941 0.377312,0.32571 0.377312,0.36956 0,0.17381 -0.177053,0.0619 -0.458715,-0.28983 z m -1.29364,-1.05588 c -0.268187,-0.33494 -0.260561,-0.34241 0.0814,-0.0797 0.207522,0.15941 0.377312,0.32571 0.377312,0.36957 0,0.1738 -0.177053,0.0619 -0.458715,-0.28983 z m 26.506702,-0.61941 c 0.155641,-0.061 0.341601,-0.0535 0.413246,0.0167 0.07164,0.0702 -0.0557,0.12008 -0.282984,0.11092 -0.25117,-0.0101 -0.302259,-0.0602 -0.130262,-0.12759 z m 44.671015,0.0645 c 0,-0.0439 0.16979,-0.21016 0.37731,-0.36956 0.34197,-0.26268 0.34959,-0.25521 0.0814,0.0797 -0.28167,0.35176 -0.45872,0.46363 -0.45872,0.28983 z m -42.299342,-0.27571 c 0.155642,-0.061 0.341602,-0.0535 0.413247,0.0167 0.07164,0.0702 -0.0557,0.12009 -0.282984,0.11092 -0.25117,-0.0101 -0.302259,-0.0602 -0.130263,-0.12759 z m 3.548139,-0.21326 c 0.209779,-0.0535 0.500848,-0.05 0.64682,0.008 0.145973,0.0579 -0.02566,0.10166 -0.381415,0.0974 -0.355751,-0.004 -0.475183,-0.0516 -0.265405,-0.10517 z m 9.055483,0 c 0.20978,-0.0535 0.50085,-0.05 0.64682,0.008 0.14597,0.0579 -0.0257,0.10166 -0.38142,0.0974 -0.35575,-0.004 -0.47518,-0.0516 -0.2654,-0.10517 z m 26.46162,-2.04516 c 0,-0.0438 0.16979,-0.21016 0.37731,-0.36956 0.34197,-0.26268 0.34959,-0.25521 0.0814,0.0797 -0.28167,0.35177 -0.45872,0.46363 -0.45872,0.28983 z m 5.6228,-2.36641 c 0.0103,-0.24601 0.0614,-0.29605 0.13026,-0.12758 0.0623,0.15244 0.0546,0.33458 -0.017,0.40475 -0.0717,0.0702 -0.1226,-0.0545 -0.11324,-0.27717 z m 0,-1.26706 c 0.0103,-0.24601 0.0614,-0.29605 0.13026,-0.12759 0.0623,0.15245 0.0546,0.33459 -0.017,0.40476 -0.0717,0.0702 -0.1226,-0.0546 -0.11324,-0.27717 z m -71.167242,-2.05467 c 0,-0.0363 0.315325,-0.34519 0.700722,-0.68632 l 0.700722,-0.62025 -0.633257,0.68633 c -0.590284,0.63975 -0.768187,0.78339 -0.768187,0.62024 z M 94.7303,135.39904 c 0.207522,-0.0531 0.547102,-0.0531 0.754624,0 0.207521,0.0531 0.03773,0.0966 -0.377312,0.0966 -0.415043,0 -0.584833,-0.0435 -0.377312,-0.0966 z m 6.2526,0 c 0.20752,-0.0531 0.5471,-0.0531 0.75462,0 0.20752,0.0531 0.0377,0.0966 -0.37731,0.0966 -0.41505,0 -0.58484,-0.0435 -0.37731,-0.0966 z m -38.216296,-2.9165 c 0.402276,-0.40652 0.779922,-0.73912 0.839214,-0.73912 0.05929,0 -0.221331,0.3326 -0.623607,0.73912 -0.402275,0.40651 -0.779921,0.73912 -0.839213,0.73912 -0.05929,0 0.221331,-0.33261 0.623606,-0.73912 z m 70.691506,-0.0528 c -0.26819,-0.33493 -0.26056,-0.3424 0.0814,-0.0797 0.35915,0.27588 0.47336,0.44929 0.29591,0.44929 -0.0448,0 -0.21456,-0.1663 -0.37731,-0.36956 z m -24.8077,-4.63177 c 0.15564,-0.061 0.3416,-0.0535 0.41325,0.0167 0.0716,0.0702 -0.0557,0.12008 -0.28299,0.11092 -0.25117,-0.0101 -0.30226,-0.0602 -0.13026,-0.12759 z m -18.973392,-0.21118 c 0.155641,-0.061 0.341602,-0.0535 0.413246,0.0167 0.07164,0.0702 -0.0557,0.12009 -0.282984,0.11092 -0.251169,-0.0101 -0.302259,-0.0602 -0.130262,-0.12759 z m 16.601722,0 c 0.15564,-0.061 0.3416,-0.0535 0.41324,0.0167 0.0717,0.0702 -0.0557,0.12009 -0.28298,0.11092 -0.25117,-0.0101 -0.30226,-0.0602 -0.13026,-0.12759 z m -13.484797,-0.21326 c 0.209779,-0.0535 0.500848,-0.05 0.646821,0.008 0.145972,0.0579 -0.02567,0.10166 -0.381416,0.0974 -0.355751,-0.004 -0.475183,-0.0516 -0.265405,-0.10517 z m 10.133517,0 c 0.20978,-0.0535 0.50085,-0.05 0.64682,0.008 0.14597,0.0579 -0.0257,0.10166 -0.38142,0.0974 -0.35575,-0.004 -0.47518,-0.0516 -0.2654,-0.10517 z m -13.897262,-3.79911 c 0.155641,-0.061 0.341602,-0.0535 0.413246,0.0167 0.07164,0.0702 -0.0557,0.12008 -0.282984,0.11091 -0.251169,-0.0101 -0.302259,-0.0602 -0.130262,-0.12759 z m 2.901319,-0.21326 c 0.209778,-0.0535 0.500847,-0.05 0.64682,0.008 0.145972,0.0578 -0.02566,0.10165 -0.381416,0.0974 -0.355751,-0.004 -0.475183,-0.0516 -0.265404,-0.10518 z m 12.073973,0 c 0.20978,-0.0535 0.50085,-0.05 0.64682,0.008 0.14598,0.0578 -0.0257,0.10165 -0.38141,0.0974 -0.35575,-0.004 -0.47519,-0.0516 -0.26541,-0.10518 z M 53.172105,109.5698 c 0.214634,-0.23229 0.438755,-0.42235 0.498047,-0.42235 0.05929,0 -0.06781,0.19006 -0.28244,0.42235 -0.214633,0.2323 -0.438754,0.42236 -0.498046,0.42236 -0.05929,0 0.06781,-0.19006 0.282439,-0.42236 z m 55.047095,-7.74664 c 0.15564,-0.061 0.3416,-0.0535 0.41324,0.0167 0.0716,0.0702 -0.0557,0.12008 -0.28298,0.11091 -0.25117,-0.0101 -0.30226,-0.0602 -0.13026,-0.12759 z M 96.670761,101.3995 c 0.207521,-0.0531 0.547102,-0.0531 0.754623,0 0.207522,0.0531 0.03773,0.0966 -0.377311,0.0966 -0.415043,0 -0.584834,-0.0435 -0.377312,-0.0966 z m 2.371674,0 c 0.207521,-0.0531 0.547102,-0.0531 0.754623,0 0.207522,0.0531 0.03773,0.0966 -0.377311,0.0966 -0.415043,0 -0.584834,-0.0435 -0.377312,-0.0966 z M 86.874131,97.810796 c 0.155641,-0.061 0.341602,-0.0535 0.413246,0.01667 0.07164,0.07017 -0.0557,0.120083 -0.282984,0.110914 -0.25117,-0.01013 -0.302259,-0.06017 -0.130262,-0.127586 z m 22.423099,0 c 0.15564,-0.061 0.3416,-0.0535 0.41325,0.01667 0.0716,0.07017 -0.0557,0.120083 -0.28299,0.110914 -0.25117,-0.01013 -0.30226,-0.06017 -0.13026,-0.127586 z M 89.892625,97.599618 c 0.155641,-0.061 0.341602,-0.0535 0.413246,0.01667 0.07164,0.07017 -0.0557,0.120084 -0.282984,0.110915 -0.251169,-0.01013 -0.302259,-0.06017 -0.130262,-0.127587 z m 16.386115,0 c 0.15564,-0.061 0.3416,-0.0535 0.41324,0.01667 0.0717,0.07017 -0.0557,0.120084 -0.28298,0.110915 -0.25117,-0.01013 -0.30226,-0.06017 -0.13026,-0.127587 z M 94.7303,97.387129 c 0.207522,-0.05312 0.547102,-0.05312 0.754624,0 0.207521,0.05312 0.03773,0.09658 -0.377312,0.09658 -0.415043,0 -0.584833,-0.04346 -0.377312,-0.09658 z m 6.2526,0 c 0.20752,-0.05312 0.5471,-0.05312 0.75462,0 0.20752,0.05312 0.0377,0.09658 -0.37731,0.09658 -0.41505,0 -0.58484,-0.04346 -0.37731,-0.09658 z"
         id="path7" /><path
         style="fill:#dea0a0"
         d="m 98.727474,200.00829 c 0.745795,-0.0414 1.910076,-0.041 2.587276,7.5e-4 0.67721,0.0418 0.067,0.0756 -1.355987,0.0752 -1.423004,-4.2e-4 -1.977084,-0.0346 -1.231289,-0.076 z m -6.476651,-0.19447 c 0.14823,-0.0586 0.390787,-0.0586 0.539017,0 0.14823,0.0586 0.02695,0.10651 -0.269508,0.10651 -0.29646,0 -0.417738,-0.0479 -0.269509,-0.10651 z m 14.890337,-0.004 c 0.15564,-0.061 0.3416,-0.0535 0.41325,0.0167 0.0716,0.0702 -0.0557,0.12009 -0.28299,0.11092 -0.25116,-0.0101 -0.30225,-0.0602 -0.13026,-0.12759 z m -17.464142,-0.21118 c 0.155641,-0.061 0.341602,-0.0535 0.413246,0.0167 0.07164,0.0702 -0.0557,0.12009 -0.282984,0.11092 -0.251169,-0.0101 -0.302259,-0.0602 -0.130262,-0.12759 z m 20.037952,0.004 c 0.14823,-0.0586 0.39078,-0.0586 0.53901,0 0.14823,0.0586 0.027,0.10652 -0.2695,0.10652 -0.29646,0 -0.41774,-0.0479 -0.26951,-0.10652 z m -25.859333,-0.63793 c 0.155641,-0.061 0.341601,-0.0535 0.413246,0.0167 0.07164,0.0702 -0.0557,0.12009 -0.282984,0.11092 -0.25117,-0.0101 -0.302259,-0.0602 -0.130262,-0.12759 z m 14.647781,-2.96858 c 0.741148,-0.0412 1.953932,-0.0412 2.695082,0 0.74115,0.0412 0.13476,0.075 -1.34754,0.075 -1.482296,0 -2.08869,-0.0337 -1.347542,-0.075 z m -6.239119,-0.19908 c 0.155641,-0.061 0.341601,-0.0535 0.413246,0.0167 0.07164,0.0702 -0.0557,0.12009 -0.282984,0.11092 -0.25117,-0.0101 -0.302259,-0.0602 -0.130262,-0.12759 z m 15.092471,0 c 0.15564,-0.061 0.3416,-0.0535 0.41325,0.0167 0.0716,0.0702 -0.0557,0.12009 -0.28299,0.11092 -0.25117,-0.0101 -0.30226,-0.0602 -0.13026,-0.12759 z m -17.679752,-0.21118 c 0.155641,-0.061 0.341602,-0.0535 0.413246,0.0167 0.07164,0.0702 -0.0557,0.12008 -0.282984,0.11091 -0.251169,-0.0101 -0.302259,-0.0602 -0.130262,-0.12759 z m 20.267032,0 c 0.15564,-0.061 0.3416,-0.0535 0.41325,0.0167 0.0716,0.0702 -0.0557,0.12008 -0.28299,0.11091 -0.25117,-0.0101 -0.30226,-0.0602 -0.13026,-0.12759 z m 3.88092,-0.42235 c 0.15564,-0.061 0.3416,-0.0535 0.41325,0.0167 0.0716,0.0702 -0.0557,0.12009 -0.28299,0.11092 -0.25117,-0.0101 -0.30226,-0.0602 -0.13026,-0.12759 z m -31.262974,-0.42236 c 0.155641,-0.061 0.341602,-0.0535 0.413246,0.0167 0.07165,0.0702 -0.0557,0.12008 -0.282983,0.11091 -0.25117,-0.0101 -0.302259,-0.0602 -0.130263,-0.12759 z m 34.497074,0 c 0.15564,-0.061 0.3416,-0.0535 0.41325,0.0167 0.0716,0.0702 -0.0557,0.12008 -0.28299,0.11091 -0.25117,-0.0101 -0.30226,-0.0602 -0.13026,-0.12759 z m -58.200888,-8.67239 c -0.268187,-0.33494 -0.260561,-0.34241 0.0814,-0.0797 0.207522,0.15941 0.377312,0.32571 0.377312,0.36956 0,0.17381 -0.177053,0.0619 -0.458715,-0.28983 z m -2.758364,-5.03306 c 0.01035,-0.24601 0.06144,-0.29605 0.130262,-0.12758 0.06228,0.15244 0.05462,0.33458 -0.01702,0.40475 -0.07164,0.0702 -0.122602,-0.0546 -0.11324,-0.27717 z m 85.120132,-4.68109 c -0.26819,-0.33494 -0.26056,-0.34241 0.0814,-0.0797 0.35915,0.27587 0.47336,0.44929 0.29591,0.44929 -0.0448,0 -0.21456,-0.1663 -0.37731,-0.36956 z m -82.44207,-0.26397 c 0.214634,-0.2323 0.438754,-0.42236 0.498046,-0.42236 0.05929,0 -0.06781,0.19006 -0.282439,0.42236 -0.214634,0.23229 -0.438755,0.42235 -0.498046,0.42235 -0.05929,0 0.06781,-0.19006 0.282439,-0.42235 z m 26.587004,-9.22489 c 0.155641,-0.061 0.341601,-0.0535 0.413246,0.0167 0.07164,0.0702 -0.0557,0.12008 -0.282984,0.11091 -0.25117,-0.0101 -0.302259,-0.0602 -0.130262,-0.12759 z m 28.891296,0 c 0.15565,-0.061 0.34161,-0.0535 0.41325,0.0167 0.0716,0.0702 -0.0557,0.12008 -0.28298,0.11091 -0.25117,-0.0101 -0.30226,-0.0602 -0.13027,-0.12759 z m -25.239458,-0.41795 c 0.14823,-0.0586 0.390788,-0.0586 0.539017,0 0.14823,0.0586 0.02695,0.10651 -0.269508,0.10651 -0.296459,0 -0.417738,-0.0479 -0.269509,-0.10651 z m 21.345068,0 c 0.14823,-0.0586 0.39078,-0.0586 0.53901,0 0.14823,0.0586 0.027,0.10651 -0.2695,0.10651 -0.29646,0 -0.41774,-0.0479 -0.26951,-0.10651 z m -18.54218,-0.21118 c 0.148229,-0.0586 0.390787,-0.0586 0.539017,0 0.148229,0.0586 0.02695,0.10652 -0.269509,0.10652 -0.296459,0 -0.417738,-0.0479 -0.269508,-0.10652 z m 15.52368,0 c 0.14823,-0.0586 0.39079,-0.0586 0.53902,0 0.14823,0.0586 0.0269,0.10652 -0.26951,0.10652 -0.29646,0 -0.41774,-0.0479 -0.26951,-0.10652 z m -10.564726,-0.22408 c 0.385397,-0.0469 1.016047,-0.0469 1.401444,0 0.385397,0.0468 0.07007,0.0852 -0.700722,0.0852 -0.770794,0 -1.086119,-0.0383 -0.700722,-0.0852 z m 5.178426,-2.8e-4 c 0.38752,-0.047 0.96966,-0.046 1.29364,0.002 0.32398,0.0482 0.007,0.0866 -0.70459,0.0855 -0.7115,-0.001 -0.97657,-0.0406 -0.58905,-0.0876 z m -12.711185,-3.58123 c 0.155641,-0.061 0.341601,-0.0535 0.413246,0.0167 0.07164,0.0702 -0.0557,0.12009 -0.282984,0.11092 -0.25117,-0.0101 -0.302259,-0.0602 -0.130262,-0.12759 z m 20.900375,0.004 c 0.14823,-0.0586 0.39079,-0.0586 0.53902,0 0.14823,0.0586 0.0269,0.10652 -0.26951,0.10652 -0.29646,0 -0.41774,-0.0479 -0.26951,-0.10652 z m -17.881881,-0.21558 c 0.155641,-0.061 0.341601,-0.0535 0.413246,0.0167 0.07164,0.0702 -0.0557,0.12008 -0.282984,0.11091 -0.25117,-0.0101 -0.302259,-0.0602 -0.130262,-0.12759 z m 14.863391,0.004 c 0.14823,-0.0586 0.39078,-0.0586 0.53901,0 0.14823,0.0586 0.0269,0.10652 -0.2695,0.10652 -0.29646,0 -0.41774,-0.0479 -0.26951,-0.10652 z m -8.400216,-0.22788 c 0.745795,-0.0414 1.910076,-0.041 2.587276,7.5e-4 0.67721,0.0418 0.067,0.0756 -1.355987,0.0752 -1.423004,-4.2e-4 -1.977084,-0.0346 -1.231289,-0.076 z M 97.00262,135.38804 c 0.745795,-0.0414 1.910072,-0.041 2.587281,7.6e-4 0.677209,0.0418 0.06701,0.0756 -1.355991,0.0752 -1.423005,-4.2e-4 -1.977085,-0.0346 -1.23129,-0.076 z m -6.476651,-0.19447 c 0.14823,-0.0586 0.390788,-0.0586 0.539017,0 0.14823,0.0586 0.02695,0.10652 -0.269508,0.10652 -0.296459,0 -0.417738,-0.0479 -0.269509,-0.10652 z m 14.890341,-0.004 c 0.15564,-0.061 0.3416,-0.0535 0.41324,0.0167 0.0717,0.0702 -0.0557,0.12008 -0.28298,0.11091 -0.25117,-0.0101 -0.30226,-0.0602 -0.13026,-0.12759 z M 87.952164,134.978 c 0.155641,-0.061 0.341602,-0.0535 0.413246,0.0167 0.07165,0.0702 -0.0557,0.12008 -0.282983,0.11091 -0.25117,-0.0101 -0.302259,-0.0602 -0.130263,-0.12758 z m 20.037946,0.004 c 0.14823,-0.0586 0.39079,-0.0586 0.53902,0 0.14823,0.0586 0.0269,0.10651 -0.26951,0.10651 -0.29646,0 -0.41774,-0.0479 -0.26951,-0.10651 z m -25.859327,-0.63794 c 0.155641,-0.061 0.341602,-0.0535 0.413246,0.0167 0.07164,0.0702 -0.0557,0.12008 -0.282984,0.11091 -0.251169,-0.0101 -0.302259,-0.0602 -0.130262,-0.12759 z m 14.549832,-2.96936 c 0.924444,-0.0397 2.379789,-0.0394 3.234101,5.3e-4 0.854314,0.04 0.09795,0.0725 -1.680806,0.0721 -1.778756,-2.9e-4 -2.477738,-0.033 -1.553295,-0.0727 z m -6.356777,-0.19829 c 0.155641,-0.061 0.341602,-0.0535 0.413246,0.0167 0.07165,0.0702 -0.0557,0.12008 -0.282983,0.11091 -0.25117,-0.0101 -0.302259,-0.0602 -0.130263,-0.12758 z m 15.294602,0.004 c 0.14823,-0.0586 0.39079,-0.0586 0.53902,0 0.14823,0.0586 0.0269,0.10652 -0.26951,0.10652 -0.29646,0 -0.41774,-0.0479 -0.26951,-0.10652 z m -17.881882,-0.21557 c 0.155641,-0.061 0.341601,-0.0535 0.413246,0.0167 0.07164,0.0702 -0.0557,0.12008 -0.282984,0.11091 -0.25117,-0.0101 -0.302259,-0.0602 -0.130262,-0.12758 z m 20.469162,0.004 c 0.14823,-0.0586 0.39079,-0.0586 0.53902,0 0.14823,0.0586 0.027,0.10651 -0.26951,0.10651 -0.29646,0 -0.41774,-0.0479 -0.26951,-0.10651 z m -51.173179,-9.62709 -0.410728,-0.47515 0.485115,0.40229 c 0.455889,0.37805 0.583268,0.54801 0.410728,0.54801 -0.04091,0 -0.259215,-0.21382 -0.485115,-0.47515 z m -2.632566,-4.90987 c 0.0044,-0.34845 0.05271,-0.46543 0.107381,-0.25996 0.05466,0.20547 0.05107,0.49056 -0.008,0.63353 -0.05906,0.14298 -0.103786,-0.0251 -0.09939,-0.37357 z m 2.221838,-4.54032 c 0.463175,-0.46459 0.890649,-0.84471 0.949941,-0.84471 0.05929,0 -0.271159,0.38012 -0.734334,0.84471 -0.463176,0.46459 -0.890649,0.84471 -0.949941,0.84471 -0.05929,0 0.271158,-0.38012 0.734334,-0.84471 z m 82.995027,-0.0528 -0.63326,-0.68633 0.70072,0.62025 c 0.3854,0.34114 0.70072,0.64998 0.70072,0.68633 0,0.16314 -0.1779,0.0195 -0.76818,-0.62025 z m -52.540578,-10.0124 c 0.14823,-0.0586 0.390787,-0.0586 0.539017,0 0.148229,0.0586 0.02695,0.10652 -0.269509,0.10652 -0.296459,0 -0.417738,-0.0479 -0.269508,-0.10652 z m 21.789758,-0.004 c 0.15564,-0.061 0.3416,-0.0535 0.41324,0.0167 0.0717,0.0702 -0.0557,0.12008 -0.28298,0.11091 -0.25117,-0.0101 -0.30226,-0.0602 -0.13026,-0.12759 z m -18.771264,-0.20677 c 0.14823,-0.0586 0.390787,-0.0586 0.539017,0 0.148229,0.0586 0.02695,0.10651 -0.269509,0.10651 -0.296459,0 -0.417738,-0.0479 -0.269508,-0.10651 z m 15.739294,0 c 0.14823,-0.0586 0.39078,-0.0586 0.53901,0 0.14823,0.0586 0.0269,0.10651 -0.26951,0.10651 -0.29645,0 -0.41773,-0.0479 -0.2695,-0.10651 z m -11.207692,-0.22437 c 0.387521,-0.047 0.969659,-0.046 1.293641,0.002 0.323981,0.0482 0.0069,0.0866 -0.704583,0.0854 -0.711503,-0.001 -0.976578,-0.0406 -0.589058,-0.0876 z m 5.925322,0.002 c 0.32611,-0.0484 0.85973,-0.0484 1.18584,0 0.3261,0.0484 0.0593,0.088 -0.59292,0.088 -0.65221,0 -0.91902,-0.0396 -0.59292,-0.088 z M 87.520951,97.810796 c 0.155641,-0.061 0.341602,-0.0535 0.413246,0.01667 0.07164,0.07017 -0.0557,0.120083 -0.282984,0.110914 -0.251169,-0.01013 -0.302259,-0.06017 -0.130262,-0.127586 z m 20.900379,0.0044 c 0.14823,-0.05858 0.39078,-0.05858 0.53901,0 0.14823,0.05858 0.0269,0.106515 -0.2695,0.106515 -0.29646,0 -0.41774,-0.04793 -0.26951,-0.106515 z M 90.539445,97.599618 c 0.155641,-0.061 0.341602,-0.0535 0.413246,0.01667 0.07164,0.07017 -0.0557,0.120084 -0.282984,0.110915 -0.251169,-0.01013 -0.302259,-0.06017 -0.130262,-0.127587 z m 14.863385,0.0044 c 0.14823,-0.05858 0.39079,-0.05858 0.53902,0 0.14823,0.05858 0.0269,0.106515 -0.26951,0.106515 -0.29646,0 -0.41774,-0.04793 -0.26951,-0.106515 z m -8.40021,-0.227889 c 0.745795,-0.04135 1.910072,-0.04101 2.587281,7.6e-4 0.677209,0.04177 0.06701,0.07561 -1.355991,0.07519 -1.423005,-4.17e-4 -1.977085,-0.03459 -1.23129,-0.07595 z"
         id="path6" /><path
         style="fill:#b0b0b0"
         d="m 94.625011,174.04069 c 0.268196,-0.0505 0.656288,-0.0486 0.862427,0.004 0.206139,0.0529 -0.01329,0.0942 -0.487629,0.0918 -0.474335,-0.002 -0.642994,-0.0456 -0.374798,-0.0961 z m 9.699789,3.3e-4 c 0.26681,-0.0503 0.70342,-0.0503 0.97023,0 0.26681,0.0503 0.0485,0.0915 -0.48512,0.0915 -0.53362,0 -0.75192,-0.0412 -0.48511,-0.0915 z m -12.922928,-0.20641 c 0.155641,-0.061 0.341602,-0.0535 0.413246,0.0167 0.07164,0.0702 -0.0557,0.12008 -0.282984,0.11091 -0.251169,-0.0101 -0.302259,-0.0602 -0.130262,-0.12759 z m 16.588238,0.004 c 0.14823,-0.0586 0.39079,-0.0586 0.53902,0 0.14823,0.0586 0.0269,0.10652 -0.26951,0.10652 -0.29646,0 -0.41774,-0.0479 -0.26951,-0.10652 z m -18.973388,-0.21117 c 0.14823,-0.0586 0.390788,-0.0586 0.539017,0 0.14823,0.0586 0.02695,0.10651 -0.269508,0.10651 -0.296459,0 -0.417738,-0.0479 -0.269509,-0.10651 z m 21.345068,0 c 0.14823,-0.0586 0.39078,-0.0586 0.53901,0 0.14823,0.0586 0.027,0.10651 -0.2695,0.10651 -0.29646,0 -0.41774,-0.0479 -0.26951,-0.10651 z m 1.73833,-0.21558 c 0.15564,-0.061 0.3416,-0.0535 0.41324,0.0167 0.0716,0.0702 -0.0557,0.12009 -0.28298,0.11092 -0.25117,-0.0101 -0.30226,-0.0602 -0.13026,-0.12759 z m -26.304023,-0.21118 c 0.155641,-0.061 0.341602,-0.0535 0.413246,0.0167 0.07164,0.0702 -0.0557,0.12009 -0.282984,0.11092 -0.251169,-0.0101 -0.302258,-0.0602 -0.130262,-0.12759 z m 28.028873,0 c 0.15564,-0.061 0.3416,-0.0535 0.41325,0.0167 0.0716,0.0702 -0.0557,0.12009 -0.28299,0.11092 -0.25117,-0.0101 -0.30226,-0.0602 -0.13026,-0.12759 z m 2.37167,-0.42235 c 0.15565,-0.061 0.34161,-0.0535 0.41325,0.0167 0.0716,0.0702 -0.0557,0.12008 -0.28298,0.11091 -0.25117,-0.0101 -0.30226,-0.0602 -0.13027,-0.12758 z m -22.002843,-2.75041 c 0.268196,-0.0505 0.656288,-0.0486 0.862427,0.004 0.206139,0.0529 -0.01329,0.0942 -0.487629,0.0918 -0.474334,-0.002 -0.642993,-0.0456 -0.374798,-0.0961 z m 10.995943,0 c 0.2682,-0.0505 0.65629,-0.0486 0.86243,0.004 0.20614,0.0529 -0.0133,0.0942 -0.48763,0.0918 -0.47434,-0.002 -0.643,-0.0456 -0.3748,-0.0961 z m -14.01695,-0.20167 c 0.148229,-0.0586 0.390787,-0.0586 0.539016,0 0.14823,0.0586 0.02695,0.10651 -0.269508,0.10651 -0.296459,0 -0.417738,-0.0479 -0.269508,-0.10651 z m 17.14484,-0.006 c 0.20978,-0.0535 0.50084,-0.05 0.64682,0.008 0.14597,0.0578 -0.0257,0.10165 -0.38142,0.0974 -0.35575,-0.004 -0.47518,-0.0516 -0.2654,-0.10518 z m -19.287432,-0.20909 c 0.155641,-0.061 0.341602,-0.0535 0.413246,0.0167 0.07164,0.0702 -0.0557,0.12008 -0.282984,0.11092 -0.251169,-0.0101 -0.302259,-0.0602 -0.130262,-0.12759 z m 21.560672,0 c 0.15564,-0.061 0.3416,-0.0535 0.41325,0.0167 0.0716,0.0702 -0.0557,0.12008 -0.28299,0.11092 -0.25117,-0.0101 -0.30226,-0.0602 -0.13026,-0.12759 z m -23.069919,-0.21118 c 0.155641,-0.061 0.341602,-0.0535 0.413246,0.0167 0.07164,0.0702 -0.0557,0.12009 -0.282984,0.11092 -0.251169,-0.0101 -0.302259,-0.0602 -0.130262,-0.12759 z m 24.794769,0 c 0.15564,-0.061 0.34161,-0.0535 0.41325,0.0167 0.0716,0.0702 -0.0557,0.12009 -0.28298,0.11092 -0.25117,-0.0101 -0.30226,-0.0602 -0.13027,-0.12759 z m 3.88092,-0.63353 c 0.15565,-0.061 0.34161,-0.0535 0.41325,0.0167 0.0716,0.0702 -0.0557,0.12009 -0.28298,0.11092 -0.25117,-0.0101 -0.30226,-0.0602 -0.13027,-0.12759 z m -48.698295,-6.56062 -0.743016,-0.79192 0.808525,0.72776 c 0.752558,0.67737 0.907658,0.85607 0.743017,0.85607 -0.03603,0 -0.399866,-0.35636 -0.808526,-0.79191 z m -5.792753,-2.92129 c 0.01035,-0.24601 0.06143,-0.29605 0.130263,-0.12758 0.06228,0.15244 0.05462,0.33458 -0.01702,0.40475 -0.07164,0.0702 -0.122603,-0.0546 -0.113241,-0.27717 z m 0.01702,-0.9327 c 0,-0.29036 0.04894,-0.40915 0.108749,-0.26397 0.05981,0.14519 0.05981,0.38276 0,0.52795 -0.05981,0.14518 -0.108749,0.0264 -0.108749,-0.26398 z m 33.768009,-4.58962 c 0.507115,-0.0446 1.2833,-0.044 1.724854,10e-4 0.441554,0.0454 0.02664,0.0819 -0.922028,0.0811 -0.948669,-7.7e-4 -1.309941,-0.0379 -0.802826,-0.0825 z m 3.767419,10e-4 c 0.444688,-0.0456 1.17236,-0.0456 1.61705,0 0.44469,0.0456 0.0808,0.0828 -0.80852,0.0828 -0.889383,0 -1.253219,-0.0373 -0.80853,-0.0828 z m -8.516466,-0.1972 c 0.14823,-0.0586 0.390787,-0.0586 0.539017,0 0.14823,0.0586 0.02695,0.10651 -0.269508,0.10651 -0.29646,0 -0.417738,-0.0479 -0.269509,-0.10651 z m 14.341956,-0.006 c 0.20977,-0.0535 0.50084,-0.05 0.64682,0.008 0.14597,0.0578 -0.0257,0.10165 -0.38142,0.0974 -0.35575,-0.004 -0.47518,-0.0516 -0.2654,-0.10518 z m 30.00898,-0.75116 -0.85228,-0.8975 0.91633,0.83477 c 0.85218,0.77633 1.01541,0.96023 0.85228,0.96023 -0.0352,0 -0.44757,-0.40387 -0.91633,-0.8975 z m -27.30453,0.54207 c 0.15564,-0.061 0.3416,-0.0535 0.41325,0.0167 0.0716,0.0702 -0.0557,0.12008 -0.28299,0.11092 -0.25116,-0.0101 -0.30225,-0.0602 -0.13026,-0.12759 z m 1.94046,-0.21118 c 0.15564,-0.061 0.3416,-0.0535 0.41325,0.0167 0.0716,0.0702 -0.0557,0.12009 -0.28298,0.11092 -0.25117,-0.0101 -0.30226,-0.0602 -0.13027,-0.12759 z m -16.072072,-3.38092 c 0.209779,-0.0535 0.500848,-0.05 0.64682,0.008 0.145973,0.0579 -0.02566,0.10166 -0.381415,0.0974 -0.355751,-0.004 -0.475183,-0.0516 -0.265405,-0.10517 z m 8.624272,0 c 0.20978,-0.0535 0.50085,-0.05 0.64682,0.008 0.14597,0.0579 -0.0257,0.10166 -0.38142,0.0974 -0.35575,-0.004 -0.47518,-0.0516 -0.2654,-0.10517 z m 3.78249,-0.20909 c 0.15564,-0.061 0.3416,-0.0535 0.41324,0.0167 0.0716,0.0702 -0.0557,0.12008 -0.28298,0.11091 -0.25117,-0.0101 -0.30226,-0.0602 -0.13026,-0.12758 z m 2.37167,-0.21118 c 0.15564,-0.061 0.3416,-0.0535 0.41325,0.0167 0.0716,0.0702 -0.0557,0.12009 -0.28299,0.11092 -0.25116,-0.0101 -0.30225,-0.0602 -0.13026,-0.12759 z m -23.784116,-0.48927 c 0.07329,-0.11615 0.230276,-0.21118 0.348859,-0.21118 0.118584,0 0.155644,0.095 0.08236,0.21118 -0.07329,0.11614 -0.230276,0.21117 -0.348859,0.21117 -0.118584,0 -0.155643,-0.095 -0.08236,-0.21117 z m 6.966792,-0.98897 c 0.155642,-0.061 0.341602,-0.0535 0.413247,0.0167 0.07164,0.0702 -0.0557,0.12009 -0.282984,0.11092 -0.25117,-0.0101 -0.302259,-0.0602 -0.130263,-0.12759 z m 16.170504,0 c 0.15564,-0.061 0.3416,-0.0535 0.41325,0.0167 0.0716,0.0702 -0.0557,0.12009 -0.28299,0.11092 -0.25116,-0.0101 -0.30225,-0.0602 -0.13026,-0.12759 z m -12.837971,-0.21326 c 0.209778,-0.0536 0.500847,-0.05 0.64682,0.008 0.145972,0.0579 -0.02566,0.10166 -0.381415,0.0974 -0.355752,-0.004 -0.475184,-0.0516 -0.265405,-0.10517 z m 9.374791,0.006 c 0.14823,-0.0586 0.39079,-0.0586 0.53902,0 0.14823,0.0586 0.0269,0.10652 -0.26951,0.10652 -0.29646,0 -0.41774,-0.0479 -0.26951,-0.10652 z m -41.558198,-3.13339 c -0.523715,-0.52266 -0.903697,-0.95029 -0.844405,-0.95029 0.05929,0 0.536297,0.42763 1.060012,0.95029 0.523715,0.52267 0.903698,0.9503 0.844406,0.9503 -0.05929,0 -0.536298,-0.42763 -1.060013,-0.9503 z m 70.072188,0.65939 c 0,-0.0439 0.16979,-0.21015 0.37731,-0.36956 0.34196,-0.26268 0.34959,-0.25521 0.0814,0.0797 -0.28166,0.35177 -0.45871,0.46364 -0.45871,0.28983 z m -42.946167,-1.12041 c 0.155641,-0.061 0.341602,-0.0535 0.413246,0.0167 0.07164,0.0702 -0.0557,0.12008 -0.282984,0.11092 -0.251169,-0.0101 -0.302259,-0.0602 -0.130262,-0.12759 z m 19.835817,0 c 0.15564,-0.061 0.3416,-0.0535 0.41325,0.0167 0.0716,0.0702 -0.0557,0.12008 -0.28298,0.11092 -0.25117,-0.0101 -0.30226,-0.0602 -0.13027,-0.12759 z m -17.477619,-0.20678 c 0.14823,-0.0586 0.390787,-0.0586 0.539017,0 0.14823,0.0586 0.02695,0.10652 -0.269508,0.10652 -0.29646,0 -0.417738,-0.0479 -0.269509,-0.10652 z m 15.105949,-0.004 c 0.15564,-0.061 0.3416,-0.0535 0.41325,0.0167 0.0716,0.0702 -0.0557,0.12009 -0.28299,0.11092 -0.25117,-0.0101 -0.30226,-0.0602 -0.13026,-0.12759 z m -10.798623,-0.21933 c 0.382752,-0.0466 1.061913,-0.0474 1.509247,-0.002 0.447333,0.0457 0.134173,0.0839 -0.695913,0.0848 -0.830086,9.3e-4 -1.196086,-0.0365 -0.813334,-0.0831 z m 5.394983,-3.5e-4 c 0.38539,-0.0469 1.01604,-0.0469 1.40144,0 0.3854,0.0468 0.0701,0.0852 -0.70072,0.0852 -0.7708,0 -1.08612,-0.0383 -0.70072,-0.0852 z m -41.930691,-5.12667 c 0,-0.52266 0.04205,-0.73648 0.09344,-0.47515 0.05139,0.26133 0.05139,0.68897 0,0.9503 -0.05139,0.26133 -0.09344,0.0475 -0.09344,-0.47515 z m 76.283081,0.088 c 0.0103,-0.24601 0.0614,-0.29605 0.13026,-0.12759 0.0623,0.15245 0.0546,0.33459 -0.017,0.40476 -0.0717,0.0702 -0.1226,-0.0546 -0.11324,-0.27717 z m -5.85001,-3.41403 -0.74302,-0.79192 0.80853,0.72776 c 0.44468,0.40026 0.80852,0.75662 0.80852,0.79191 0,0.16126 -0.18245,0.009 -0.87403,-0.72775 z m -41.425314,-7.58826 c 0.155641,-0.061 0.341602,-0.0535 0.413246,0.0167 0.07164,0.0702 -0.0557,0.12009 -0.282984,0.11092 -0.251169,-0.0101 -0.302259,-0.0602 -0.130262,-0.12759 z m 17.895364,0 c 0.15564,-0.061 0.3416,-0.0535 0.41324,0.0167 0.0716,0.0702 -0.0557,0.12009 -0.28298,0.11092 -0.25117,-0.0101 -0.30226,-0.0602 -0.13026,-0.12759 z m -15.209652,-0.21326 c 0.209778,-0.0535 0.500847,-0.05 0.64682,0.008 0.145973,0.0579 -0.02566,0.10166 -0.381415,0.0974 -0.355751,-0.004 -0.475184,-0.0516 -0.265405,-0.10517 z m 12.289582,0 c 0.20978,-0.0535 0.50085,-0.05 0.64682,0.008 0.14598,0.0579 -0.0257,0.10166 -0.38141,0.0974 -0.35575,-0.004 -0.47519,-0.0516 -0.26541,-0.10517 z M 87.305344,123.7856 c 0.155641,-0.061 0.341602,-0.0535 0.413246,0.0167 0.07164,0.0702 -0.0557,0.12009 -0.282984,0.11092 -0.251169,-0.0101 -0.302258,-0.0602 -0.130262,-0.12759 z m 21.560676,0 c 0.15564,-0.061 0.3416,-0.0535 0.41324,0.0167 0.0717,0.0702 -0.0557,0.12009 -0.28298,0.11092 -0.25117,-0.0101 -0.30226,-0.0602 -0.13026,-0.12759 z m -19.189002,-0.21118 c 0.155641,-0.061 0.341602,-0.0535 0.413246,0.0167 0.07164,0.0702 -0.0557,0.12008 -0.282984,0.11091 -0.251169,-0.0101 -0.302259,-0.0602 -0.130262,-0.12759 z m 16.817322,0 c 0.15564,-0.061 0.3416,-0.0535 0.41325,0.0167 0.0716,0.0702 -0.0557,0.12008 -0.28299,0.11091 -0.25117,-0.0101 -0.30225,-0.0602 -0.13026,-0.12759 z m -13.48479,-0.21326 c 0.209778,-0.0535 0.500848,-0.05 0.64682,0.008 0.145973,0.0578 -0.02566,0.10165 -0.381415,0.0974 -0.355751,-0.004 -0.475183,-0.0516 -0.265405,-0.10518 z m 10.02161,0.006 c 0.14823,-0.0586 0.39079,-0.0586 0.53902,0 0.14823,0.0586 0.027,0.10651 -0.26951,0.10651 -0.29646,0 -0.41774,-0.0479 -0.26951,-0.10651 z"
         id="path5" /><path
         style="fill:#8c8c8c"
         d="m 96.342542,174.03764 c 0.382752,-0.0466 1.061913,-0.0474 1.509247,-0.002 0.447334,0.0457 0.134173,0.0839 -0.695913,0.0848 -0.830086,9.4e-4 -1.196086,-0.0365 -0.813334,-0.0831 z m 5.933998,10e-4 c 0.3261,-0.0484 0.85973,-0.0484 1.18583,0 0.32611,0.0484 0.0593,0.088 -0.59292,0.088 -0.65221,0 -0.91902,-0.0396 -0.59291,-0.088 z m -10.241324,-0.19978 c 0.14823,-0.0586 0.390788,-0.0586 0.539017,0 0.14823,0.0586 0.02695,0.10652 -0.269508,0.10652 -0.296459,0 -0.417738,-0.0479 -0.269509,-0.10652 z m 15.321554,-0.004 c 0.15564,-0.061 0.3416,-0.0535 0.41325,0.0167 0.0716,0.0702 -0.0557,0.12008 -0.28299,0.11091 -0.25117,-0.0101 -0.30226,-0.0602 -0.13026,-0.12759 z m -17.464145,-0.21117 c 0.155641,-0.061 0.341602,-0.0535 0.413246,0.0167 0.07164,0.0702 -0.0557,0.12008 -0.282984,0.11091 -0.251169,-0.0101 -0.302259,-0.0602 -0.130262,-0.12758 z m -1.940461,-0.21118 c 0.155641,-0.061 0.341602,-0.0535 0.413246,0.0167 0.07165,0.0702 -0.0557,0.12009 -0.282983,0.11092 -0.25117,-0.0101 -0.302259,-0.0602 -0.130263,-0.12759 z M 98.8347,170.23257 c 0.686187,-0.042 1.75344,-0.0416 2.37167,8.7e-4 0.61824,0.0425 0.0568,0.0769 -1.247607,0.0764 -1.30442,-4.7e-4 -1.810249,-0.0352 -1.124063,-0.0773 z m -5.82515,-0.20123 c 0.209778,-0.0535 0.500848,-0.05 0.64682,0.008 0.145973,0.0579 -0.02566,0.10166 -0.381415,0.0973 -0.355751,-0.004 -0.475183,-0.0516 -0.265405,-0.10517 z m 13.47132,0.006 c 0.14823,-0.0586 0.39078,-0.0586 0.53901,0 0.14823,0.0586 0.0269,0.10652 -0.2695,0.10652 -0.29646,0 -0.41774,-0.0479 -0.26951,-0.10652 z m -15.941425,-0.21557 c 0.155641,-0.061 0.341602,-0.0535 0.413246,0.0167 0.07164,0.0702 -0.0557,0.12008 -0.282984,0.11091 -0.251169,-0.0101 -0.302259,-0.0602 -0.130262,-0.12758 z m 44.132005,-4.50165 c 0.21463,-0.23229 0.43875,-0.42235 0.49804,-0.42235 0.0593,0 -0.0678,0.19006 -0.28244,0.42235 -0.21463,0.2323 -0.43875,0.42236 -0.49804,0.42236 -0.0593,0 0.0678,-0.19006 0.28244,-0.42236 z m 0.75462,-0.71326 c 0,-0.0438 0.16979,-0.21015 0.37731,-0.36956 0.34196,-0.26268 0.34959,-0.25521 0.0814,0.0797 -0.28166,0.35177 -0.45871,0.46364 -0.45871,0.28983 z m -2.91069,-2.66557 c 0.21463,-0.2323 0.43875,-0.42236 0.49804,-0.42236 0.0593,0 -0.0678,0.19006 -0.28244,0.42236 -0.21463,0.23229 -0.43875,0.42235 -0.49804,0.42235 -0.0593,0 0.0678,-0.19006 0.28244,-0.42235 z M 66.863132,156.1739 c 0,-0.0363 0.315325,-0.34519 0.700722,-0.68632 l 0.700722,-0.62025 -0.633257,0.68633 c -0.590284,0.63975 -0.768187,0.78339 -0.768187,0.62024 z m 65.528128,-0.51466 -0.5227,-0.58073 0.59292,0.51196 c 0.3261,0.28157 0.59291,0.54291 0.59291,0.58073 0,0.16563 -0.17459,0.0308 -0.66313,-0.51196 z m -34.30558,-1.88647 c 0.155641,-0.061 0.341602,-0.0535 0.413246,0.0167 0.07165,0.0702 -0.0557,0.12008 -0.282984,0.11091 -0.251169,-0.0101 -0.302259,-0.0602 -0.130262,-0.12759 z m -6.36977,-0.21326 c 0.209778,-0.0535 0.500847,-0.05 0.64682,0.008 0.145973,0.0578 -0.02566,0.10165 -0.381415,0.0974 -0.355751,-0.004 -0.475184,-0.0516 -0.265405,-0.10518 z m 12.39328,0.006 c 0.14823,-0.0586 0.39079,-0.0586 0.53902,0 0.14823,0.0586 0.0269,0.10651 -0.26951,0.10651 -0.29646,0 -0.41774,-0.0479 -0.26951,-0.10651 z m -40.048945,-0.1374 c 0,-0.0363 0.315325,-0.34519 0.700722,-0.68633 l 0.700721,-0.62025 -0.633256,0.68633 c -0.590284,0.63975 -0.768187,0.7834 -0.768187,0.62025 z m 24.740871,-0.0738 c 0.148229,-0.0586 0.390787,-0.0586 0.539016,0 0.14823,0.0586 0.02695,0.10651 -0.269508,0.10651 -0.296459,0 -0.417738,-0.0479 -0.269508,-0.10651 z m -3.651839,-0.42676 c 0.155641,-0.061 0.341602,-0.0535 0.413246,0.0167 0.07164,0.0702 -0.0557,0.12008 -0.282984,0.11091 -0.251169,-0.0101 -0.302259,-0.0602 -0.130262,-0.12759 z m 7.42906,-3.16974 c 0.209778,-0.0535 0.500847,-0.05 0.64682,0.008 0.145973,0.0579 -0.02566,0.10166 -0.381415,0.0974 -0.355751,-0.004 -0.475184,-0.0516 -0.265405,-0.10517 z m 10.780333,0 c 0.20978,-0.0535 0.50085,-0.05 0.64682,0.008 0.14598,0.0579 -0.0257,0.10166 -0.38141,0.0974 -0.35575,-0.004 -0.47519,-0.0516 -0.26541,-0.10517 z m -13.681652,-0.20909 c 0.155641,-0.061 0.341602,-0.0535 0.413246,0.0167 0.07164,0.0702 -0.0557,0.12008 -0.282984,0.11091 -0.251169,-0.0101 -0.302259,-0.0602 -0.130262,-0.12758 z m -3.880921,-0.42236 c 0.155641,-0.061 0.341602,-0.0535 0.413246,0.0167 0.07164,0.0702 -0.0557,0.12008 -0.282984,0.11091 -0.251169,-0.0101 -0.302258,-0.0602 -0.130262,-0.12759 z m 24.794773,-1.05588 c 0.15564,-0.061 0.3416,-0.0535 0.41325,0.0167 0.0716,0.0702 -0.0557,0.12008 -0.28299,0.11091 -0.25117,-0.0101 -0.30226,-0.0602 -0.13026,-0.12758 z m -2.15607,-0.21118 c 0.15564,-0.061 0.3416,-0.0535 0.41325,0.0167 0.0716,0.0702 -0.0557,0.12009 -0.28299,0.11092 -0.25116,-0.0101 -0.30225,-0.0602 -0.13026,-0.12759 z m -14.459123,-0.20678 c 0.14823,-0.0586 0.390787,-0.0586 0.539017,0 0.148229,0.0586 0.02695,0.10652 -0.269509,0.10652 -0.296459,0 -0.417738,-0.0479 -0.269508,-0.10652 z m 11.319353,-0.006 c 0.20752,-0.0531 0.5471,-0.0531 0.75462,0 0.20752,0.0531 0.0377,0.0966 -0.37731,0.0966 -0.41504,0 -0.58483,-0.0435 -0.37731,-0.0966 z m -14.755585,-3.5887 c 0.155641,-0.061 0.341602,-0.0535 0.413246,0.0167 0.07164,0.0702 -0.0557,0.12008 -0.282984,0.11092 -0.251169,-0.0101 -0.302259,-0.0602 -0.130262,-0.12759 z m 18.542175,0 c 0.15564,-0.061 0.3416,-0.0535 0.41325,0.0167 0.0716,0.0702 -0.0557,0.12008 -0.28298,0.11092 -0.25117,-0.0101 -0.30226,-0.0602 -0.13027,-0.12759 z m -15.96837,-0.20678 c 0.14823,-0.0586 0.390787,-0.0586 0.539017,0 0.148229,0.0586 0.02695,0.10652 -0.269509,0.10652 -0.296459,0 -0.417738,-0.0479 -0.269508,-0.10652 z m 13.26392,-0.006 c 0.20977,-0.0536 0.50084,-0.05 0.64682,0.008 0.14597,0.0579 -0.0257,0.10165 -0.38142,0.0973 -0.35575,-0.004 -0.47518,-0.0516 -0.2654,-0.10517 z m -7.011325,-0.2176 c 0.385397,-0.0469 1.016045,-0.0469 1.401445,0 0.3854,0.0468 0.0701,0.0852 -0.70072,0.0852 -0.770797,0 -1.086122,-0.0383 -0.700725,-0.0852 z m 30.670055,-1.18038 c 0,-0.0363 0.31533,-0.34519 0.70072,-0.68633 l 0.70072,-0.62024 -0.63325,0.68632 c -0.59029,0.63975 -0.76819,0.7834 -0.76819,0.62025 z m -64.482727,-0.72584 -0.522698,-0.58073 0.592918,0.51196 c 0.326106,0.28157 0.592919,0.54291 0.592919,0.58073 0,0.16563 -0.174598,0.0308 -0.663139,-0.51196 z m -3.648995,-8.15726 c 0,-0.0438 0.16979,-0.21015 0.377311,-0.36956 0.341965,-0.26268 0.349591,-0.25521 0.0814,0.0797 -0.281662,0.35177 -0.458715,0.46364 -0.458715,0.28983 z m 47.608662,-5.76631 c 0.15564,-0.061 0.3416,-0.0535 0.41324,0.0167 0.0717,0.0702 -0.0557,0.12008 -0.28298,0.11092 -0.25117,-0.0101 -0.30226,-0.0602 -0.13026,-0.12759 z m -1.94046,-0.21118 c 0.15564,-0.061 0.3416,-0.0535 0.41324,0.0167 0.0717,0.0702 -0.0557,0.12009 -0.28298,0.11092 -0.25117,-0.0101 -0.30226,-0.0602 -0.13026,-0.12759 z m -16.601722,-0.21118 c 0.155641,-0.061 0.341602,-0.0535 0.413246,0.0167 0.07165,0.0702 -0.0557,0.12008 -0.282983,0.11091 -0.25117,-0.0101 -0.302259,-0.0602 -0.130263,-0.12759 z m 14.000962,0.004 c 0.14823,-0.0586 0.39079,-0.0586 0.53902,0 0.14823,0.0586 0.0269,0.10652 -0.26951,0.10652 -0.29646,0 -0.41774,-0.0479 -0.26951,-0.10652 z m -9.378893,-0.22515 c 0.444689,-0.0456 1.172362,-0.0456 1.617051,0 0.444689,0.0456 0.08085,0.0828 -0.808525,0.0828 -0.889378,0 -1.253215,-0.0373 -0.808526,-0.0828 z m 3.56321,-0.001 c 0.507116,-0.0446 1.283303,-0.044 1.724853,0.001 0.44156,0.0454 0.0266,0.0819 -0.922027,0.0811 -0.948669,-7.7e-4 -1.309941,-0.0379 -0.802826,-0.0825 z m -11.203773,-3.3682 c 0.155641,-0.061 0.341602,-0.0535 0.413246,0.0167 0.07165,0.0702 -0.0557,0.12009 -0.282983,0.11092 -0.25117,-0.0101 -0.302259,-0.0602 -0.130263,-0.12759 z m 20.267036,0 c 0.15564,-0.061 0.3416,-0.0535 0.41324,0.0167 0.0716,0.0702 -0.0557,0.12009 -0.28298,0.11092 -0.25117,-0.0101 -0.30226,-0.0602 -0.13026,-0.12759 z m -17.895362,-0.21118 c 0.155641,-0.061 0.341602,-0.0535 0.413246,0.0167 0.07165,0.0702 -0.0557,0.12008 -0.282983,0.11091 -0.25117,-0.0101 -0.302259,-0.0602 -0.130263,-0.12759 z m 15.523682,0 c 0.15564,-0.061 0.3416,-0.0535 0.41325,0.0167 0.0716,0.0702 -0.0557,0.12008 -0.28299,0.11091 -0.25117,-0.0101 -0.30225,-0.0602 -0.13026,-0.12759 z m -11.656236,-0.21595 c 0.266813,-0.0503 0.703417,-0.0503 0.97023,0 0.266813,0.0503 0.04851,0.0915 -0.485115,0.0915 -0.533627,0 -0.751929,-0.0412 -0.485115,-0.0915 z m 7.225786,-0.002 c 0.32774,-0.0485 0.81285,-0.0473 1.07804,0.003 0.26518,0.0501 -0.003,0.0898 -0.59589,0.0883 -0.59291,-0.002 -0.80988,-0.0426 -0.48215,-0.0911 z"
         id="path4" /><path
         style="fill:#cb6060"
         d="m 93.225157,199.80733 c 0.209778,-0.0535 0.500847,-0.05 0.64682,0.008 0.145973,0.0579 -0.02566,0.10165 -0.381415,0.0974 -0.355751,-0.004 -0.475184,-0.0516 -0.265405,-0.10518 z m 12.716693,7.8e-4 c 0.20752,-0.0531 0.5471,-0.0531 0.75462,0 0.20752,0.0531 0.0377,0.0966 -0.37731,0.0966 -0.41504,0 -0.58483,-0.0435 -0.37731,-0.0966 z m -15.631487,-0.20547 c 0.148229,-0.0586 0.390787,-0.0586 0.539017,0 0.148229,0.0586 0.02695,0.10652 -0.269509,0.10652 -0.296459,0 -0.417738,-0.0479 -0.269508,-0.10652 z m 18.542177,0 c 0.14823,-0.0586 0.39079,-0.0586 0.53902,0 0.14823,0.0586 0.0269,0.10652 -0.26951,0.10652 -0.29646,0 -0.41774,-0.0479 -0.26951,-0.10652 z m -21.129458,-0.21118 c 0.14823,-0.0586 0.390787,-0.0586 0.539017,0 0.148229,0.0586 0.02695,0.10652 -0.269509,0.10652 -0.296459,0 -0.417738,-0.0479 -0.269508,-0.10652 z m 23.932348,0 c 0.14823,-0.0586 0.39079,-0.0586 0.53901,0 0.14823,0.0586 0.027,0.10652 -0.2695,0.10652 -0.29646,0 -0.41774,-0.0479 -0.26951,-0.10652 z m -25.643726,-0.21557 c 0.155641,-0.061 0.341602,-0.0535 0.413246,0.0167 0.07164,0.0702 -0.0557,0.12008 -0.282984,0.11091 -0.251169,-0.0101 -0.302259,-0.0602 -0.130262,-0.12758 z m 27.597656,0 c 0.15564,-0.061 0.34161,-0.0535 0.41325,0.0167 0.0716,0.0702 -0.0557,0.12008 -0.28298,0.11091 -0.25117,-0.0101 -0.30226,-0.0602 -0.13027,-0.12758 z m -18.986863,-3.17803 c 0.503981,-0.0445 1.328676,-0.0445 1.832657,0 0.503981,0.0445 0.09163,0.0808 -0.916328,0.0808 -1.007962,0 -1.42031,-0.0364 -0.916329,-0.0808 z m 8.738573,-8.6e-4 c 0.56686,-0.0436 1.44006,-0.0431 1.94047,10e-4 0.5004,0.0443 0.0366,0.08 -1.03064,0.0794 -1.06726,-6.5e-4 -1.47668,-0.0369 -0.90983,-0.0805 z m -11.972674,-0.19555 c 0.14823,-0.0586 0.390787,-0.0586 0.539017,0 0.14823,0.0586 0.02695,0.10652 -0.269508,0.10652 -0.29646,0 -0.417738,-0.0479 -0.269509,-0.10652 z m 16.601714,0 c 0.14823,-0.0586 0.39079,-0.0586 0.53902,0 0.14823,0.0586 0.0269,0.10652 -0.26951,0.10652 -0.29646,0 -0.41774,-0.0479 -0.26951,-0.10652 z m -19.188994,-0.21118 c 0.148229,-0.0586 0.390787,-0.0586 0.539016,0 0.14823,0.0586 0.02695,0.10652 -0.269508,0.10652 -0.296459,0 -0.417738,-0.0479 -0.269508,-0.10652 z m 21.776274,0 c 0.14823,-0.0586 0.39079,-0.0586 0.53902,0 0.14823,0.0586 0.0269,0.10652 -0.26951,0.10652 -0.29646,0 -0.41774,-0.0479 -0.26951,-0.10652 z M 86.874131,195.3747 c 0.155641,-0.061 0.341602,-0.0535 0.413246,0.0167 0.07164,0.0702 -0.0557,0.12008 -0.282984,0.11091 -0.25117,-0.0101 -0.302259,-0.0602 -0.130262,-0.12758 z m 25.872809,0 c 0.15564,-0.061 0.3416,-0.0535 0.41324,0.0167 0.0717,0.0702 -0.0557,0.12008 -0.28298,0.11091 -0.25117,-0.0101 -0.30226,-0.0602 -0.13026,-0.12758 z m -29.10691,-0.42236 c 0.155641,-0.061 0.341602,-0.0535 0.413246,0.0167 0.07164,0.0702 -0.0557,0.12009 -0.282984,0.11092 -0.251169,-0.0101 -0.302259,-0.0602 -0.130262,-0.12759 z m 32.34101,0 c 0.15564,-0.061 0.3416,-0.0535 0.41324,0.0167 0.0717,0.0702 -0.0557,0.12009 -0.28298,0.11092 -0.25117,-0.0101 -0.30226,-0.0602 -0.13026,-0.12759 z m -60.329457,-6.50782 c -0.523715,-0.52267 -0.903698,-0.9503 -0.844406,-0.9503 0.05929,0 0.536297,0.42763 1.060012,0.9503 0.523715,0.52266 0.903698,0.95029 0.844406,0.95029 -0.05929,0 -0.536297,-0.42763 -1.060012,-0.95029 z m 88.389747,0.0528 c 0.89346,-0.93239 1.08704,-1.10004 1.08704,-0.94147 0,0.0339 -0.46086,0.48528 -1.02413,1.00309 l -1.02413,0.94147 z m -2.68608,-2.90369 c 0.46318,-0.46459 0.89065,-0.84471 0.94994,-0.84471 0.0593,0 -0.27115,0.38012 -0.73433,0.84471 -0.46318,0.46459 -0.89065,0.84471 -0.94994,0.84471 -0.0593,0 0.27116,-0.38012 0.73433,-0.84471 z m -83.348312,-0.36956 -0.522698,-0.58073 0.592918,0.51196 c 0.554172,0.4785 0.691793,0.64951 0.522699,0.64951 -0.03862,0 -0.305435,-0.26133 -0.592919,-0.58074 z m -5.77102,-2.7981 c 0,-0.29036 0.04894,-0.40915 0.108749,-0.26397 0.05981,0.14519 0.05981,0.38276 0,0.52795 -0.05981,0.14518 -0.108749,0.0264 -0.108749,-0.26398 z m 95.281152,-0.33436 c 0.0103,-0.24601 0.0614,-0.29605 0.13026,-0.12759 0.0623,0.15245 0.0546,0.33459 -0.017,0.40476 -0.0717,0.0702 -0.12261,-0.0546 -0.11324,-0.27717 z m -91.417252,-0.42235 c 0.01035,-0.24601 0.06144,-0.29605 0.130262,-0.12759 0.06228,0.15244 0.05462,0.33458 -0.01702,0.40476 -0.07164,0.0702 -0.122602,-0.0546 -0.11324,-0.27717 z m 87.561342,-0.61594 c 0.004,-0.34844 0.0527,-0.46542 0.10738,-0.25995 0.0547,0.20547 0.0511,0.49056 -0.008,0.63353 -0.0591,0.14297 -0.10379,-0.0251 -0.0994,-0.37358 z m -87.561342,-0.65113 c 0.01035,-0.24601 0.06144,-0.29605 0.130262,-0.12758 0.06228,0.15244 0.05462,0.33458 -0.01702,0.40475 -0.07164,0.0702 -0.122602,-0.0546 -0.11324,-0.27717 z m 91.417252,-0.42235 c 0.0103,-0.24601 0.0614,-0.29605 0.13026,-0.12759 0.0623,0.15244 0.0546,0.33458 -0.017,0.40476 -0.0717,0.0702 -0.12261,-0.0546 -0.11324,-0.27717 z m -95.281152,-0.29917 c 0,-0.29037 0.04894,-0.40916 0.108749,-0.26397 0.05981,0.14518 0.05981,0.38276 0,0.52794 -0.05981,0.14519 -0.108749,0.0264 -0.108749,-0.26397 z m 5.679535,-2.74531 c 0.214634,-0.23229 0.438755,-0.42235 0.498046,-0.42235 0.05929,0 -0.06781,0.19006 -0.282439,0.42235 -0.214634,0.2323 -0.438754,0.42236 -0.498046,0.42236 -0.05929,0 0.06781,-0.19006 0.282439,-0.42236 z m 83.951317,0.0528 c -0.26819,-0.33494 -0.26056,-0.34241 0.0814,-0.0797 0.20752,0.1594 0.37731,0.32571 0.37731,0.36956 0,0.1738 -0.17705,0.0619 -0.45871,-0.28983 z m 2.18357,-3.32604 c -0.52372,-0.52267 -0.9037,-0.9503 -0.84441,-0.9503 0.0593,0 0.5363,0.42763 1.06001,0.9503 0.52372,0.52266 0.9037,0.95029 0.84441,0.95029 -0.0593,0 -0.5363,-0.42763 -1.06001,-0.95029 z m -60.841524,-6.58517 c 0.155642,-0.061 0.341602,-0.0535 0.413247,0.0167 0.07164,0.0702 -0.0557,0.12009 -0.282984,0.11092 -0.25117,-0.0101 -0.302259,-0.0602 -0.130263,-0.12759 z m 33.203434,0 c 0.15564,-0.061 0.3416,-0.0535 0.41325,0.0167 0.0716,0.0702 -0.0557,0.12009 -0.28299,0.11092 -0.25117,-0.0101 -0.30226,-0.0602 -0.13026,-0.12759 z M 86.442917,166.6546 c 0.155641,-0.061 0.341602,-0.0535 0.413246,0.0167 0.07165,0.0702 -0.0557,0.12008 -0.282983,0.11091 -0.25117,-0.0101 -0.302259,-0.0602 -0.130263,-0.12758 z m 26.735233,0 c 0.15564,-0.061 0.3416,-0.0535 0.41325,0.0167 0.0716,0.0702 -0.0557,0.12008 -0.28299,0.11091 -0.25117,-0.0101 -0.30226,-0.0602 -0.13026,-0.12758 z m -25.023854,-0.20678 c 0.148229,-0.0586 0.390787,-0.0586 0.539016,0 0.14823,0.0586 0.02695,0.10651 -0.269508,0.10651 -0.296459,0 -0.417738,-0.0479 -0.269508,-0.10651 z m 23.069914,0 c 0.14823,-0.0586 0.39079,-0.0586 0.53902,0 0.14823,0.0586 0.027,0.10651 -0.26951,0.10651 -0.29646,0 -0.41774,-0.0479 -0.26951,-0.10651 z m -20.267027,-0.21118 c 0.148229,-0.0586 0.390787,-0.0586 0.539017,0 0.148229,0.0586 0.02695,0.10652 -0.269509,0.10652 -0.296459,0 -0.417738,-0.0479 -0.269508,-0.10652 z m 17.360447,-0.006 c 0.20978,-0.0536 0.50084,-0.05 0.64682,0.008 0.14597,0.0579 -0.0257,0.10166 -0.38142,0.0974 -0.35575,-0.004 -0.47518,-0.0516 -0.2654,-0.10517 z m -14.126346,-0.2176 c 0.385397,-0.0469 1.016046,-0.0469 1.401443,0 0.385397,0.0468 0.07007,0.0852 -0.700722,0.0852 -0.770794,0 -1.086118,-0.0383 -0.700721,-0.0852 z m 10.137376,-2.8e-4 c 0.38752,-0.047 0.96966,-0.046 1.29364,0.002 0.32398,0.0482 0.007,0.0866 -0.70458,0.0855 -0.7115,-0.001 -0.97658,-0.0406 -0.58906,-0.0876 z m -17.023316,-3.37005 c 0.155641,-0.061 0.341602,-0.0535 0.413246,0.0167 0.07164,0.0702 -0.0557,0.12008 -0.282984,0.11092 -0.251169,-0.0101 -0.302258,-0.0602 -0.130262,-0.12759 z m 25.010376,0 c 0.15564,-0.061 0.34161,-0.0535 0.41325,0.0167 0.0716,0.0702 -0.0557,0.12008 -0.28298,0.11092 -0.25117,-0.0101 -0.30226,-0.0602 -0.13027,-0.12759 z m -22.324664,-0.21326 c 0.209778,-0.0536 0.500847,-0.05 0.64682,0.008 0.145973,0.0579 -0.02566,0.10165 -0.381415,0.0974 -0.355751,-0.004 -0.475183,-0.0516 -0.265405,-0.10517 z m 19.292694,0.006 c 0.14823,-0.0586 0.39079,-0.0586 0.53902,0 0.14823,0.0586 0.0269,0.10652 -0.26951,0.10652 -0.29646,0 -0.41774,-0.0479 -0.26951,-0.10652 z m -16.278303,-0.21689 c 0.207521,-0.0531 0.547102,-0.0531 0.754623,0 0.207522,0.0531 0.03773,0.0966 -0.377312,0.0966 -0.415042,0 -0.584833,-0.0435 -0.377311,-0.0966 z m 12.936403,0 c 0.20752,-0.0531 0.5471,-0.0531 0.75462,0 0.20752,0.0531 0.0377,0.0966 -0.37731,0.0966 -0.41504,0 -0.58483,-0.0435 -0.37731,-0.0966 z M 91.500303,135.18709 c 0.209778,-0.0535 0.500847,-0.05 0.64682,0.008 0.145973,0.0579 -0.02566,0.10166 -0.381415,0.0974 -0.355751,-0.004 -0.475183,-0.0516 -0.265405,-0.10517 z m 12.716697,7.7e-4 c 0.20752,-0.0531 0.5471,-0.0531 0.75462,0 0.20752,0.0531 0.0377,0.0966 -0.37731,0.0966 -0.41505,0 -0.58484,-0.0435 -0.37731,-0.0966 z M 88.585509,134.9824 c 0.14823,-0.0586 0.390787,-0.0586 0.539017,0 0.148229,0.0586 0.02695,0.10651 -0.269509,0.10651 -0.296459,0 -0.417738,-0.0479 -0.269508,-0.10651 z m 18.542181,0 c 0.14823,-0.0586 0.39078,-0.0586 0.53901,0 0.14823,0.0586 0.0269,0.10651 -0.2695,0.10651 -0.29646,0 -0.41774,-0.0479 -0.26951,-0.10651 z m -21.129462,-0.21118 c 0.14823,-0.0586 0.390788,-0.0586 0.539017,0 0.14823,0.0586 0.02695,0.10651 -0.269508,0.10651 -0.29646,0 -0.417738,-0.0479 -0.269509,-0.10651 z m 23.932342,0 c 0.14823,-0.0586 0.39079,-0.0586 0.53902,0 0.14823,0.0586 0.0269,0.10651 -0.26951,0.10651 -0.29646,0 -0.41774,-0.0479 -0.26951,-0.10651 z m -25.64372,-0.21558 c 0.155641,-0.061 0.341602,-0.0535 0.413246,0.0167 0.07165,0.0702 -0.0557,0.12009 -0.282984,0.11092 -0.251169,-0.0101 -0.302259,-0.0602 -0.130262,-0.12759 z m 27.59766,0 c 0.15564,-0.061 0.3416,-0.0535 0.41325,0.0167 0.0716,0.0702 -0.0557,0.12009 -0.28299,0.11092 -0.25117,-0.0101 -0.30226,-0.0602 -0.13026,-0.12759 z m -19.196774,-3.1783 c 0.507115,-0.0446 1.283299,-0.044 1.724854,0.001 0.441554,0.0454 0.02664,0.0819 -0.922028,0.0811 -0.94867,-7.7e-4 -1.309941,-0.0379 -0.802826,-0.0825 z m 9.373194,0.001 c 0.44469,-0.0456 1.17236,-0.0456 1.61705,0 0.44469,0.0456 0.0808,0.0828 -0.80853,0.0828 -0.88937,0 -1.25321,-0.0373 -0.80852,-0.0828 z m -12.612994,-0.1972 c 0.148229,-0.0586 0.390787,-0.0586 0.539017,0 0.148229,0.0586 0.02695,0.10652 -0.269509,0.10652 -0.296459,0 -0.417738,-0.0479 -0.269508,-0.10652 z m 17.046404,-0.004 c 0.15564,-0.061 0.3416,-0.0535 0.41325,0.0167 0.0716,0.0702 -0.0557,0.12008 -0.28299,0.11091 -0.25117,-0.0101 -0.30225,-0.0602 -0.13026,-0.12758 z m -19.633685,-0.20678 c 0.14823,-0.0586 0.390787,-0.0586 0.539017,0 0.14823,0.0586 0.02695,0.10651 -0.269508,0.10651 -0.29646,0 -0.417738,-0.0479 -0.269509,-0.10651 z m 22.220965,-0.004 c 0.15564,-0.061 0.3416,-0.0535 0.41325,0.0167 0.0716,0.0702 -0.0557,0.12008 -0.28298,0.11091 -0.25117,-0.0101 -0.30226,-0.0602 -0.13027,-0.12758 z M 53.926729,123.825 c -0.523715,-0.52266 -0.903698,-0.9503 -0.844406,-0.9503 0.05929,0 0.536298,0.42764 1.060013,0.9503 0.523715,0.52266 0.903697,0.9503 0.844405,0.9503 -0.05929,0 -0.536297,-0.42764 -1.060012,-0.9503 z m 88.389741,0.0528 c 0.89347,-0.93238 1.08705,-1.10004 1.08705,-0.94147 0,0.0339 -0.46086,0.48528 -1.02413,1.00309 l -1.02414,0.94148 z m -4.73433,-1.08282 c 0,-0.0439 0.16979,-0.21015 0.37731,-0.36956 0.34196,-0.26268 0.34959,-0.25521 0.0814,0.0797 -0.28166,0.35177 -0.45871,0.46364 -0.45871,0.28983 z m 2.04826,-1.82086 c 0.46318,-0.46459 0.89065,-0.84471 0.94994,-0.84471 0.0593,0 -0.27116,0.38012 -0.73433,0.84471 -0.46318,0.46459 -0.89065,0.84471 -0.94994,0.84471 -0.0593,0 0.27115,-0.38012 0.73433,-0.84471 z m -83.460286,-0.47515 -0.410728,-0.47515 0.485115,0.40229 c 0.455889,0.37805 0.583268,0.54801 0.410728,0.54801 -0.04091,0 -0.259214,-0.21382 -0.485115,-0.47515 z m -5.659049,-2.69251 c 0,-0.29037 0.04894,-0.40916 0.108749,-0.26397 0.05981,0.14518 0.05981,0.38275 0,0.52794 -0.05981,0.14518 -0.108749,0.0264 -0.108749,-0.26397 z m 95.281145,-0.33437 c 0.0103,-0.24601 0.0614,-0.29605 0.13027,-0.12758 0.0623,0.15244 0.0546,0.33458 -0.017,0.40475 -0.0716,0.0702 -0.1226,-0.0546 -0.11324,-0.27717 z m -3.85591,-1.03828 c 0.004,-0.34845 0.0527,-0.46543 0.10738,-0.25996 0.0547,0.20547 0.0511,0.49056 -0.008,0.63353 -0.0591,0.14298 -0.10378,-0.0251 -0.0994,-0.37357 z m 3.85591,-1.07349 c 0.0103,-0.24601 0.0614,-0.29605 0.13027,-0.12759 0.0623,0.15245 0.0546,0.33459 -0.017,0.40476 -0.0716,0.0702 -0.1226,-0.0546 -0.11324,-0.27717 z m -95.281145,-0.29917 c 0,-0.29037 0.04894,-0.40915 0.108749,-0.26397 0.05981,0.14519 0.05981,0.38276 0,0.52794 -0.05981,0.14519 -0.108749,0.0264 -0.108749,-0.26397 z m 87.259175,-4.80428 c -0.26819,-0.33494 -0.26056,-0.34241 0.0814,-0.0797 0.35915,0.27587 0.47336,0.44929 0.29591,0.44929 -0.0448,0 -0.21456,-0.1663 -0.37731,-0.36956 z m 4.55524,-1.21427 c -0.52371,-0.52266 -0.90369,-0.9503 -0.8444,-0.9503 0.0593,0 0.5363,0.42764 1.06001,0.9503 0.52372,0.52266 0.9037,0.9503 0.84441,0.9503 -0.0593,0 -0.5363,-0.42764 -1.06002,-0.9503 z m -60.841517,-6.5859 c 0.155641,-0.061 0.341602,-0.0535 0.413246,0.0167 0.07164,0.0702 -0.0557,0.12008 -0.282984,0.11091 -0.251169,-0.0101 -0.302259,-0.0602 -0.130262,-0.12758 z m 33.203437,0 c 0.15564,-0.061 0.3416,-0.0535 0.41324,0.0167 0.0717,0.0702 -0.0557,0.12008 -0.28298,0.11091 -0.25117,-0.0101 -0.30226,-0.0602 -0.13026,-0.12758 z m -3.2341,-0.42236 c 0.15564,-0.061 0.3416,-0.0535 0.41324,0.0167 0.0717,0.0702 -0.0557,0.12009 -0.28298,0.11092 -0.25117,-0.0101 -0.30226,-0.0602 -0.13026,-0.12759 z m -25.010383,-0.21118 c 0.155641,-0.061 0.341602,-0.0535 0.413246,0.0167 0.07165,0.0702 -0.0557,0.12008 -0.282983,0.11091 -0.25117,-0.0101 -0.302259,-0.0602 -0.130263,-0.12759 z m 23.056443,0.004 c 0.14823,-0.0586 0.39079,-0.0586 0.53902,0 0.14823,0.0586 0.0269,0.10652 -0.26951,0.10652 -0.29646,0 -0.41774,-0.0479 -0.26951,-0.10652 z m -20.267031,-0.21117 c 0.14823,-0.0586 0.390787,-0.0586 0.539017,0 0.14823,0.0586 0.02695,0.10651 -0.269508,0.10651 -0.29646,0 -0.417739,-0.0479 -0.269509,-0.10651 z m 17.464141,0 c 0.14823,-0.0586 0.39079,-0.0586 0.53902,0 0.14823,0.0586 0.0269,0.10651 -0.26951,0.10651 -0.29646,0 -0.41774,-0.0479 -0.26951,-0.10651 z m -14.337843,-0.22258 c 0.326105,-0.0484 0.859731,-0.0484 1.185836,0 0.326106,0.0484 0.05929,0.088 -0.592918,0.088 -0.65221,0 -0.919024,-0.0396 -0.592918,-0.088 z m 10.460783,-0.002 c 0.38752,-0.047 0.96966,-0.046 1.29364,0.002 0.32399,0.0482 0.007,0.0866 -0.70458,0.0854 -0.7115,-10e-4 -0.97658,-0.0406 -0.58906,-0.0876 z M 85.58049,98.021973 c 0.155641,-0.061 0.341602,-0.0535 0.413247,0.01667 0.07164,0.07017 -0.0557,0.120084 -0.282984,0.110914 -0.25117,-0.01013 -0.302259,-0.06017 -0.130263,-0.127586 z m 25.01038,0 c 0.15564,-0.061 0.3416,-0.0535 0.41325,0.01667 0.0716,0.07017 -0.0557,0.120084 -0.28299,0.110914 -0.25117,-0.01013 -0.30226,-0.06017 -0.13026,-0.127586 z M 88.266202,97.80871 c 0.209779,-0.05354 0.500848,-0.05002 0.64682,0.0078 0.145973,0.05785 -0.02566,0.101654 -0.381415,0.09735 -0.355751,-0.0043 -0.475183,-0.05163 -0.265405,-0.105175 z m 19.292698,0.0065 c 0.14823,-0.05858 0.39079,-0.05858 0.53902,0 0.14823,0.05858 0.0269,0.106515 -0.26951,0.106515 -0.29646,0 -0.41774,-0.04793 -0.26951,-0.106515 z M 91.280593,97.598307 c 0.207521,-0.05312 0.547102,-0.05312 0.754623,0 0.207522,0.05312 0.03773,0.09658 -0.377311,0.09658 -0.415043,0 -0.584834,-0.04346 -0.377312,-0.09658 z m 12.936407,0 c 0.20752,-0.05312 0.5471,-0.05312 0.75462,0 0.20752,0.05312 0.0377,0.09658 -0.37731,0.09658 -0.41505,0 -0.58484,-0.04346 -0.37731,-0.09658 z"
         id="path3" /><path
         style="fill:#585858"
         d="M 94.999809,173.96645 C 80.691,173.35563 68.065297,169.30632 63.872485,163.98331 c -1.47056,-1.86696 -1.853641,-2.91961 -1.857311,-5.10361 -0.0028,-1.64313 0.07843,-2.07132 0.599295,-3.16086 0.824887,-1.72547 3.565834,-4.3247 5.936356,-5.62943 l 1.77458,-0.97672 -1.569431,-0.73202 c -3.625833,-1.69118 -6.669616,-4.25648 -7.838547,-6.60633 -0.561857,-1.12948 -0.630235,-1.48491 -0.629704,-3.27325 5.04e-4,-1.69871 0.07862,-2.15183 0.509706,-2.95648 0.815087,-1.52143 2.097621,-3.03829 3.44666,-4.07638 l 1.253337,-0.96444 2.333769,0.7254 c 1.283573,0.39897 2.48832,0.7266 2.677216,0.72807 0.188895,0.001 -0.409053,0.40534 -1.328774,0.8975 -3.235656,1.73147 -5.119392,3.80832 -5.119392,5.64422 0,2.72511 3.935217,5.8528 9.980038,7.93209 l 1.679179,0.5776 1.878332,-0.54554 c 6.217225,-1.80571 13.557471,-2.68339 22.426616,-2.68155 7.72664,0.002 14.86564,0.76208 20.46116,2.17959 l 1.98464,0.50277 1.58387,-0.67458 c 5.48506,-2.33611 8.01085,-4.45701 8.29998,-6.96946 0.22096,-1.92004 -1.6633,-4.13673 -5.07056,-5.96514 -0.91714,-0.49216 -1.50687,-0.89604 -1.3105,-0.8975 0.19636,-0.001 1.38341,-0.34272 2.63788,-0.75834 l 2.28085,-0.75567 1.29267,0.99472 c 5.05432,3.88932 5.42647,9.34042 0.91793,13.4458 -1.14949,1.0467 -4.06235,2.99929 -4.8306,3.23811 -0.36256,0.11271 -0.0207,0.35962 1.76767,1.27674 3.66022,1.87706 6.08213,4.00421 7.24894,6.36671 0.51629,1.04537 0.6007,1.47799 0.60834,3.11809 0.008,1.72569 -0.056,2.03345 -0.68261,3.28077 -0.73403,1.46115 -2.31384,3.13886 -4.37528,4.64639 -3.91367,2.86208 -12.57177,5.57807 -21.14595,6.63335 -2.51914,0.31004 -10.55609,0.77359 -12.273093,0.70787 -0.415043,-0.0159 -2.404015,-0.0993 -4.419938,-0.18535 z m 13.583221,-4.0248 c 5.38196,-0.48692 9.9121,-1.36556 14.20533,-2.75522 7.2177,-2.33626 11.34407,-5.38402 11.34407,-8.3788 0,-2.5395 -4.13941,-5.76021 -9.95904,-7.74873 l -1.65819,-0.56659 -2.86955,0.75435 c -6.16282,1.62009 -11.02486,2.23215 -19.04803,2.39786 -5.978704,0.12349 -10.766412,-0.0967 -15.19231,-0.6987 -2.58658,-0.35183 -6.939405,-1.20703 -8.486544,-1.66736 -1.041264,-0.30981 -1.0613,-0.30653 -3.066693,0.50223 -3.93101,1.58533 -7.251632,4.05206 -7.851569,5.83254 -0.88333,2.62153 1.202218,5.24456 5.984483,7.52678 6.255001,2.98504 14.372679,4.70312 24.200659,5.12199 2.494382,0.10631 9.755194,-0.0813 12.397384,-0.32035 z m 0.53902,-20.54943 c 1.4823,-0.18267 3.22871,-0.44438 3.88092,-0.58157 l 1.18584,-0.24943 -1.07804,-0.17055 c -4.83919,-0.76559 -15.234754,-1.0595 -20.913849,-0.59129 -3.127088,0.25781 -7.217891,0.81624 -7.631034,1.04171 -0.29725,0.16221 1.951387,0.48633 5.906181,0.85131 3.087089,0.28489 15.527042,0.0847 18.649982,-0.30018 z M 76.888844,129.53099 c -0.118583,-0.037 -1.549673,-0.37877 -3.180199,-0.75945 -1.630525,-0.38067 -2.964592,-0.7586 -2.964592,-0.83984 0,-0.17942 3.060843,-1.2362 5.713578,-1.97265 11.492991,-3.19067 28.645829,-3.45066 41.073079,-0.62257 2.75169,0.62621 8.22623,2.38233 8.09163,2.59564 -0.10663,0.16898 -1.78568,0.62493 -4.68176,1.27134 -1.86909,0.41719 -1.87558,0.41718 -3.55751,-0.005 -10.82017,-2.71721 -27.106771,-2.71315 -38.275724,0.01 -1.768589,0.43114 -1.839623,0.44148 -2.218502,0.3232 z"
         id="path2" /><path
         style="fill:#af0000"
         d="m 90.795478,199.62684 c -8.915892,-0.73706 -15.413904,-1.9592 -21.919755,-4.12266 -14.547456,-4.83761 -20.092451,-12.69426 -14.418607,-20.42959 1.758564,-2.39751 6.27079,-5.39571 10.874389,-7.22561 l 2.025885,-0.80528 0.868494,0.537 c 0.477672,0.29534 1.533586,0.84918 2.346475,1.23074 l 1.477981,0.69375 -2.108489,0.67857 c -2.409088,0.7753 -6.702259,2.72402 -8.506179,3.86104 -1.787407,1.12661 -3.629193,2.88436 -4.48999,4.28512 -0.657053,1.06921 -0.754223,1.40514 -0.754623,2.60885 -6.2e-4,1.86528 0.635466,3.09645 2.570201,4.9747 6.262021,6.07922 22.929718,10.22719 41.132815,10.23642 18.481295,0.009 34.967475,-4.14499 41.472435,-10.45068 2.9216,-2.83211 3.13783,-5.84334 0.62597,-8.7176 -2.01287,-2.30327 -7.25328,-5.2682 -12.0168,-6.79889 l -2.10849,-0.67753 1.47798,-0.69375 c 0.81289,-0.38156 1.86354,-0.93214 2.33478,-1.22351 l 0.85681,-0.52977 1.71416,0.6814 c 4.46958,1.77671 7.74381,3.8032 10.08751,6.24339 2.77824,2.89261 3.75554,5.69831 3.07846,8.83788 -2.14357,9.93972 -22.53003,17.20419 -47.997143,17.10323 -2.905301,-0.0115 -6.786222,-0.14527 -8.624269,-0.29722 z m -14.12224,-32.60787 c -1.304421,-0.44494 -2.759766,-0.97714 -3.234101,-1.18266 l -0.862427,-0.37368 0.97023,-0.28888 c 1.502265,-0.44729 6.897802,-1.48493 10.241319,-1.96956 9.426261,-1.36628 22.941771,-1.36718 32.341011,-0.002 3.31524,0.48146 8.7184,1.52635 10.24132,1.98052 l 0.97023,0.28934 -1.0643,0.46165 c -0.58537,0.25392 -2.0474,0.78382 -3.24895,1.17757 -1.82589,0.59834 -2.32384,0.6855 -3.03223,0.53074 -4.29997,-0.93939 -13.08818,-1.67756 -20.041497,-1.68338 -7.066423,-0.006 -16.814296,0.84086 -20.585521,1.78823 -0.177876,0.0447 -1.390664,-0.2828 -2.695084,-0.72774 z M 89.070624,135.0066 c -6.493382,-0.5368 -11.0907,-1.24226 -16.545783,-2.53897 -3.155575,-0.7501 -6.465852,-1.70704 -6.847546,-1.9795 -0.118584,-0.0846 -0.797745,-0.3755 -1.509247,-0.64635 -5.834667,-2.22106 -10.913172,-5.97959 -12.5877,-9.31596 -2.573398,-5.1273 -0.336235,-10.27425 6.260656,-14.40363 8.541248,-5.34647 23.839563,-8.59675 40.392906,-8.581878 17.15767,0.01542 32.25207,3.324488 40.99373,8.986848 2.21682,1.43594 4.80457,4.10461 5.67065,5.84799 4.87423,9.81157 -8.42569,19.12953 -31.41345,22.00835 -7.49262,0.93832 -17.508819,1.19395 -24.414216,0.6231 z m 18.003166,-3.79636 c 5.85724,-0.50627 8.80043,-0.91995 12.82859,-1.8031 6.68608,-1.46587 9.4706,-2.32364 13.29508,-4.0955 3.98247,-1.84506 7.22522,-4.41267 8.26687,-6.54571 0.69773,-1.42877 0.69773,-3.23695 0,-4.66573 -0.60288,-1.23455 -2.6508,-3.28113 -4.54204,-4.53906 -2.9156,-1.93927 -8.52508,-4.17352 -13.73781,-5.47177 -15.26743,-3.8024 -36.195372,-3.67526 -51.037477,0.31005 -7.202712,1.93403 -11.806799,4.0906 -15.021719,7.03622 -1.90822,1.74837 -2.647995,3.11166 -2.654513,4.89184 -0.0067,1.82029 0.625489,3.07231 2.460638,4.87346 5.189264,5.09311 17.058712,8.72481 33.001642,10.09752 3.525283,0.30354 13.183519,0.25383 17.140739,-0.0882 z"
         id="path1" /></g></g></svg>
