<?xml version="1.0" encoding="UTF-8"?>
<svg xmlns="http://www.w3.org/2000/svg" xmlns:xlink="http://www.w3.org/1999/xlink" width="174pt" height="1196pt" viewBox="0 0 174 1196" version="1.1">
<g id="surface1033">
<path style="fill-rule:evenodd;fill:rgb(100%,100%,100%);fill-opacity:0.1;stroke-width:10;stroke-linecap:butt;stroke-linejoin:round;stroke:rgb(68.6%,0%,0%);stroke-opacity:1;stroke-miterlimit:10;" d="M 305.484375 657.660156 C 305.484375 671.667969 275.949219 683.023438 239.515625 683.023438 C 203.082031 683.023438 173.546875 671.667969 173.546875 657.660156 C 173.546875 643.652344 203.082031 632.296875 239.515625 632.296875 C 275.949219 632.296875 305.484375 643.652344 305.484375 657.660156 Z M 305.484375 657.660156 " transform="matrix(1,0,0,-1,-152,926)"/>
<path style="fill:none;stroke-width:10;stroke-linecap:butt;stroke-linejoin:round;stroke:rgb(34.5%,34.5%,34.5%);stroke-opacity:1;stroke-miterlimit:10;" d="M 287.308594 695.097656 C 287.308594 703.9375 265.816406 711.097656 239.308594 711.097656 C 212.796875 711.097656 191.308594 703.9375 191.308594 695.097656 C 191.308594 686.261719 212.796875 679.097656 239.308594 679.097656 C 265.816406 679.097656 287.308594 686.261719 287.308594 695.097656 Z M 287.308594 695.097656 " transform="matrix(1,0,0,-1,-152,926)"/>
<path style="fill-rule:evenodd;fill:rgb(100%,100%,100%);fill-opacity:0.1;stroke-width:10;stroke-linecap:butt;stroke-linejoin:round;stroke:rgb(68.6%,0%,0%);stroke-opacity:1;stroke-miterlimit:10;" d="M 304.988281 502.171875 C 304.988281 538.605469 275.449219 568.140625 239.015625 568.140625 C 202.582031 568.140625 173.046875 538.605469 173.046875 502.171875 C 173.046875 465.738281 202.582031 436.203125 239.015625 436.203125 C 275.449219 436.203125 304.988281 465.738281 304.988281 502.171875 Z M 304.988281 502.171875 " transform="matrix(1,0,0,-1,-152,926)"/>
<path style="fill:none;stroke-width:10;stroke-linecap:butt;stroke-linejoin:round;stroke:rgb(34.5%,34.5%,34.5%);stroke-opacity:1;stroke-miterlimit:10;" d="M 285.015625 502.171875 C 285.015625 527.574219 264.421875 548.167969 239.015625 548.167969 C 213.613281 548.167969 193.019531 527.574219 193.019531 502.171875 C 193.019531 476.769531 213.613281 456.175781 239.015625 456.175781 C 264.421875 456.175781 285.015625 476.769531 285.015625 502.171875 Z M 285.015625 502.171875 " transform="matrix(1,0,0,-1,-152,926)"/>
<path style="fill:none;stroke-width:10;stroke-linecap:butt;stroke-linejoin:round;stroke:rgb(34.5%,34.5%,34.5%);stroke-opacity:1;stroke-miterlimit:10;" d="M 298 312 L 298 312 " transform="matrix(1,0,0,-1,-152,926)"/>
<path style="fill-rule:evenodd;fill:rgb(100%,100%,100%);fill-opacity:0.1;stroke-width:10;stroke-linecap:butt;stroke-linejoin:round;stroke:rgb(34.1%,34.1%,34.1%);stroke-opacity:1;stroke-miterlimit:10;" d="M 293.042969 284.347656 C 293.042969 295.5625 268.421875 304.65625 238.050781 304.65625 C 207.679688 304.65625 183.0625 295.5625 183.0625 284.347656 C 183.0625 273.128906 207.679688 264.035156 238.050781 264.035156 C 268.421875 264.035156 293.042969 273.128906 293.042969 284.347656 Z M 293.042969 284.347656 " transform="matrix(1,0,0,-1,-152,926)"/>
<path style="fill-rule:evenodd;fill:rgb(100%,100%,100%);fill-opacity:0.1;stroke-width:10;stroke-linecap:butt;stroke-linejoin:round;stroke:rgb(34.1%,34.1%,34.1%);stroke-opacity:1;stroke-miterlimit:10;" d="M 304.074219 141.347656 C 304.074219 155.355469 274.539063 166.714844 238.101563 166.714844 C 201.667969 166.714844 172.132813 155.355469 172.132813 141.347656 C 172.132813 127.339844 201.667969 115.984375 238.101563 115.984375 C 274.539063 115.984375 304.074219 127.339844 304.074219 141.347656 Z M 304.074219 141.347656 " transform="matrix(1,0,0,-1,-152,926)"/>
<path style="fill-rule:evenodd;fill:rgb(100%,100%,100%);fill-opacity:0.1;stroke-width:10;stroke-linecap:butt;stroke-linejoin:round;stroke:rgb(34.1%,34.1%,34.1%);stroke-opacity:1;stroke-miterlimit:10;" d="M 304.007813 172.800781 C 304.007813 186.808594 274.472656 198.164063 238.039063 198.164063 C 201.605469 198.164063 172.070313 186.808594 172.070313 172.800781 C 172.070313 158.792969 201.605469 147.4375 238.039063 147.4375 C 274.472656 147.4375 304.007813 158.792969 304.007813 172.800781 Z M 304.007813 172.800781 " transform="matrix(1,0,0,-1,-152,926)"/>
<path style="fill-rule:evenodd;fill:rgb(100%,100%,100%);fill-opacity:0.1;stroke-width:10;stroke-linecap:butt;stroke-linejoin:round;stroke:rgb(34.1%,34.1%,34.1%);stroke-opacity:1;stroke-miterlimit:10;" d="M 305.789063 844.476563 C 305.789063 880.910156 276.25 910.445313 239.816406 910.445313 C 203.382813 910.445313 173.847656 880.910156 173.847656 844.476563 C 173.847656 808.042969 203.382813 778.507813 239.816406 778.507813 C 276.25 778.507813 305.789063 808.042969 305.789063 844.476563 Z M 305.789063 844.476563 " transform="matrix(1,0,0,-1,-152,926)"/>
<path style="fill-rule:evenodd;fill:rgb(100%,100%,100%);fill-opacity:0.1;stroke-width:10;stroke-linecap:butt;stroke-linejoin:round;stroke:rgb(68.6%,0%,0%);stroke-opacity:1;stroke-miterlimit:10;" d="M 306.117188 -215.605469 C 306.117188 -201.59375 276.582031 -190.238281 240.148438 -190.238281 C 203.714844 -190.238281 174.179688 -201.59375 174.179688 -215.605469 C 174.179688 -229.613281 203.714844 -240.96875 240.148438 -240.96875 C 276.582031 -240.96875 306.117188 -229.613281 306.117188 -215.605469 Z M 306.117188 -215.605469 " transform="matrix(1,0,0,-1,-152,926)"/>
<path style="fill:none;stroke-width:10;stroke-linecap:butt;stroke-linejoin:round;stroke:rgb(34.5%,34.5%,34.5%);stroke-opacity:1;stroke-miterlimit:10;" d="M 287.730469 -188.929688 C 287.730469 -180.09375 266.242188 -172.929688 239.730469 -172.929688 C 213.222656 -172.929688 191.730469 -180.09375 191.730469 -188.929688 C 191.730469 -197.765625 213.222656 -204.929688 239.730469 -204.929688 C 266.242188 -204.929688 287.730469 -197.765625 287.730469 -188.929688 Z M 287.730469 -188.929688 " transform="matrix(1,0,0,-1,-152,926)"/>
<path style="fill-rule:evenodd;fill:rgb(100%,100%,100%);fill-opacity:0.1;stroke-width:10;stroke-linecap:butt;stroke-linejoin:round;stroke:rgb(34.1%,34.1%,34.1%);stroke-opacity:1;stroke-miterlimit:10;" d="M 305.359375 -45.539063 C 305.359375 -31.53125 275.824219 -20.175781 239.390625 -20.175781 C 202.957031 -20.175781 173.421875 -31.53125 173.421875 -45.539063 C 173.421875 -59.546875 202.957031 -70.902344 239.390625 -70.902344 C 275.824219 -70.902344 305.359375 -59.546875 305.359375 -45.539063 Z M 305.359375 -45.539063 " transform="matrix(1,0,0,-1,-152,926)"/>
<path style="fill-rule:evenodd;fill:rgb(100%,100%,100%);fill-opacity:0.1;stroke-width:10;stroke-linecap:butt;stroke-linejoin:round;stroke:rgb(34.1%,34.1%,34.1%);stroke-opacity:1;stroke-miterlimit:10;" d="M 304.550781 20.933594 C 304.550781 34.941406 275.015625 46.300781 238.578125 46.300781 C 202.144531 46.300781 172.609375 34.941406 172.609375 20.933594 C 172.609375 6.925781 202.144531 -4.429688 238.578125 -4.429688 C 275.015625 -4.429688 304.550781 6.925781 304.550781 20.933594 Z M 304.550781 20.933594 " transform="matrix(1,0,0,-1,-152,926)"/>
<path style="fill:none;stroke-width:0.1;stroke-linecap:butt;stroke-linejoin:round;stroke:rgb(0%,0%,0%);stroke-opacity:1;stroke-miterlimit:10;" d="M 326.398438 -270.160156 L 326.398438 -99.734375 L 153.191406 -99.734375 L 153.191406 -270.160156 Z M 326.398438 -270.160156 " transform="matrix(1,0,0,-1,-152,926)"/>
<path style="fill:none;stroke-width:0.1;stroke-linecap:butt;stroke-linejoin:round;stroke:rgb(0%,0%,0%);stroke-opacity:1;stroke-miterlimit:10;" d="M 326.394531 -99.285156 L 326.394531 71.144531 L 153.1875 71.144531 L 153.1875 -99.285156 Z M 326.394531 -99.285156 " transform="matrix(1,0,0,-1,-152,926)"/>
<path style="fill:none;stroke-width:0.1;stroke-linecap:butt;stroke-linejoin:round;stroke:rgb(0%,0%,0%);stroke-opacity:1;stroke-miterlimit:10;" d="M 326.390625 71.488281 L 326.390625 241.914063 L 153.183594 241.914063 L 153.183594 71.488281 Z M 326.390625 71.488281 " transform="matrix(1,0,0,-1,-152,926)"/>
<path style="fill:none;stroke-width:0.1;stroke-linecap:butt;stroke-linejoin:round;stroke:rgb(0%,0%,0%);stroke-opacity:1;stroke-miterlimit:10;" d="M 326.40625 242.351563 L 326.40625 412.78125 L 153.199219 412.78125 L 153.199219 242.351563 Z M 326.40625 242.351563 " transform="matrix(1,0,0,-1,-152,926)"/>
<path style="fill:none;stroke-width:0.1;stroke-linecap:butt;stroke-linejoin:round;stroke:rgb(0%,0%,0%);stroke-opacity:1;stroke-miterlimit:10;" d="M 326.347656 413.292969 L 326.347656 583.722656 L 153.144531 583.722656 L 153.144531 413.292969 Z M 326.347656 413.292969 " transform="matrix(1,0,0,-1,-152,926)"/>
<path style="fill:none;stroke-width:0.1;stroke-linecap:butt;stroke-linejoin:round;stroke:rgb(0%,0%,0%);stroke-opacity:1;stroke-miterlimit:10;" d="M 326.253906 584.109375 L 326.253906 754.539063 L 153.050781 754.539063 L 153.050781 584.109375 Z M 326.253906 584.109375 " transform="matrix(1,0,0,-1,-152,926)"/>
<path style="fill:none;stroke-width:0.1;stroke-linecap:butt;stroke-linejoin:round;stroke:rgb(0%,0%,0%);stroke-opacity:1;stroke-miterlimit:10;" d="M 326.183594 754.914063 L 326.183594 925.34375 L 152.976563 925.34375 L 152.976563 754.914063 Z M 326.183594 754.914063 " transform="matrix(1,0,0,-1,-152,926)"/>
<path style="fill:none;stroke-width:10;stroke-linecap:butt;stroke-linejoin:round;stroke:rgb(34.5%,34.5%,34.5%);stroke-opacity:1;stroke-miterlimit:10;" d="M 183.273438 287.351563 L 238.433594 395.976563 L 293.0625 286.195313 " transform="matrix(1,0,0,-1,-152,926)"/>
<path style="fill:none;stroke-width:13;stroke-linecap:butt;stroke-linejoin:round;stroke:rgb(68.6%,0%,0%);stroke-opacity:1;stroke-miterlimit:10;" d="M 245.503906 395.976563 C 245.503906 399.882813 242.339844 403.050781 238.433594 403.050781 C 234.527344 403.050781 231.359375 399.882813 231.359375 395.976563 C 231.359375 392.070313 234.527344 388.90625 238.433594 388.90625 C 242.339844 388.90625 245.503906 392.070313 245.503906 395.976563 Z M 245.503906 395.976563 " transform="matrix(1,0,0,-1,-152,926)"/>
<path style="fill:none;stroke-width:10;stroke-linecap:butt;stroke-linejoin:round;stroke:rgb(68.6%,0%,0%);stroke-opacity:1;stroke-miterlimit:10;" d="M 238.433594 395.976563 L 238.433594 392.195313 L 243.296875 392.195313 L 243.296875 395.976563 Z M 238.433594 395.976563 " transform="matrix(1,0,0,-1,-152,926)"/>
<path style="fill:none;stroke-width:10;stroke-linecap:butt;stroke-linejoin:round;stroke:rgb(34.5%,34.5%,34.5%);stroke-opacity:1;stroke-miterlimit:10;" d="M 287.769531 -165.171875 C 287.769531 -156.335938 266.28125 -149.171875 239.769531 -149.171875 C 213.261719 -149.171875 191.769531 -156.335938 191.769531 -165.171875 C 191.769531 -174.007813 213.261719 -181.171875 239.769531 -181.171875 C 266.28125 -181.171875 287.769531 -174.007813 287.769531 -165.171875 Z M 287.769531 -165.171875 " transform="matrix(1,0,0,-1,-152,926)"/>
<path style="fill-rule:evenodd;fill:rgb(100%,100%,100%);fill-opacity:0.1;stroke-width:10;stroke-linecap:butt;stroke-linejoin:round;stroke:rgb(68.6%,0%,0%);stroke-opacity:1;stroke-miterlimit:10;" d="M 305.46875 -133.125 C 305.46875 -119.117188 275.929688 -107.761719 239.496094 -107.761719 C 203.0625 -107.761719 173.527344 -119.117188 173.527344 -133.125 C 173.527344 -147.132813 203.0625 -158.488281 239.496094 -158.488281 C 275.929688 -158.488281 305.46875 -147.132813 305.46875 -133.125 Z M 305.46875 -133.125 " transform="matrix(1,0,0,-1,-152,926)"/>
</g>
</svg>
